SplineFontDB: 3.0
FontName: ContrailOne-Regular
FullName: Contrail One Regular
FamilyName: Contrail One
Weight: Regular
Copyright: Copyright (c) 2011, Sorkin Type Co (www.sorkintype.com)\nwith Reserved Font Names "Contrail" and "Contrail One".
Version: 001.003
ItalicAngle: 0
UnderlinePosition: -103
UnderlineWidth: 102
Ascent: 1638
Descent: 410
sfntRevision: 0x000100c5
LayerCount: 2
Layer: 0 1 "Back"  1
Layer: 1 1 "Fore"  0
NeedsXUIDChange: 1
XUID: [1021 288 713564382 144325]
FSType: 0
OS2Version: 2
OS2_WeightWidthSlopeOnly: 0
OS2_UseTypoMetrics: 1
CreationTime: 1318887496
ModificationTime: 1318898436
PfmFamily: 33
TTFWeight: 400
TTFWidth: 5
LineGap: 0
VLineGap: 0
Panose: 2 0 0 0 0 0 0 0 0 0
OS2TypoAscent: 1939
OS2TypoAOffset: 0
OS2TypoDescent: -625
OS2TypoDOffset: 0
OS2TypoLinegap: 0
OS2WinAscent: 1939
OS2WinAOffset: 0
OS2WinDescent: 625
OS2WinDOffset: 0
HheadAscent: 1939
HheadAOffset: 0
HheadDescent: -625
HheadDOffset: 0
OS2SubXSize: 1434
OS2SubYSize: 1331
OS2SubXOff: 0
OS2SubYOff: 287
OS2SupXSize: 1434
OS2SupYSize: 1331
OS2SupXOff: 0
OS2SupYOff: 977
OS2StrikeYSize: 102
OS2StrikeYPos: 512
OS2Vendor: 'pyrs'
OS2CodePages: 20000111.40000000
OS2UnicodeRanges: 800000af.00000002.00000000.00000000
MarkAttachClasses: 1
DEI: 91125
TtTable: prep
PUSHW_1
 511
SCANCTRL
PUSHB_1
 4
SCANTYPE
EndTTInstrs
LangName: 1033 "" "" "" "SorkinTypeCo.: Contrail One Regular: 2011" "ContrailOne-Regular" "Version 1.003" "" "Contrail is a trademark of Sorkin Type Co." "Sorkin Type Co." "Riccardo De Franceschi" "" "www.sorkintype.com" "www.rdftype.it" "This Font Software is licensed under the SIL Open Font License,+AA0A-Version 1.1. This license is available with a FAQ at:+AA0A-http://scripts.sil.org/OFL" "http://scripts.sil.org/OFL" 
GaspTable: 1 65535 15
Encoding: UnicodeBmp
UnicodeInterp: none
NameList: Adobe Glyph List
DisplaySize: -48
AntiAlias: 1
FitToEm: 1
WinInfo: 50 25 9
BeginPrivate: 2
BlueValues 27 [-15 0 1209 1218 1570 1574]
OtherBlues 11 [-499 -487]
EndPrivate

StartChar: S
Encoding: 83 83 1
Width: 714
Flags: HMW
HStem: -15 21G<78.5 220> 1315 259
VStem: 205 255<1154.5 1234.5 1154.5 1324.5> 370 255<355 463>
LayerCount: 2
Fore
SplineSet
88 -15 m 0,0,1
 63 -15 63 -15 63 9 c 1,2,-1
 88 218 l 1,3,4
 92 240 92 240 114 242 c 0,5,6
 270 258 270 258 320 291.5 c 128,-1,7
 370 325 370 325 370 425 c 128,-1,8
 370 525 370 525 319 685.5 c 128,-1,9
 268 846 268 846 253 899 c 0,10,11
 205 1068.6 205 1068.6 205 1177.3 c 128,-1,12
 205 1286 205 1286 240 1363 c 128,-1,13
 275 1440 275 1440 340 1485.5 c 0,14,15
 466.428571429 1574 466.428571429 1574 679 1574 c 0,16,17
 706 1574 706 1574 706 1549 c 1,18,-1
 679 1342 l 2,19,20
 675.377777778 1316.64444444 675.377777778 1316.64444444 654 1315 c 0,21,22
 460 1301.68627451 460 1301.68627451 460 1200 c 0,23,24
 460 1106 460 1106 542.5 830.5 c 128,-1,25
 625 555 625 555 625 436 c 0,26,27
 625 -15 625 -15 88 -15 c 0,0,1
EndSplineSet
EndChar

StartChar: E
Encoding: 69 69 2
Width: 905
Flags: HMW
HStem: -4 21G<125.5 132> 6 262 678 255 1304 256 1550 20G<857 857>
LayerCount: 2
Fore
SplineSet
748 684 m 2,0,-1
 437 672 l 1,1,-1
 390 262 l 1,2,-1
 773 275 l 1,3,4
 799 274 799 274 799 249 c 1,5,-1
 773 42 l 1,6,7
 771.402234637 21.2290502793 771.402234637 21.2290502793 747 16 c 1,8,-1
 132 -4 l 2,9,10
 110 -4 110 -4 110 15 c 1,11,-1
 283 1528 l 1,12,13
 286.56626506 1549.39759036 286.56626506 1549.39759036 309 1551 c 2,14,-1
 857 1570 l 1,15,16
 882 1567 882 1567 882 1543 c 1,17,-1
 857 1336 l 2,18,19
 854 1311 854 1311 831 1309 c 1,20,-1
 509 1300 l 1,21,-1
 466 928 l 1,22,-1
 774 939 l 1,23,24
 800 938 800 938 800 913 c 1,25,-1
 774 709 l 2,26,27
 770.4 685.6 770.4 685.6 748 684 c 2,0,-1
EndSplineSet
EndChar

StartChar: O
Encoding: 79 79 3
Width: 1047
Flags: HMW
HStem: -15 236<473.5 544 473.5 629.5> 1338 236<589.5 661>
VStem: 138 255<320 421.5> 739 255<1135.5 1238>
LayerCount: 2
Fore
SplineSet
224 85 m 128,-1,1
 138 185 138 185 138 335 c 0,2,3
 138 716.846153846 138 716.846153846 215 1090 c 0,4,5
 276.153353659 1382.89237805 276.153353659 1382.89237805 384.5 1481.5 c 0,6,7
 486.135802469 1574 486.135802469 1574 653.567901235 1574 c 128,-1,8
 821 1574 821 1574 907.5 1473 c 128,-1,9
 994 1372 994 1372 994 1224.5 c 128,-1,10
 994 1077 994 1077 975 867.5 c 128,-1,11
 956 658 956 658 928 517.5 c 128,-1,12
 900 377 900 377 880.5 312.5 c 128,-1,13
 861 248 861 248 827 182 c 128,-1,14
 793 116 793 116 748.5 76 c 0,15,16
 647.2625 -15 647.2625 -15 478.63125 -15 c 128,-1,0
 310 -15 310 -15 224 85 c 128,-1,1
504 221 m 0,17,18
 631 221 631 221 667 455 c 0,19,20
 691 610 691 610 715 841 c 128,-1,21
 739 1072 739 1072 739 1166 c 128,-1,22
 739 1260 739 1260 708.5 1299 c 128,-1,23
 678 1338 678 1338 622.5 1338 c 0,24,25
 506.36 1338 506.36 1338 465 1103 c 0,26,27
 441 965 441 965 417 728.5 c 128,-1,28
 393 492 393 492 393 395 c 128,-1,29
 393 298 393 298 424.5 259.5 c 128,-1,30
 456 221 456 221 504 221 c 0,17,18
EndSplineSet
EndChar

StartChar: N
Encoding: 78 78 4
Width: 1085
Flags: HMW
HStem: -4 21G<125.5 132 661.5 668> 1542 20G<512 522 1037 1046.5>
VStem: 401 375
LayerCount: 2
Fore
SplineSet
1064 1538 m 1,0,-1
 892 32 l 2,1,2
 888.419161677 8.7245508982 888.419161677 8.7245508982 866 7 c 2,3,-1
 668 -4 l 2,4,5
 651 -4 651 -4 648 15 c 2,6,-1
 438 1083 l 1,7,-1
 364 28 l 2,8,9
 363 4 363 4 338 3 c 2,10,-1
 132 -4 l 2,11,12
 110 -4 110 -4 110 15 c 1,13,-1
 283 1528 l 1,14,15
 286.56626506 1549.39759036 286.56626506 1549.39759036 309 1551 c 2,16,-1
 512 1562 l 2,17,18
 526 1562 526 1562 530.5 1556.5 c 128,-1,19
 535 1551 535 1551 538 1538 c 2,20,-1
 741 529 l 1,21,-1
 811 1528 l 2,22,23
 812 1550 812 1550 838 1551 c 2,24,-1
 1037 1562 l 1,25,26
 1064 1562 1064 1562 1064 1538 c 1,0,-1
EndSplineSet
EndChar

StartChar: I
Encoding: 73 73 5
Width: 557
Flags: HMW
HStem: -4 21G<125.5 132> 1538 20G<509 509>
LayerCount: 2
Fore
SplineSet
535 1534 m 1,0,-1
 364 28 l 2,1,2
 361 4 361 4 338 3 c 2,3,-1
 132 -4 l 2,4,5
 110 -4 110 -4 110 15 c 1,6,-1
 283 1528 l 1,7,8
 286.56626506 1549.39759036 286.56626506 1549.39759036 309 1551 c 2,9,-1
 509 1558 l 1,10,11
 535 1557 535 1557 535 1534 c 1,0,-1
EndSplineSet
EndChar

StartChar: D
Encoding: 68 68 6
Width: 1058
Flags: HMW
HStem: -4 21G<132 132> 1338 230<598.5 636.5>
VStem: 745 257<1102 1229.5>
LayerCount: 2
Fore
SplineSet
290 1545 m 128,-1,1
 295 1550 295 1550 391 1559 c 128,-1,2
 487 1568 487 1568 654.5 1568 c 128,-1,3
 822 1568 822 1568 912 1471.5 c 128,-1,4
 1002 1375 1002 1375 1002 1207 c 0,5,6
 1002 890 1002 890 931 477 c 0,7,8
 892.518240343 257.653969957 892.518240343 257.653969957 808 151 c 0,9,10
 730.092266746 52.687860417 730.092266746 52.687860417 563.5 22.5 c 0,11,12
 489 9 489 9 381 5 c 2,13,-1
 132 -4 l 1,14,15
 110 -3 110 -3 110 15 c 1,16,-1
 283 1528 l 2,17,0
 285 1540 285 1540 290 1545 c 128,-1,1
512 1335 m 1,18,-1
 390 246 l 1,19,20
 539 259 539 259 596.5 304 c 128,-1,21
 654 349 654 349 677 475 c 128,-1,22
 700 601 700 601 722.5 819 c 128,-1,23
 745 1037 745 1037 745 1176 c 0,24,25
 745 1258 745 1258 705 1298 c 128,-1,26
 665 1338 665 1338 596.5 1338 c 128,-1,27
 528 1338 528 1338 512 1335 c 1,18,-1
EndSplineSet
EndChar

StartChar: H
Encoding: 72 72 7
Width: 1062
Flags: HMW
HStem: -4 21G<125.5 132 630.5 638> 667 235 1539 20G<509 509 1014 1014>
LayerCount: 2
Fore
SplineSet
1040 1535 m 1,0,-1
 869 28 l 2,1,2
 865.407185629 4.64670658683 865.407185629 4.64670658683 844 3 c 2,3,-1
 638 -4 l 2,4,5
 616 -4 616 -4 616 15 c 1,6,-1
 690 672 l 1,7,-1
 436 663 l 1,8,-1
 364 28 l 2,9,10
 361 4 361 4 338 3 c 2,11,-1
 132 -4 l 2,12,13
 110 -4 110 -4 110 15 c 1,14,-1
 282 1528 l 1,15,16
 285.56626506 1549.39759036 285.56626506 1549.39759036 308 1551 c 2,17,-1
 509 1559 l 1,18,19
 535 1558 535 1558 535 1535 c 1,20,-1
 462 898 l 1,21,-1
 717 907 l 1,22,-1
 787 1528 l 2,23,24
 790 1550 790 1550 814 1551 c 2,25,-1
 1014 1559 l 1,26,27
 1040 1558 1040 1558 1040 1535 c 1,0,-1
EndSplineSet
EndChar

StartChar: F
Encoding: 70 70 8
Width: 890
Flags: HMW
HStem: -4 21G<125.5 132> 668 255 1307 255 1554 20G<858 858>
LayerCount: 2
Fore
SplineSet
756 674 m 2,0,-1
 436 663 l 1,1,-1
 364 32 l 2,2,3
 360.419161677 8.7245508982 360.419161677 8.7245508982 338 7 c 2,4,-1
 132 -4 l 1,5,6
 110 -4 110 -4 110 15 c 1,7,-1
 284 1528 l 1,8,9
 287.56626506 1549.39759036 287.56626506 1549.39759036 310 1551 c 2,10,-1
 858 1574 l 1,11,12
 883 1571 883 1571 883 1547 c 1,13,-1
 858 1340 l 2,14,15
 855 1314 855 1314 832 1313 c 2,16,-1
 510 1302 l 1,17,-1
 466 918 l 1,18,-1
 782 929 l 1,19,20
 808 928 808 928 808 903 c 1,21,-1
 782 699 l 2,22,23
 778.4 675.6 778.4 675.6 756 674 c 2,0,-1
EndSplineSet
EndChar

StartChar: L
Encoding: 76 76 9
Width: 885
Flags: HMW
HStem: -4 21G<124.5 131> 7 263 1538 20G<507 507>
LayerCount: 2
Fore
SplineSet
533 1534 m 1,0,-1
 390 263 l 1,1,-1
 773 278 l 1,2,3
 799 277 799 277 799 252 c 1,4,-1
 773 45 l 2,5,6
 770 19 770 19 747 18 c 2,7,-1
 131 -4 l 2,8,9
 110 -4 110 -4 110 15 c 1,10,-1
 281 1528 l 2,11,12
 283 1540 283 1540 287.5 1545 c 128,-1,13
 292 1550 292 1550 306 1551 c 2,14,-1
 507 1558 l 1,15,16
 533 1557 533 1557 533 1534 c 1,0,-1
EndSplineSet
EndChar

StartChar: T
Encoding: 84 84 10
Width: 792
Flags: HMW
HStem: -4 21G<243.5 250> 1294 264 1550 20G<852 852>
LayerCount: 2
Fore
SplineSet
204 1547 m 2,0,-1
 852 1570 l 1,1,2
 875 1569 875 1569 875 1545 c 1,3,-1
 849 1340 l 2,4,5
 847 1325 847 1325 842.5 1319 c 128,-1,6
 838 1313 838 1313 824 1312 c 2,7,-1
 630 1305 l 1,8,-1
 484 28 l 2,9,10
 481 4 481 4 458 3 c 2,11,-1
 250 -4 l 2,12,13
 230 -4 230 -4 230 15 c 1,14,-1
 377 1297 l 1,15,-1
 178 1291 l 1,16,17
 153 1292 153 1292 153 1314 c 1,18,-1
 178 1522 l 1,19,20
 179 1546 179 1546 204 1547 c 2,0,-1
EndSplineSet
EndChar

StartChar: U
Encoding: 85 85 11
Width: 1063
Flags: HMW
HStem: -15 236<479.5 566 479.5 639> 1539 20G<1016 1016>
VStem: 155 251<312 342.5>
LayerCount: 2
Fore
SplineSet
535 1534 m 1,0,-1
 420 509 l 2,1,2
 406 391 406 391 406 341 c 128,-1,3
 406 291 406 291 434 256 c 128,-1,4
 462 221 462 221 525 221 c 128,-1,5
 588 221 588 221 621 284 c 128,-1,6
 654 347 654 347 670 486 c 2,7,-1
 787 1528 l 2,8,9
 790 1550 790 1550 814 1551 c 2,10,-1
 1016 1559 l 1,11,12
 1041 1558 1041 1558 1041 1535 c 1,13,-1
 926 509 l 2,14,15
 891.317979892 193.708908113 891.317979892 193.708908113 763.5 78 c 0,16,17
 660.76744186 -15 660.76744186 -15 495.38372093 -15 c 128,-1,18
 330 -15 330 -15 242.5 71.5 c 128,-1,19
 155 158 155 158 155 327 c 0,20,21
 155 408 155 408 165 496 c 2,22,-1
 283 1528 l 2,23,24
 285 1541 285 1541 289.5 1545.5 c 128,-1,25
 294 1550 294 1550 308 1551 c 2,26,-1
 510 1558 l 1,27,28
 535 1557 535 1557 535 1534 c 1,0,-1
EndSplineSet
EndChar

StartChar: C
Encoding: 67 67 12
Width: 874
Flags: HMW
HStem: -11 242<488 501> 1334 234<624.5 696.5>
VStem: 138 255<318 436.5>
LayerCount: 2
Fore
SplineSet
746 28 m 128,-1,1
 741 23 741 23 648 6 c 128,-1,2
 555 -11 555 -11 460 -11 c 0,3,4
 304 -11 304 -11 221 90 c 128,-1,5
 138 191 138 191 138 365 c 0,6,7
 138 674 138 674 212 1083 c 0,8,9
 250.803448276 1302.8862069 250.803448276 1302.8862069 308.5 1392.5 c 0,10,11
 367.796174414 1484.59831345 367.796174414 1484.59831345 451.5 1521.5 c 0,12,13
 556.975609756 1568 556.975609756 1568 676.487804878 1568 c 128,-1,14
 796 1568 796 1568 836.5 1561.5 c 128,-1,15
 877 1555 877 1555 882 1553.5 c 0,16,17
 895 1549.6 895 1549.6 895 1529 c 1,18,-1
 872 1343 l 2,19,20
 868 1317 868 1317 852 1317 c 128,-1,21
 836 1317 836 1317 778 1325.5 c 128,-1,22
 720 1334 720 1334 684 1334 c 0,23,24
 588 1334 588 1334 538 1285.5 c 128,-1,25
 488 1237 488 1237 463.5 1099.5 c 128,-1,26
 439 962 439 962 416 730.5 c 128,-1,27
 393 499 393 499 393 376 c 0,28,29
 393 231 393 231 521 231 c 0,30,31
 558 231 558 231 650 243.5 c 128,-1,32
 742 256 742 256 755 256 c 0,33,34
 776 256 776 256 776 231 c 1,35,-1
 753 45 l 2,36,0
 751 33 751 33 746 28 c 128,-1,1
EndSplineSet
EndChar

StartChar: Q
Encoding: 81 81 13
Width: 1047
Flags: HMW
HStem: -321 207<494 674> 1338 236<589.5 661>
VStem: 138 255<320 421.5> 355 186<-194 -11> 739 255<1135.5 1238>
LayerCount: 2
Fore
SplineSet
355 -143 m 0,0,1
 355 -81 355 -81 380 -4 c 1,2,3
 261 23 261 23 199.5 117 c 128,-1,4
 138 211 138 211 138 348 c 128,-1,5
 138 485 138 485 157 693 c 128,-1,6
 176 901 176 901 205 1041 c 128,-1,7
 234 1181 234 1181 253 1243.5 c 128,-1,8
 272 1306 272 1306 306 1373.5 c 128,-1,9
 340 1441 340 1441 384.5 1481.5 c 0,10,11
 486.135802469 1574 486.135802469 1574 653.567901235 1574 c 128,-1,12
 821 1574 821 1574 907.5 1473 c 128,-1,13
 994 1372 994 1372 994 1224.5 c 128,-1,14
 994 1077 994 1077 975 867.5 c 128,-1,15
 956 658 956 658 928.5 521 c 128,-1,16
 901 384 901 384 883.5 323.5 c 128,-1,17
 866 263 866 263 836.5 200 c 128,-1,18
 807 137 807 137 768.5 96 c 0,19,20
 682.376375642 4.28393250183 682.376375642 4.28393250183 541 -11 c 1,21,22
 541 -114 541 -114 658 -114 c 0,23,24
 709 -114 709 -114 769 -104.5 c 128,-1,25
 829 -95 829 -95 850 -95 c 128,-1,26
 871 -95 871 -95 871 -119 c 1,27,-1
 854 -268 l 2,28,29
 852 -288 852 -288 832 -294 c 1,30,31
 715 -321 715 -321 577 -321 c 0,32,33
 355 -321 355 -321 355 -143 c 0,0,1
504 221 m 0,34,35
 631 221 631 221 667 455 c 0,36,37
 691 610 691 610 715 841 c 128,-1,38
 739 1072 739 1072 739 1166 c 128,-1,39
 739 1260 739 1260 708.5 1299 c 128,-1,40
 678 1338 678 1338 622.5 1338 c 0,41,42
 506.36 1338 506.36 1338 465 1103 c 0,43,44
 441 965 441 965 417 728.5 c 128,-1,45
 393 492 393 492 393 395 c 128,-1,46
 393 298 393 298 424.5 259.5 c 128,-1,47
 456 221 456 221 504 221 c 0,34,35
EndSplineSet
EndChar

StartChar: P
Encoding: 80 80 14
Width: 1023
Flags: HMW
HStem: -4 21G<132 132> 599 231<430 513.5> 1338 230<601.5 631.5>
VStem: 748 256<1194 1235.5>
LayerCount: 2
Fore
SplineSet
968 933 m 1,0,1
 882 600 882 600 430 599 c 1,2,-1
 367 32 l 2,3,4
 364 8 364 8 342 7 c 2,5,-1
 132 -4 l 1,6,7
 110 -2 110 -2 110 15 c 1,8,-1
 283 1528 l 1,9,10
 286.56626506 1549.39759036 286.56626506 1549.39759036 309 1551 c 0,11,12
 496 1568 496 1568 666.5 1568 c 0,13,14
 1004 1568 1004 1568 1004 1244 c 0,15,16
 1004 1067 1004 1067 968 933 c 1,0,1
512 1335 m 1,17,-1
 455 830 l 1,18,19
 628 830 628 830 688 902 c 128,-1,20
 748 974 748 974 748 1182 c 0,21,22
 748 1262 748 1262 705 1300 c 128,-1,23
 662 1338 662 1338 595 1338 c 128,-1,24
 528 1338 528 1338 512 1335 c 1,17,-1
EndSplineSet
EndChar

StartChar: R
Encoding: 82 82 15
Width: 1032
Flags: HMW
HStem: -4 21G<132 132 709 709> 1340 228<597.5 654.5>
VStem: 750 256<1121 1246.5>
LayerCount: 2
Fore
SplineSet
961 24 m 0,0,1
 961 4 961 4 934 4 c 2,2,-1
 709 -4 l 1,3,4
 694 -3 694 -3 687 15 c 2,5,-1
 436 651 l 1,6,-1
 366 28 l 2,7,8
 363 4 363 4 341 3 c 2,9,-1
 132 -4 l 1,10,11
 110 -2 110 -2 110 15 c 1,12,-1
 283 1520 l 2,13,14
 285 1538 285 1538 292 1544.5 c 128,-1,15
 299 1551 299 1551 398 1559.5 c 128,-1,16
 497 1568 497 1568 662 1568 c 128,-1,17
 827 1568 827 1568 916.5 1480.5 c 128,-1,18
 1006 1393 1006 1393 1006 1255 c 128,-1,19
 1006 1117 1006 1117 973 1011.5 c 128,-1,20
 940 906 940 906 864 822 c 128,-1,21
 788 738 788 738 674 697 c 1,22,-1
 958 36 l 2,23,24
 961 30 961 30 961 24 c 0,0,1
513 1335 m 1,25,-1
 457 838 l 1,26,27
 642.474926254 849.240904621 642.474926254 849.240904621 712 1006.5 c 0,28,29
 750 1092.45238095 750 1092.45238095 750 1180.72619048 c 128,-1,30
 750 1269 750 1269 713.5 1304.5 c 128,-1,31
 677 1340 677 1340 608 1340 c 128,-1,32
 539 1340 539 1340 513 1335 c 1,25,-1
EndSplineSet
EndChar

StartChar: B
Encoding: 66 66 16
Width: 1011
Flags: HMW
HStem: -4 21G<132 132> 3 243<347 489.5> 734 158<461 557> 1355 213<589.5 642.5>
VStem: 680 241<482.5 621.5> 748 173 748 237<1158 1245.5>
LayerCount: 2
Fore
SplineSet
985 1244 m 0,0,1
 985 946 985 946 755 833 c 1,2,3
 833 800 833 800 877 731.5 c 128,-1,4
 921 663 921 663 921 556 c 128,-1,5
 921 449 921 449 889.5 353 c 128,-1,6
 858 257 858 257 792 179 c 0,7,8
 651.553878188 13.0182196773 651.553878188 13.0182196773 347 3 c 2,9,-1
 132 -4 l 1,10,11
 110 -2 110 -2 110 15 c 1,12,-1
 282 1520 l 2,13,14
 284 1538 284 1538 291 1544.5 c 128,-1,15
 298 1551 298 1551 416 1559.5 c 128,-1,16
 534 1568 534 1568 641 1568 c 0,17,18
 821 1568 821 1568 903 1481.5 c 128,-1,19
 985 1395 985 1395 985 1244 c 0,0,1
498 734 m 0,20,21
 457 734 457 734 444 733 c 1,22,-1
 390 246 l 1,23,24
 533 246 533 246 606.5 337 c 128,-1,25
 680 428 680 428 680 576 c 0,26,27
 680 646 680 646 632 690 c 128,-1,28
 584 734 584 734 498 734 c 0,20,21
461 892 m 1,29,30
 748 893.993055556 748 893.993055556 748 1196 c 0,31,32
 748 1355 748 1355 584 1355 c 0,33,34
 538 1355 538 1355 512 1352 c 1,35,-1
 461 892 l 1,29,30
EndSplineSet
EndChar

StartChar: G
Encoding: 71 71 17
Width: 959
Flags: HMW
HStem: -11 220<477.5 507.5> 1334 234<624 695.5>
VStem: 138 255<318 366.5>
LayerCount: 2
Fore
SplineSet
851 1317 m 1,0,-1
 683 1334 l 1,1,2
 592.235294118 1334 592.235294118 1334 542.5 1289.5 c 0,3,4
 488.710120069 1241.37221269 488.710120069 1241.37221269 463.855060034 1101.68610635 c 128,-1,5
 439 962 439 962 416 730.5 c 128,-1,6
 393 499 393 499 393 396.5 c 128,-1,7
 393 294 393 294 426 251.5 c 128,-1,8
 459 209 459 209 504.5 209 c 128,-1,9
 550 209 550 209 578 210 c 1,10,-1
 644 777 l 1,11,12
 647.734939759 799.409638554 647.734939759 799.409638554 670 801 c 2,13,-1
 858 808 l 1,14,15
 885 807 885 807 885 784 c 1,16,-1
 801 34 l 1,17,18
 797 12 797 12 774 9 c 0,19,20
 641 -11 641 -11 450 -11 c 0,21,22
 221.213114754 -11 221.213114754 -11 156 210 c 0,23,24
 138 271 138 271 138 331 c 128,-1,25
 138 391 138 391 141.5 473 c 0,26,27
 154.052806973 767.094334786 154.052806973 767.094334786 212 1083 c 1,28,29
 250.803448276 1302.8862069 250.803448276 1302.8862069 308.5 1392.5 c 0,30,31
 367.796174414 1484.59831345 367.796174414 1484.59831345 451.5 1521.5 c 0,32,33
 556.975609756 1568 556.975609756 1568 676.987804878 1568 c 128,-1,34
 797 1568 797 1568 837 1561.5 c 128,-1,35
 877 1555 877 1555 882 1553.5 c 0,36,37
 894 1549.9 894 1549.9 894 1529 c 1,38,-1
 872 1343 l 2,39,40
 868 1317 868 1317 851 1317 c 1,0,-1
EndSplineSet
EndChar

StartChar: J
Encoding: 74 74 18
Width: 701
Flags: HMW
HStem: -11 243<40.5 147.5 40.5 179.5> 1538 20G<662 662>
LayerCount: 2
Fore
SplineSet
688 1534 m 1,0,-1
 565 438 l 2,1,2
 537.235015959 182.165504197 537.235015959 182.165504197 395 82 c 0,3,4
 262.94 -11 262.94 -11 25 -11 c 0,5,6
 0 -11 0 -11 0 13 c 1,7,-1
 24 208 l 1,8,9
 29 232 29 232 49 232 c 0,10,11
 231.355263158 232 231.355263158 232 280.5 315 c 0,12,13
 303 353 303 353 310 416 c 2,14,-1
 436 1528 l 2,15,16
 438 1540 438 1540 442.5 1545 c 128,-1,17
 447 1550 447 1550 461 1551 c 2,18,-1
 662 1558 l 1,19,20
 688 1556 688 1556 688 1534 c 1,0,-1
EndSplineSet
EndChar

StartChar: K
Encoding: 75 75 20
Width: 978
Flags: HMW
HStem: -4 21G<124.5 131 684 684> 1538 20G<507 507 987 987>
LayerCount: 2
Fore
SplineSet
925 21 m 0,0,1
 925 4 925 4 899 4 c 2,2,-1
 684 -4 l 1,3,4
 667 -3 667 -3 662 15 c 2,5,-1
 447 764 l 1,6,-1
 364 28 l 2,7,8
 361 4 361 4 337 3 c 2,9,-1
 131 -4 l 2,10,11
 110 -4 110 -4 110 15 c 1,12,-1
 281 1528 l 2,13,14
 283 1540 283 1540 287.5 1545 c 128,-1,15
 292 1550 292 1550 306 1551 c 2,16,-1
 507 1558 l 1,17,18
 533 1557 533 1557 533 1534 c 1,19,-1
 457 861 l 1,20,-1
 746 1527 l 2,21,22
 756 1550 756 1550 778 1551 c 2,23,-1
 987 1558 l 1,24,25
 1013 1556 1013 1556 1013 1537 c 0,26,27
 1013 1525 1013 1525 1006 1511 c 2,28,-1
 683 832 l 1,29,-1
 924 32 l 2,30,31
 925 29 925 29 925 21 c 0,0,1
EndSplineSet
EndChar

StartChar: M
Encoding: 77 77 21
Width: 1363
Flags: HMW
HStem: -4 21G<132 132 530 530 930.5 937> 1540 20G<560 560 1315 1315>
VStem: 386 80 466 165
LayerCount: 2
Fore
SplineSet
508 15 m 2,0,-1
 424 1212 l 1,1,-1
 349 29 l 2,2,3
 347 4 347 4 323 3 c 2,4,-1
 132 -4 l 1,5,6
 110 -2 110 -2 110 15 c 1,7,-1
 282 1528 l 2,8,9
 284 1540 284 1540 288.5 1545 c 128,-1,10
 293 1550 293 1550 308 1551 c 2,11,-1
 560 1560 l 1,12,13
 584 1559 584 1559 586 1536 c 2,14,-1
 677 332 l 1,15,-1
 1024 1528 l 1,16,17
 1029 1550 1029 1550 1052 1551 c 2,18,-1
 1315 1560 l 1,19,20
 1340 1559 1340 1559 1340 1536 c 1,21,-1
 1170 28 l 2,22,23
 1167 4 1167 4 1143 3 c 2,24,-1
 937 -4 l 2,25,26
 916 -4 916 -4 916 15 c 1,27,-1
 1111 1234 l 1,28,-1
 753 27 l 1,29,30
 745 4 745 4 724 3 c 2,31,-1
 530 -4 l 1,32,33
 510 -2 510 -2 508 15 c 2,0,-1
EndSplineSet
EndChar

StartChar: Y
Encoding: 89 89 22
Width: 897
Flags: HMW
HStem: -4 21G<296 303> 1539 20G
LayerCount: 2
Fore
SplineSet
408 1539 m 2,0,-1
 522 968 l 1,1,-1
 727 1528 l 2,2,3
 735 1550 735 1550 752 1551 c 2,4,-1
 958 1558 l 1,5,6
 970 1557 970 1557 977.5 1550 c 128,-1,7
 985 1543 985 1543 985 1535 c 1,8,-1
 612 701 l 1,9,-1
 535 28 l 2,10,11
 532 4 532 4 509 3 c 2,12,-1
 303 -4 l 2,13,14
 281 -4 281 -4 281 15 c 1,15,-1
 356 679 l 1,16,-1
 152 1535 l 1,17,18
 152 1549 152 1549 179 1551 c 2,19,-1
 382 1559 l 1,20,21
 404 1558 404 1558 408 1539 c 2,0,-1
EndSplineSet
EndChar

StartChar: V
Encoding: 86 86 23
Width: 918
Flags: HMW
HStem: -4 21G<305 305> 1538 20G<402 409> 1539 20G
VStem: 225 222
LayerCount: 2
Fore
SplineSet
283 21 m 2,0,-1
 167 1527 l 1,1,2
 167 1550 167 1550 194 1551 c 2,3,-1
 402 1558 l 2,4,5
 424 1558 424 1558 424 1539 c 2,6,-1
 471 411 l 1,7,-1
 736 1527 l 2,8,9
 739 1540 739 1540 743.5 1545 c 128,-1,10
 748 1550 748 1550 760 1551 c 2,11,-1
 967 1559 l 2,12,13
 989 1559 989 1559 989 1540 c 1,14,-1
 550 28 l 2,15,16
 543 4 543 4 526 4 c 2,17,-1
 305 -4 l 1,18,19
 285 -3 285 -3 283 21 c 2,0,-1
EndSplineSet
EndChar

StartChar: W
Encoding: 87 87 24
Width: 1376
Flags: HMW
HStem: -4 21G<294 294 782 782> 1538 20G<422 429 922 928.5 1417 1417>
VStem: 229 222 755 195
LayerCount: 2
Fore
SplineSet
922 1558 m 2,0,1
 944 1558 944 1558 944 1539 c 2,2,-1
 956 383 l 1,3,-1
 1204 1527 l 1,4,5
 1210.90647482 1549.44604317 1210.90647482 1549.44604317 1228 1551 c 2,6,-1
 1417 1558 l 1,7,8
 1437 1556 1437 1556 1437 1539 c 1,9,-1
 1035 29 l 2,10,11
 1028.13274336 6.6814159292 1028.13274336 6.6814159292 1013 5 c 1,12,-1
 782 -4 l 1,13,14
 760 -3 760 -3 760 21 c 2,15,-1
 751 958 l 1,16,-1
 558 28 l 2,17,18
 552 4 552 4 534 4 c 2,19,-1
 294 -4 l 1,20,21
 273 -3 273 -3 271 21 c 2,22,-1
 187 1527 l 1,23,24
 187 1550 187 1550 214 1551 c 2,25,-1
 422 1558 l 2,26,27
 444 1558 444 1558 444 1539 c 2,28,-1
 458 364 l 1,29,-1
 712 1527 l 2,30,31
 716 1548 716 1548 743 1551 c 1,32,-1
 922 1558 l 2,0,1
EndSplineSet
EndChar

StartChar: X
Encoding: 88 88 25
Width: 943
Flags: HMW
HStem: -4 21G<29.5 36 644 644> 1539 20G<989 989>
LayerCount: 2
Fore
SplineSet
1014 1535 m 1,0,-1
 665 766 l 1,1,-1
 881 32 l 2,2,3
 882 29 882 29 882 23 c 0,4,5
 882 6 882 6 857 4 c 1,6,-1
 644 -4 l 1,7,8
 629 -3 629 -3 622 15 c 1,9,-1
 480 555 l 1,10,-1
 270 32 l 2,11,12
 258 4 258 4 242 3 c 2,13,-1
 36 -4 l 2,14,15
 15 -4 15 -4 15 15 c 1,16,-1
 378 846 l 1,17,-1
 174 1528 l 1,18,19
 174 1550 174 1550 199 1551 c 2,20,-1
 406 1558 l 1,21,22
 424.473684211 1556.57894737 424.473684211 1556.57894737 432 1534 c 1,23,-1
 565 1047 l 1,24,-1
 762 1528 l 2,25,26
 771 1550 771 1550 789 1551 c 2,27,-1
 989 1559 l 1,28,29
 1014 1558 1014 1558 1014 1535 c 1,0,-1
EndSplineSet
EndChar

StartChar: Z
Encoding: 90 90 26
Width: 869
Flags: HMW
HStem: -4 21G<55 62> 7 263 1300 262 1554 20G<875 875>
LayerCount: 2
Fore
SplineSet
267 1551 m 1,0,-1
 875 1574 l 1,1,2
 899 1572 899 1572 899 1547 c 1,3,-1
 402 265 l 1,4,-1
 727 276 l 1,5,6
 751 274 751 274 751 251 c 1,7,-1
 727 43 l 2,8,9
 723.419161677 19.7245508982 723.419161677 19.7245508982 701 18 c 2,10,-1
 62 -4 l 2,11,12
 40 -4 40 -4 40 15 c 1,13,-1
 541 1305 l 1,14,-1
 241 1295 l 1,15,16
 216 1296 216 1296 216 1317 c 1,17,-1
 241 1528 l 2,18,19
 244 1549 244 1549 267 1551 c 1,0,-1
EndSplineSet
EndChar

StartChar: one
Encoding: 49 49 27
Width: 964
Flags: HMW
HStem: -4 21G<149 149> 6 235 1318 270 1574 20G<713 720>
LayerCount: 2
Fore
SplineSet
399 1583 m 1,0,-1
 713 1594 l 2,1,2
 732 1594 732 1594 732 1568 c 1,3,-1
 583 253 l 1,4,-1
 750 260 l 1,5,6
 774 259 774 259 774 235 c 1,7,-1
 750 43 l 2,8,9
 747 17 747 17 725 16 c 2,10,-1
 149 -4 l 1,11,12
 124 -3 124 -3 124 20 c 1,13,-1
 147 213 l 2,14,15
 149.777777778 238 149.777777778 238 173 238 c 2,16,-1
 330 244 l 1,17,-1
 452 1321 l 1,18,-1
 297 1316 l 1,19,20
 272 1317 272 1317 272 1339 c 0,21,22
 272 1352 272 1352 311 1443 c 128,-1,23
 350 1534 350 1534 363 1557.5 c 128,-1,24
 376 1581 376 1581 399 1583 c 1,0,-1
EndSplineSet
EndChar

StartChar: four
Encoding: 52 52 28
Width: 964
Flags: HMW
HStem: -4 21G<430 437> 404 247 1576 20G<818 818>
LayerCount: 2
Fore
SplineSet
844 1571 m 1,0,-1
 739 649 l 1,1,-1
 895 653 l 1,2,3
 919 652 919 652 919 626 c 1,4,-1
 899 450 l 2,5,6
 897 436 897 436 892 431 c 128,-1,7
 887 426 887 426 874 425 c 2,8,-1
 713 419 l 1,9,-1
 670 33 l 2,10,11
 666.525773196 8.68041237113 666.525773196 8.68041237113 643 7 c 2,12,-1
 437 -4 l 1,13,14
 416 -4 416 -4 416 15 c 1,15,-1
 476 411 l 1,16,-1
 66 397 l 2,17,18
 38 397 38 397 38 415 c 0,19,20
 38 419 38 419 51 453 c 1,21,-1
 522 1558 l 1,22,23
 531 1582 531 1582 569 1583 c 2,24,-1
 818 1596 l 1,25,26
 844 1595 844 1595 844 1571 c 1,0,-1
351 638 m 1,27,-1
 508 642 l 1,28,-1
 585 1248 l 1,29,-1
 351 638 l 1,27,-1
EndSplineSet
EndChar

StartChar: seven
Encoding: 55 55 29
Width: 964
Flags: HMW
HStem: -4 21G<264 264> 1325 269 1585 20G<911 911>
LayerCount: 2
Fore
SplineSet
291 1583 m 2,0,-1
 911 1605 l 1,1,2
 932 1604 932 1604 934 1578 c 1,3,-1
 907 1366 l 1,4,-1
 505 27 l 2,5,6
 499 5 499 5 480 4 c 2,7,-1
 264 -4 l 1,8,9
 242 -2 242 -2 242 15 c 1,10,-1
 642 1335 l 1,11,-1
 228 1316 l 1,12,13
 203 1317 203 1317 203 1341 c 0,14,15
 203 1353 203 1353 225 1442.5 c 128,-1,16
 247 1532 247 1532 255 1559 c 1,17,18
 264 1582 264 1582 291 1583 c 2,0,-1
EndSplineSet
EndChar

StartChar: five
Encoding: 53 53 30
Width: 964
Flags: HMW
HStem: -11 238<379 477.5 379 547.5> 740 231<427.5 715.5> 1333 259 1582 20G<863 863>
VStem: 611 253<438.5 598>
LayerCount: 2
Fore
SplineSet
834 1336 m 2,0,-1
 494 1331 l 1,1,-1
 454 952 l 1,2,3
 560 971 560 971 624 971 c 128,-1,4
 688 971 688 971 738 936.5 c 128,-1,5
 788 902 788 902 814 843 c 0,6,7
 864 729.538461538 864 729.538461538 864 589.769230769 c 128,-1,8
 864 450 864 450 836.5 346 c 128,-1,9
 809 242 809 242 751.5 160.5 c 0,10,11
 630.503067485 -11 630.503067485 -11 367 -11 c 0,12,13
 160.666666667 -11 160.666666667 -11 146 11 c 0,14,15
 142 17 142 17 142 30 c 1,16,-1
 165 219 l 2,17,18
 168 244 168 244 191 244 c 0,19,20
 208 244 208 244 273 235.5 c 128,-1,21
 338 227 338 227 392 227 c 0,22,23
 515 227 515 227 563 303 c 128,-1,24
 611 379 611 379 611 508 c 128,-1,25
 611 637 611 637 577 688.5 c 128,-1,26
 543 740 543 740 469 740 c 128,-1,27
 395 740 395 740 321.5 725.5 c 128,-1,28
 248 711 248 711 224 711 c 128,-1,29
 200 711 200 711 200 738 c 1,30,-1
 293 1559 l 1,31,32
 296.722891566 1581.3373494 296.722891566 1581.3373494 320 1583 c 2,33,-1
 863 1602 l 1,34,35
 889 1601 889 1601 889 1575 c 1,36,-1
 861 1362 l 2,37,38
 857 1337 857 1337 834 1336 c 2,0,-1
EndSplineSet
EndChar

StartChar: two
Encoding: 50 50 31
Width: 964
Flags: HMW
HStem: -4 21G<152 152> 7 268 1354 246<511 514>
VStem: 600 256<1159.5 1264.5>
LayerCount: 2
Fore
SplineSet
600 1205 m 0,0,1
 600 1354 600 1354 481 1354 c 0,2,3
 445 1354 445 1354 359 1340.5 c 128,-1,4
 273 1327 273 1327 261 1327 c 0,5,6
 239 1327 239 1327 239 1354 c 1,7,-1
 263 1542 l 2,8,9
 264 1555 264 1555 269 1560 c 128,-1,10
 274 1565 274 1565 307 1573.5 c 128,-1,11
 340 1582 340 1582 416.5 1591 c 128,-1,12
 493 1600 493 1600 544 1600 c 0,13,14
 686 1600 686 1600 771 1506 c 128,-1,15
 856 1412 856 1412 856 1267 c 128,-1,16
 856 1122 856 1122 796 988.5 c 128,-1,17
 736 855 736 855 635.5 709.5 c 128,-1,18
 535 564 535 564 479.5 465 c 128,-1,19
 424 366 424 366 401 268 c 1,20,-1
 760 283 l 1,21,22
 784 282 784 282 784 256 c 1,23,-1
 760 45 l 2,24,25
 758 21 758 21 733 18 c 1,26,-1
 152 -4 l 1,27,28
 127 -2.33333333333 127 -2.33333333333 127 23 c 2,29,-1
 127 75 l 2,30,31
 127 260.258064516 127 260.258064516 210 445 c 0,32,33
 284.903391572 611.72045221 284.903391572 611.72045221 403.951695786 794.860226105 c 128,-1,34
 523 978 523 978 561.5 1059.5 c 128,-1,35
 600 1141 600 1141 600 1205 c 0,0,1
EndSplineSet
EndChar

StartChar: three
Encoding: 51 51 32
Width: 964
Flags: HMW
HStem: -11 238<356.5 426 356.5 536.5> 694 143<448 697.5> 1354 246<526.5 528.5>
VStem: 615 233
LayerCount: 2
Fore
SplineSet
496 1354 m 1,0,-1
 275 1327 l 1,1,2
 254 1327 254 1327 254 1354 c 1,3,-1
 277 1542 l 2,4,5
 280.349693252 1563.77300613 280.349693252 1563.77300613 303 1569 c 0,6,7
 427 1600 427 1600 569 1600 c 128,-1,8
 711 1600 711 1600 791 1506 c 128,-1,9
 871 1412 871 1412 871 1275 c 0,10,11
 871 1022.11111111 871 1022.11111111 732 914 c 0,12,13
 651.652849741 851.507772021 651.652849741 851.507772021 519 832 c 1,14,15
 559 837 559 837 606 837 c 0,16,17
 737 837 737 837 792.5 765.5 c 128,-1,18
 848 694 848 694 848 558 c 0,19,20
 848 279.90990991 848 279.90990991 686.5 115.5 c 0,21,22
 562.238938053 -11 562.238938053 -11 351 -11 c 0,23,24
 144.666666667 -11 144.666666667 -11 130 11 c 0,25,26
 126 17 126 17 126 30 c 1,27,-1
 149 219 l 2,28,29
 151.924528302 239.471698113 151.924528302 239.471698113 157.962264151 241.735849057 c 128,-1,30
 164 244 164 244 171 244 c 2,31,32
 370 227 l 1,33,34
 464 227 464 227 529 295.5 c 128,-1,35
 594 364 594 364 594 489 c 128,-1,36
 594 614 594 614 559.5 654 c 128,-1,37
 525 694 525 694 463 694 c 1,38,-1
 296 684 l 1,39,40
 274 684 274 684 274 710 c 1,41,-1
 294 872 l 2,42,43
 297 895 297 895 325 899.5 c 128,-1,44
 353 904 353 904 368.5 906.5 c 128,-1,45
 384 909 384 909 415.5 916.5 c 128,-1,46
 447 924 447 924 462 931 c 128,-1,47
 477 938 477 938 502.5 951 c 128,-1,48
 528 964 528 964 541 978.5 c 128,-1,49
 554 993 554 993 571 1015.5 c 128,-1,50
 588 1038 588 1038 595.5 1064.5 c 0,51,52
 615 1133.4 615 1133.4 615 1205 c 0,53,54
 615 1354 615 1354 496 1354 c 1,0,-1
EndSplineSet
EndChar

StartChar: six
Encoding: 54 54 33
Width: 964
Flags: HMW
HStem: -15 212<447.5 569 447.5 638> 801 207<474.5 702.5> 1362 238<585.5 654>
VStem: 130 250<395.5 498 395.5 557.5> 649 237<491.5 646.5>
LayerCount: 2
Fore
SplineSet
823 1344 m 1,0,-1
 642 1362 l 1,1,2
 554 1362 554 1362 511.5 1318.5 c 128,-1,3
 469 1275 469 1275 448 1165.5 c 128,-1,4
 427 1056 427 1056 415 950 c 1,5,6
 511 1008 511 1008 591 1008 c 0,7,8
 750 1008 750 1008 818 899 c 128,-1,9
 886 790 886 790 886 589 c 0,10,11
 886 -15 886 -15 466 -15 c 0,12,13
 285 -15 285 -15 207.5 102 c 128,-1,14
 130 219 130 219 130 449 c 0,15,16
 130 606 130 606 155.5 823 c 128,-1,17
 181 1040 181 1040 202.5 1134 c 128,-1,18
 224 1228 224 1228 235 1265 c 128,-1,19
 246 1302 246 1302 265 1348.5 c 128,-1,20
 284 1395 284 1395 306.5 1428.5 c 128,-1,21
 329 1462 329 1462 364 1496.5 c 128,-1,22
 399 1531 399 1531 441 1552 c 0,23,24
 537 1600 537 1600 646 1600 c 128,-1,25
 755 1600 755 1600 804.5 1591.5 c 128,-1,26
 854 1583 854 1583 860.5 1577.5 c 128,-1,27
 867 1572 867 1572 867 1557 c 1,28,-1
 844 1366 l 2,29,30
 841 1344 841 1344 823 1344 c 1,0,-1
493 801 m 0,31,32
 445 801 445 801 397 784 c 1,33,34
 380 590 380 590 380 494 c 128,-1,35
 380 398 380 398 383.5 363 c 128,-1,36
 387 328 387 328 398.5 285.5 c 0,37,38
 422.447058824 197 422.447058824 197 507 197 c 0,39,40
 595.6 197 595.6 197 625 323 c 0,41,42
 649 425.857142857 649 425.857142857 649 583 c 0,43,44
 649 801 649 801 493 801 c 0,31,32
EndSplineSet
EndChar

StartChar: nine
Encoding: 57 57 34
Width: 964
Flags: HMW
HStem: -9 238<402 470.5 402 554> 583 207<353.5 581.5> 1394 212<487 608.5>
VStem: 170 237<944.5 1099.5 944.5 1151.5> 676 250<1093 1195.5>
LayerCount: 2
Fore
SplineSet
233 247 m 1,0,-1
 414 229 l 1,1,2
 502 229 502 229 544.5 272.5 c 128,-1,3
 587 316 587 316 608 425.5 c 128,-1,4
 629 535 629 535 641 641 c 1,5,6
 545 583 545 583 465 583 c 0,7,8
 306 583 306 583 238 692 c 128,-1,9
 170 801 170 801 170 1002 c 0,10,11
 170 1606 170 1606 590 1606 c 0,12,13
 771 1606 771 1606 848.5 1489 c 128,-1,14
 926 1372 926 1372 926 1142 c 0,15,16
 926 985 926 985 900.5 768 c 128,-1,17
 875 551 875 551 853.5 457 c 128,-1,18
 832 363 832 363 821 326 c 128,-1,19
 810 289 810 289 791 242.5 c 128,-1,20
 772 196 772 196 749.5 162.5 c 128,-1,21
 727 129 727 129 692 94.5 c 128,-1,22
 657 60 657 60 615 39 c 0,23,24
 519 -9 519 -9 410 -9 c 128,-1,25
 301 -9 301 -9 251.5 -0.5 c 128,-1,26
 202 8 202 8 195.5 13.5 c 128,-1,27
 189 19 189 19 189 34 c 1,28,-1
 212 225 l 2,29,30
 215 247 215 247 233 247 c 1,0,-1
563 790 m 0,31,32
 611 790 611 790 659 807 c 1,33,34
 676 1001 676 1001 676 1097 c 128,-1,35
 676 1193 676 1193 672.5 1228 c 128,-1,36
 669 1263 669 1263 657.5 1305.5 c 0,37,38
 633.552941176 1394 633.552941176 1394 549 1394 c 0,39,40
 460.4 1394 460.4 1394 431 1268 c 0,41,42
 407 1165.14285714 407 1165.14285714 407 1008 c 0,43,44
 407 790 407 790 563 790 c 0,31,32
EndSplineSet
EndChar

StartChar: eight
Encoding: 56 56 35
Width: 964
Flags: HMW
HStem: -15 226<425 531.5 425 599> 1394 212<531.5 605.5>
VStem: 97 232<345.5 462.5 345.5 473> 215 232<1131 1236 1111.5 1343.5> 634 251<374.5 523> 678 243<1214.5 1284>
LayerCount: 2
Fore
SplineSet
921 1276 m 0,0,1
 921 1174 921 1174 861.5 1048.5 c 128,-1,2
 802 923 802 923 694 836 c 1,3,4
 885 673 885 673 885 480 c 0,5,6
 885 247 885 247 777 116 c 128,-1,7
 669 -15 669 -15 442 -15 c 0,8,9
 180.267175573 -15 180.267175573 -15 115 222.5 c 0,10,11
 97 288 97 288 97 366 c 0,12,13
 97 700 97 700 363 872 c 1,14,15
 290 946 290 946 252.5 1024 c 128,-1,16
 215 1102 215 1102 215 1193 c 128,-1,17
 215 1284 215 1284 236 1352 c 128,-1,18
 257 1420 257 1420 292.5 1466.5 c 128,-1,19
 328 1513 328 1513 376.5 1545 c 0,20,21
 468.953125 1606 468.953125 1606 588 1606 c 0,22,23
 756 1606 756 1606 838.5 1516 c 128,-1,24
 921 1426 921 1426 921 1276 c 0,0,1
329 402 m 0,25,26
 329 211 329 211 477 211 c 0,27,28
 634 211 634 211 634 448 c 0,29,30
 634 550 634 550 595.5 622.5 c 128,-1,31
 557 695 557 695 491 756 c 1,32,33
 412 692 412 692 370.5 595.5 c 128,-1,34
 329 499 329 499 329 402 c 0,25,26
447 1161 m 0,35,36
 447 1089 447 1089 472.5 1038.5 c 128,-1,37
 498 988 498 988 553 942 c 1,38,39
 607 992 607 992 642.5 1069.5 c 128,-1,40
 678 1147 678 1147 678 1227.5 c 128,-1,41
 678 1308 678 1308 649.5 1351 c 128,-1,42
 621 1394 621 1394 575 1394 c 0,43,44
 447 1394 447 1394 447 1161 c 0,35,36
EndSplineSet
EndChar

StartChar: l
Encoding: 108 108 36
Width: 545
Flags: HMW
HStem: -4 21G<128 128> 1672 20G<513 513>
LayerCount: 2
Fore
SplineSet
539 1665 m 1,0,-1
 355 31 l 2,1,2
 353 17 353 17 348 11 c 128,-1,3
 343 5 343 5 329 4 c 2,4,-1
 128 -4 l 1,5,6
 106 -2 106 -2 106 15 c 1,7,-1
 291 1658 l 2,8,9
 293 1672 293 1672 298 1678 c 128,-1,10
 303 1684 303 1684 317 1685 c 2,11,-1
 513 1692 l 1,12,13
 539 1689 539 1689 539 1665 c 1,0,-1
EndSplineSet
EndChar

StartChar: i
Encoding: 105 105 37
Width: 546
Flags: HMW
HStem: -4 21G<128 128> 1318 298<359.5 413.5>
VStem: 238 300<1178 1519 1437 1497.5>
LayerCount: 2
Fore
SplineSet
275 1357 m 128,-1,1
 238 1396 238 1396 238 1457.5 c 128,-1,2
 238 1519 238 1519 287.5 1567.5 c 128,-1,3
 337 1616 337 1616 399 1616 c 128,-1,4
 461 1616 461 1616 499.5 1577 c 128,-1,5
 538 1538 538 1538 538 1476.5 c 128,-1,6
 538 1415 538 1415 487 1366.5 c 128,-1,7
 436 1318 436 1318 374 1318 c 128,-1,0
 312 1318 312 1318 275 1357 c 128,-1,1
485 1183 m 1,8,-1
 355 30 l 2,9,10
 353 16 353 16 348 10 c 128,-1,11
 343 4 343 4 329 3 c 2,12,-1
 128 -4 l 1,13,14
 106 -2 106 -2 106 15 c 1,15,-1
 238 1178 l 1,16,17
 241.727272727 1200.36363636 241.727272727 1200.36363636 263 1202 c 2,18,-1
 458 1209 l 1,19,20
 485 1207 485 1207 485 1183 c 1,8,-1
EndSplineSet
EndChar

StartChar: n
Encoding: 110 110 38
Width: 1067
Flags: HMW
HStem: -4 21G<128 128 649 649> 995 223<561.5 834>
VStem: 721 254<846.5 1000>
LayerCount: 2
Fore
SplineSet
486 1183 m 1,0,-1
 475 1091 l 1,1,2
 619 1218 619 1218 751 1218 c 0,3,4
 919.396039604 1218 919.396039604 1218 963 1034.5 c 0,5,6
 975 984 975 984 975 939.5 c 128,-1,7
 975 895 975 895 972 868 c 2,8,-1
 876 30 l 2,9,10
 872.377777778 4.64444444444 872.377777778 4.64444444444 851 3 c 2,11,-1
 649 -4 l 1,12,13
 627 -2 627 -2 627 15 c 1,14,-1
 718 807 l 2,15,16
 721 833 721 833 721 854 c 0,17,18
 721 936 721 936 682.5 965.5 c 128,-1,19
 644 995 644 995 585 995 c 128,-1,20
 526 995 526 995 462 970 c 1,21,-1
 355 30 l 2,22,23
 351.377777778 4.64444444444 351.377777778 4.64444444444 330 3 c 2,24,-1
 128 -4 l 1,25,26
 106 -2 106 -2 106 15 c 1,27,-1
 238 1178 l 1,28,29
 241.727272727 1200.36363636 241.727272727 1200.36363636 263 1202 c 2,30,-1
 459 1209 l 1,31,32
 486 1208 486 1208 486 1183 c 1,0,-1
EndSplineSet
EndChar

StartChar: h
Encoding: 104 104 39
Width: 1067
Flags: HMW
HStem: -4 21G<128 128 649 649> 995 223<561.5 834> 1672 20G<513 513>
VStem: 721 254<846.5 1000>
LayerCount: 2
Fore
SplineSet
539 1665 m 1,0,-1
 476 1104 l 1,1,2
 611 1218 611 1218 751 1218 c 0,3,4
 919.396039604 1218 919.396039604 1218 963 1034.5 c 0,5,6
 975 984 975 984 975 939.5 c 128,-1,7
 975 895 975 895 972 868 c 2,8,-1
 876 30 l 2,9,10
 872.377777778 4.64444444444 872.377777778 4.64444444444 851 3 c 2,11,-1
 649 -4 l 1,12,13
 627 -2 627 -2 627 15 c 1,14,-1
 718 807 l 2,15,16
 721 833 721 833 721 854 c 0,17,18
 721 936 721 936 682.5 965.5 c 128,-1,19
 644 995 644 995 584.5 995 c 128,-1,20
 525 995 525 995 461 970 c 1,21,-1
 355 30 l 2,22,23
 351.377777778 4.64444444444 351.377777778 4.64444444444 330 3 c 2,24,-1
 128 -4 l 1,25,26
 106 -2 106 -2 106 15 c 1,27,-1
 292 1658 l 2,28,29
 294 1672 294 1672 298.5 1678 c 128,-1,30
 303 1684 303 1684 317 1685 c 2,31,-1
 513 1692 l 1,32,33
 539 1689 539 1689 539 1665 c 1,0,-1
EndSplineSet
EndChar

StartChar: o
Encoding: 111 111 40
Width: 1023
Flags: HMW
HStem: -11 200<441.5 530 441.5 630.5> 1011 207<536 625>
VStem: 131 240<320 431 320 447.5> 696 241<788.5 880.5>
LayerCount: 2
Fore
SplineSet
213.5 95.5 m 128,-1,1
 131 202 131 202 131 406 c 0,2,3
 131 501 131 501 152 654 c 128,-1,4
 173 807 173 807 191 876.5 c 128,-1,5
 209 946 209 946 242 1012.5 c 128,-1,6
 275 1079 275 1079 320 1122.5 c 0,7,8
 418.793103448 1218 418.793103448 1218 588 1218 c 0,9,10
 827.98245614 1218 827.98245614 1218 899 1042 c 0,11,12
 937 947.826086957 937 947.826086957 937 814.413043478 c 128,-1,13
 937 681 937 681 916.5 538 c 128,-1,14
 896 395 896 395 878 326.5 c 128,-1,15
 860 258 860 258 827.5 192.5 c 128,-1,16
 795 127 795 127 750 84 c 0,17,18
 650.581395349 -11 650.581395349 -11 473.290697674 -11 c 128,-1,0
 296 -11 296 -11 213.5 95.5 c 128,-1,1
650 427 m 1,19,20
 661 480 661 480 678.5 625.5 c 128,-1,21
 696 771 696 771 696 841 c 0,22,23
 696 1011 696 1011 573 1011 c 0,24,25
 515 1011 515 1011 477.5 956 c 128,-1,26
 440 901 440 901 417 773 c 0,27,28
 371 513 371 513 371 351 c 128,-1,29
 371 189 371 189 493 189 c 0,30,31
 551 189 551 189 589.5 244.5 c 128,-1,32
 628 300 628 300 650 427 c 1,19,20
EndSplineSet
EndChar

StartChar: a
Encoding: 97 97 41
Width: 1054
Flags: HMW
HStem: -11 230<451 456.5> 983 235<529 577 398 626>
VStem: 131 252<417 446.5> 383 305<417 787.5>
LayerCount: 2
Fore
SplineSet
993 1183 m 1,0,-1
 863 30 l 2,1,2
 860 4 860 4 837 3 c 2,3,-1
 635 -4 l 1,4,5
 614 -2 614 -2 614 15 c 1,6,-1
 633 151 l 1,7,8
 587 73 587 73 532.5 31 c 128,-1,9
 478 -11 478 -11 410 -11 c 128,-1,10
 342 -11 342 -11 294 12.5 c 128,-1,11
 246 36 246 36 215.5 74.5 c 128,-1,12
 185 113 185 113 165.5 167 c 0,13,14
 131 262.538461538 131 262.538461538 131 429.269230769 c 128,-1,15
 131 596 131 596 153.5 712 c 128,-1,16
 176 828 176 828 193 888.5 c 128,-1,17
 210 949 210 949 238.5 1013 c 128,-1,18
 267 1077 267 1077 303 1120 c 0,19,20
 385.046511628 1218 385.046511628 1218 510 1218 c 0,21,22
 603 1218 603 1218 652 1173.5 c 128,-1,23
 701 1129 701 1129 734 1042 c 1,24,-1
 746 1178 l 2,25,26
 747.862275449 1200.34730539 747.862275449 1200.34730539 771 1202 c 2,27,-1
 967 1209 l 1,28,29
 993 1207 993 1207 993 1183 c 1,0,-1
383 458 m 0,30,31
 383 219 383 219 511 219 c 0,32,33
 567 219 567 219 602 270.5 c 128,-1,34
 637 322 637 322 662.5 477 c 128,-1,35
 688 632 688 632 688 703 c 128,-1,36
 688 774 688 774 687 793 c 128,-1,37
 686 812 686 812 683 843.5 c 128,-1,38
 680 875 680 875 672 896.5 c 128,-1,39
 664 918 664 918 651 939.5 c 0,40,41
 624.697674419 983 624.697674419 983 566.848837209 983 c 128,-1,42
 509 983 509 983 475 931.5 c 128,-1,43
 441 880 441 880 422.5 794 c 0,44,45
 383 610.378378378 383 610.378378378 383 458 c 0,30,31
EndSplineSet
EndChar

StartChar: d
Encoding: 100 100 42
Width: 1045
Flags: HMW
HStem: -11 230<451 453.5> 983 235<529 576.5 398 626> 1672 20G<1014 1014>
VStem: 131 252<417 446.5> 383 305<417 787.5>
LayerCount: 2
Fore
SplineSet
623 136 m 1,0,1
 531.901408451 -11 531.901408451 -11 403 -11 c 0,2,3
 229.777777778 -11 229.777777778 -11 165.5 167 c 0,4,5
 131 262.538461538 131 262.538461538 131 429.269230769 c 128,-1,6
 131 596 131 596 153.5 712 c 128,-1,7
 176 828 176 828 193 888.5 c 128,-1,8
 210 949 210 949 238.5 1013 c 128,-1,9
 267 1077 267 1077 303 1120 c 0,10,11
 385.046511628 1218 385.046511628 1218 510 1218 c 0,12,13
 602 1218 602 1218 651 1174 c 128,-1,14
 700 1130 700 1130 734 1043 c 1,15,-1
 791 1658 l 2,16,17
 794 1684 794 1684 818 1685 c 2,18,-1
 1014 1692 l 1,19,20
 1039 1689 1039 1689 1039 1665 c 1,21,-1
 854 30 l 2,22,23
 851 4 851 4 828 3 c 2,24,-1
 627 -4 l 1,25,26
 606 -2 606 -2 606 15 c 1,27,-1
 623 136 l 1,0,1
383 458 m 0,28,29
 383 219 383 219 511 219 c 0,30,31
 567 219 567 219 602 270.5 c 128,-1,32
 637 322 637 322 662.5 477 c 128,-1,33
 688 632 688 632 688 703 c 128,-1,34
 688 774 688 774 687 793 c 128,-1,35
 686 812 686 812 683 843.5 c 128,-1,36
 680 875 680 875 672 896.5 c 128,-1,37
 664 918 664 918 651 939.5 c 0,38,39
 624.697674419 983 624.697674419 983 566.848837209 983 c 128,-1,40
 509 983 509 983 475 931.5 c 128,-1,41
 441 880 441 880 422.5 794 c 0,42,43
 383 610.378378378 383 610.378378378 383 458 c 0,28,29
EndSplineSet
EndChar

StartChar: e
Encoding: 101 101 43
Width: 996
Flags: HMW
HStem: -11 223<465.5 527> 505 185 1001 217<527.5 617>
VStem: 131 233<382.5 463 382.5 470> 678 232<811.5 857>
LayerCount: 2
Fore
SplineSet
139.5 305.5 m 128,-1,1
 131 364 131 364 131 466 c 128,-1,2
 131 568 131 568 153 718 c 0,3,4
 226 1218 226 1218 607 1218 c 0,5,6
 754 1218 754 1218 832 1117 c 128,-1,7
 910 1016 910 1016 910 855 c 128,-1,8
 910 694 910 694 890 542 c 0,9,10
 887 515 887 515 859 514 c 2,11,-1
 365 497 l 1,12,13
 364 482 364 482 364 457 c 0,14,15
 364 344 364 344 403.5 278 c 128,-1,16
 443 212 443 212 523 212 c 128,-1,17
 603 212 603 212 671.5 235.5 c 128,-1,18
 740 259 740 259 752 259 c 128,-1,19
 764 259 764 259 773 251 c 128,-1,20
 782 243 782 243 782 229 c 1,21,-1
 762 53 l 2,22,23
 761 38 761 38 756.5 33.5 c 128,-1,24
 752 29 752 29 739 24 c 1,25,26
 618 -11 618 -11 506 -11 c 128,-1,27
 394 -11 394 -11 332 16 c 128,-1,28
 270 43 270 43 232.5 85.5 c 128,-1,29
 195 128 195 128 171.5 187.5 c 128,-1,0
 148 247 148 247 139.5 305.5 c 128,-1,1
389 748 m 1,30,-1
 380 684 l 1,31,-1
 641 697 l 2,32,33
 658 698 658 698 663 703 c 0,34,35
 678 718 678 718 678 785.5 c 128,-1,36
 678 853 678 853 673.5 880.5 c 128,-1,37
 669 908 669 908 658.5 937 c 0,38,39
 635.327586207 1001 635.327586207 1001 579.663793103 1001 c 128,-1,40
 524 1001 524 1001 492 981.5 c 0,41,42
 421.021892777 938.247715911 421.021892777 938.247715911 389 748 c 1,30,-1
EndSplineSet
EndChar

StartChar: s
Encoding: 115 115 44
Width: 747
Flags: HMW
HStem: -11 230<262 311.5 249 414> 981 237<508.5 540 396.5 547.5>
VStem: 180 257<851 924 851 995.5> 387 261<287.5 356>
LayerCount: 2
Fore
SplineSet
653 976 m 2,0,-1
 540 981 l 1,1,2
 492 981 492 981 464.5 959 c 128,-1,3
 437 937 437 937 437 895.5 c 128,-1,4
 437 854 437 854 452 804 c 0,5,6
 471.964788732 737.450704225 471.964788732 737.450704225 521.482394366 648.225352113 c 128,-1,7
 571 559 571 559 590 521.5 c 0,8,9
 648 407.026315789 648 407.026315789 648 303 c 0,10,11
 648 152 648 152 559.5 70.5 c 128,-1,12
 471 -11 471 -11 291 -11 c 0,13,14
 202 -11 202 -11 149 -1.5 c 128,-1,15
 96 8 96 8 90.5 13.5 c 128,-1,16
 85 19 85 19 85 31 c 1,17,-1
 111 216 l 1,18,19
 113 241 113 241 128.5 241 c 128,-1,20
 144 241 144 241 188 230 c 128,-1,21
 232 219 232 219 265 219 c 0,22,23
 387 219 387 219 387 316 c 0,24,25
 387 385.033333333 387 385.033333333 357.5 445.016666667 c 128,-1,26
 328 505 328 505 293.5 569 c 128,-1,27
 259 633 259 633 240 671.5 c 128,-1,28
 221 710 221 710 200.5 778 c 128,-1,29
 180 846 180 846 180 906 c 0,30,31
 180 1046 180 1046 263.5 1132 c 128,-1,32
 347 1218 347 1218 507 1218 c 0,33,34
 610 1218 610 1218 668 1208 c 0,35,36
 693 1204 693 1204 693 1182 c 1,37,-1
 671 1004 l 1,38,39
 671 976 671 976 653 976 c 2,0,-1
EndSplineSet
EndChar

StartChar: p
Encoding: 112 112 45
Width: 1055
Flags: HMW
HStem: -487 21G<79 79> -11 235<520 571.5 474 702> 987 231<643 649.5>
VStem: 412 306<419 789.5> 718 251<760.5 789.5>
LayerCount: 2
Fore
SplineSet
52 -462 m 1,0,-1
 238 1177 l 2,1,2
 241 1201 241 1201 263 1202 c 2,3,-1
 464 1209 l 1,4,5
 486 1207 486 1207 486 1188 c 1,6,-1
 466 1055 l 1,7,8
 512 1134 512 1134 566.5 1176 c 128,-1,9
 621 1218 621 1218 689.5 1218 c 128,-1,10
 758 1218 758 1218 806 1194.5 c 128,-1,11
 854 1171 854 1171 884.5 1132.5 c 128,-1,12
 915 1094 915 1094 934.5 1040 c 0,13,14
 969 944.461538462 969 944.461538462 969 777.730769231 c 128,-1,15
 969 611 969 611 946.5 495 c 128,-1,16
 924 379 924 379 907 318.5 c 128,-1,17
 890 258 890 258 861.5 194 c 128,-1,18
 833 130 833 130 797 87 c 0,19,20
 714.953488372 -11 714.953488372 -11 603.976744186 -11 c 128,-1,21
 493 -11 493 -11 444 36 c 128,-1,22
 395 83 395 83 360 178 c 1,23,-1
 301 -455 l 1,24,25
 300 -479 300 -479 275 -480 c 2,26,-1
 79 -487 l 1,27,28
 52 -486 52 -486 52 -462 c 1,0,-1
718 749 m 0,29,30
 718 987 718 987 590 987 c 0,31,32
 532 987 532 987 497.5 936 c 128,-1,33
 463 885 463 885 437.5 727 c 128,-1,34
 412 569 412 569 412 500.5 c 128,-1,35
 412 432 412 432 413 413.5 c 128,-1,36
 414 395 414 395 417 363 c 128,-1,37
 420 331 420 331 428 310 c 128,-1,38
 436 289 436 289 449 267.5 c 0,39,40
 475.302325581 224 475.302325581 224 533.151162791 224 c 128,-1,41
 591 224 591 224 624.5 275 c 128,-1,42
 658 326 658 326 677 413.5 c 0,43,44
 718 602.315789474 718 602.315789474 718 749 c 0,29,30
EndSplineSet
EndChar

StartChar: m
Encoding: 109 109 46
Width: 1567
Flags: HMW
HStem: -4 21G<128 128 649 649 1149 1149> 995 223<561.5 802>
VStem: 1222 253<846.5 1000>
LayerCount: 2
Fore
SplineSet
485 1183 m 1,0,-1
 474 1090 l 1,1,2
 621 1218 621 1218 756.5 1218 c 128,-1,3
 892 1218 892 1218 946 1087 c 1,4,5
 1096 1218 1096 1218 1237 1218 c 0,6,7
 1411.11650485 1218 1411.11650485 1218 1461 1034.5 c 0,8,9
 1475 983 1475 983 1475 939 c 128,-1,10
 1475 895 1475 895 1472 868 c 2,11,-1
 1376 30 l 2,12,13
 1372.37777778 4.64444444444 1372.37777778 4.64444444444 1351 3 c 2,14,-1
 1149 -4 l 1,15,16
 1127 -2 1127 -2 1127 15 c 1,17,-1
 1218 807 l 2,18,19
 1222 841 1222 841 1222 854 c 0,20,21
 1222 936 1222 936 1183 965.5 c 128,-1,22
 1144 995 1144 995 1086.5 995 c 128,-1,23
 1029 995 1029 995 972 974 c 1,24,25
 975 950 975 950 975 922.5 c 128,-1,26
 975 895 975 895 972 868 c 2,27,-1
 876 30 l 2,28,29
 872.377777778 4.64444444444 872.377777778 4.64444444444 851 3 c 2,30,-1
 649 -4 l 1,31,32
 627 -2 627 -2 627 15 c 1,33,-1
 718 807 l 2,34,35
 721 833 721 833 721 854 c 0,36,37
 721 936 721 936 682.5 965.5 c 128,-1,38
 644 995 644 995 584.5 995 c 128,-1,39
 525 995 525 995 461 970 c 1,40,-1
 355 31 l 2,41,42
 351.377777778 5.64444444444 351.377777778 5.64444444444 330 4 c 2,43,-1
 128 -4 l 1,44,45
 106 -2 106 -2 106 15 c 1,46,-1
 238 1178 l 1,47,48
 241.727272727 1200.36363636 241.727272727 1200.36363636 263 1202 c 2,49,-1
 458 1209 l 1,50,51
 485 1208 485 1208 485 1183 c 1,0,-1
EndSplineSet
EndChar

StartChar: b
Encoding: 98 98 47
Width: 1060
Flags: HMW
HStem: -11 235<525.5 576 479 707> 988 230<643 654> 1672 20G<513 513>
VStem: 722 252<760.5 790>
LayerCount: 2
Fore
SplineSet
539 1665 m 1,0,-1
 455 1026 l 1,1,2
 505 1119 505 1119 562.5 1168.5 c 128,-1,3
 620 1218 620 1218 691.5 1218 c 128,-1,4
 763 1218 763 1218 811 1194.5 c 128,-1,5
 859 1171 859 1171 889.5 1132.5 c 128,-1,6
 920 1094 920 1094 939.5 1040 c 0,7,8
 974 944.461538462 974 944.461538462 974 777.730769231 c 128,-1,9
 974 611 974 611 951.5 495 c 128,-1,10
 929 379 929 379 912 318.5 c 128,-1,11
 895 258 895 258 866.5 194 c 128,-1,12
 838 130 838 130 802 87 c 0,13,14
 719.953488372 -11 719.953488372 -11 609.476744186 -11 c 128,-1,15
 499 -11 499 -11 450 35.5 c 128,-1,16
 401 82 401 82 366 176 c 1,17,-1
 355 30 l 2,18,19
 353 4 353 4 330 3 c 2,20,-1
 128 -4 l 1,21,22
 106 -2 106 -2 106 15 c 1,23,-1
 292 1658 l 2,24,25
 294 1672 294 1672 298.5 1678 c 128,-1,26
 303 1684 303 1684 317 1685 c 2,27,-1
 513 1692 l 1,28,29
 539 1689 539 1689 539 1665 c 1,0,-1
722 749 m 0,30,31
 722 988 722 988 594 988 c 0,32,33
 538 988 538 988 503 936.5 c 128,-1,34
 468 885 468 885 442.5 730 c 128,-1,35
 417 575 417 575 417 504 c 128,-1,36
 417 433 417 433 418 414 c 128,-1,37
 419 395 419 395 422 363.5 c 128,-1,38
 425 332 425 332 433 310.5 c 128,-1,39
 441 289 441 289 454 267.5 c 0,40,41
 480.302325581 224 480.302325581 224 538.151162791 224 c 128,-1,42
 596 224 596 224 630 275.5 c 128,-1,43
 664 327 664 327 682.5 413 c 0,44,45
 722 596.621621622 722 596.621621622 722 749 c 0,30,31
EndSplineSet
EndChar

StartChar: q
Encoding: 113 113 48
Width: 1053
Flags: HMW
HStem: -487 21G<586 586> -11 230<451 459.5> 983 235<529 576.5 398 626>
VStem: 131 252<417 446.5>
LayerCount: 2
Fore
SplineSet
560 -462 m 1,0,-1
 642 168 l 1,1,2
 595 82 595 82 538.5 35.5 c 128,-1,3
 482 -11 482 -11 412 -11 c 128,-1,4
 342 -11 342 -11 294 12.5 c 128,-1,5
 246 36 246 36 215.5 74.5 c 128,-1,6
 185 113 185 113 165.5 167 c 0,7,8
 131 262.538461538 131 262.538461538 131 429.269230769 c 128,-1,9
 131 596 131 596 153.5 712 c 128,-1,10
 176 828 176 828 193 888.5 c 128,-1,11
 210 949 210 949 238.5 1013 c 128,-1,12
 267 1077 267 1077 303 1120 c 0,13,14
 385.046511628 1218 385.046511628 1218 510 1218 c 0,15,16
 602 1218 602 1218 651 1174 c 128,-1,17
 700 1130 700 1130 734 1043 c 1,18,-1
 744 1176 l 2,19,20
 746 1200 746 1200 770 1201 c 2,21,-1
 971 1208 l 1,22,23
 992 1205 992 1205 992 1187 c 1,24,-1
 809 -455 l 2,25,26
 805.411111111 -478.327777778 805.411111111 -478.327777778 782 -480 c 2,27,-1
 586 -487 l 1,28,29
 560 -485 560 -485 560 -462 c 1,0,-1
383 458 m 0,30,31
 383 219 383 219 511 219 c 0,32,33
 567 219 567 219 602 270.5 c 128,-1,34
 637 322 637 322 662.5 477 c 128,-1,35
 688 632 688 632 688 703 c 128,-1,36
 688 774 688 774 687 793 c 128,-1,37
 686 812 686 812 683 843.5 c 128,-1,38
 680 875 680 875 672 896.5 c 128,-1,39
 664 918 664 918 651 939.5 c 0,40,41
 624.697674419 983 624.697674419 983 566.848837209 983 c 128,-1,42
 509 983 509 983 475 931.5 c 128,-1,43
 441 880 441 880 422.5 794 c 0,44,45
 383 610.378378378 383 610.378378378 383 458 c 0,30,31
EndSplineSet
EndChar

StartChar: u
Encoding: 117 117 49
Width: 1067
Flags: HMW
HStem: -11 223<280.5 552.5> 1190 20G<465 465>
VStem: 139 254<207.5 359.5>
LayerCount: 2
Fore
SplineSet
629 21 m 1,0,-1
 637 98 l 1,1,2
 516 -11 516 -11 363 -11 c 0,3,4
 248 -11 248 -11 193.5 73 c 128,-1,5
 139 157 139 157 139 283 c 0,6,7
 139 304 139 304 143 340 c 2,8,-1
 238 1177 l 2,9,10
 241 1201 241 1201 263 1202 c 2,11,-1
 465 1210 l 1,12,13
 486 1208 486 1208 486 1189 c 1,14,-1
 396 400 l 2,15,16
 393 374.5 393 374.5 393 352 c 0,17,18
 393 268 393 268 425.5 240 c 128,-1,19
 458 212 458 212 523.5 212 c 128,-1,20
 589 212 589 212 653 237 c 1,21,-1
 759 1177 l 2,22,23
 762 1201 762 1201 784 1202 c 2,24,-1
 986 1209 l 1,25,26
 1007 1207 1007 1207 1007 1188 c 1,27,-1
 877 31 l 2,28,29
 873.525773196 6.68041237113 873.525773196 6.68041237113 850 5 c 2,30,-1
 655 -4 l 1,31,32
 629 -3 629 -3 629 21 c 1,0,-1
EndSplineSet
EndChar

StartChar: g
Encoding: 103 103 50
Width: 1048
Flags: HMW
HStem: -499 224<360 475.5 360 558> -11 230<451 461.5> 983 235<529 576.5 398 626>
VStem: 131 252<417 446.5>
LayerCount: 2
Fore
SplineSet
622 -36 m 2,0,-1
 648 179 l 1,1,2
 598 87 598 87 541.5 38 c 128,-1,3
 485 -11 485 -11 413.5 -11 c 128,-1,4
 342 -11 342 -11 294 12.5 c 128,-1,5
 246 36 246 36 215.5 74.5 c 128,-1,6
 185 113 185 113 165.5 167 c 0,7,8
 131 262.538461538 131 262.538461538 131 429.269230769 c 128,-1,9
 131 596 131 596 153.5 712 c 128,-1,10
 176 828 176 828 193 888.5 c 128,-1,11
 210 949 210 949 238.5 1013 c 128,-1,12
 267 1077 267 1077 303 1120 c 0,13,14
 385.046511628 1218 385.046511628 1218 510 1218 c 0,15,16
 602 1218 602 1218 651 1174 c 128,-1,17
 700 1130 700 1130 734 1043 c 1,18,-1
 744 1177 l 2,19,20
 746 1201 746 1201 770 1202 c 2,21,-1
 972 1209 l 1,22,23
 993 1206 993 1206 993 1188 c 1,24,-1
 857 -25 l 2,25,26
 827.819409506 -294.10989011 827.819409506 -294.10989011 690 -408.5 c 0,27,28
 580.963855422 -499 580.963855422 -499 397 -499 c 0,29,30
 280 -499 280 -499 160 -472 c 0,31,32
 143 -469 143 -469 137 -463.5 c 128,-1,33
 131 -458 131 -458 131 -443 c 1,34,-1
 151 -262 l 2,35,36
 154 -235 154 -235 173 -235 c 0,37,38
 186 -235 186 -235 246 -255 c 128,-1,39
 306 -275 306 -275 380 -275 c 128,-1,40
 454 -275 454 -275 495.5 -261.5 c 128,-1,41
 537 -248 537 -248 562.5 -216.5 c 0,42,43
 606.469583778 -162.184631804 606.469583778 -162.184631804 622 -36 c 2,0,-1
383 458 m 0,44,45
 383 219 383 219 511 219 c 0,46,47
 567 219 567 219 602 270.5 c 128,-1,48
 637 322 637 322 662.5 477 c 128,-1,49
 688 632 688 632 688 703 c 128,-1,50
 688 774 688 774 687 793 c 128,-1,51
 686 812 686 812 683 843.5 c 128,-1,52
 680 875 680 875 672 896.5 c 128,-1,53
 664 918 664 918 651 939.5 c 0,54,55
 624.697674419 983 624.697674419 983 566.848837209 983 c 128,-1,56
 509 983 509 983 475 931.5 c 128,-1,57
 441 880 441 880 422.5 794 c 0,58,59
 383 610.378378378 383 610.378378378 383 458 c 0,44,45
EndSplineSet
EndChar

StartChar: r
Encoding: 114 114 51
Width: 794
Flags: HMW
HStem: -4 21G<128 128> 965 253<677.5 683>
LayerCount: 2
Fore
SplineSet
779 954 m 1,0,-1
 672 965 l 1,1,2
 542 965 542 965 454 913 c 1,3,-1
 355 31 l 2,4,5
 351.377777778 5.64444444444 351.377777778 5.64444444444 330 4 c 2,6,-1
 128 -4 l 1,7,8
 106 -2 106 -2 106 15 c 1,9,-1
 238 1178 l 1,10,11
 241.727272727 1200.36363636 241.727272727 1200.36363636 263 1202 c 2,12,-1
 458 1209 l 1,13,14
 485 1208 485 1208 485 1183 c 1,15,-1
 473 1080 l 1,16,17
 537 1145 537 1145 597 1181.5 c 128,-1,18
 657 1218 657 1218 717.5 1218 c 128,-1,19
 778 1218 778 1218 810 1213 c 0,20,21
 831 1209 831 1209 831 1185 c 0,22,23
 831 1116 831 1116 808 980 c 0,24,25
 803 954 803 954 779 954 c 1,0,-1
EndSplineSet
EndChar

StartChar: c
Encoding: 99 99 52
Width: 886
Flags: HMW
HStem: -11 223<458.5 520.5> 1001 217<544 615>
VStem: 131 248<383.5 470>
LayerCount: 2
Fore
SplineSet
823 1187 m 0,0,1
 845 1179 845 1179 845 1149 c 1,2,-1
 822 968 l 2,3,4
 820 948 820 948 794.5 948 c 128,-1,5
 769 948 769 948 746 958 c 0,6,7
 649 1001 649 1001 585 1001 c 128,-1,8
 521 1001 521 1001 483 948 c 128,-1,9
 445 895 445 895 422 796 c 0,10,11
 379 610.913043478 379 610.913043478 379 458 c 0,12,13
 379 212 379 212 506 212 c 0,14,15
 598 212 598 212 655 235.5 c 128,-1,16
 712 259 712 259 729 259 c 0,17,18
 764 259 764 259 764 229 c 1,19,-1
 743 53 l 2,20,21
 741.25 35.5 741.25 35.5 735.625 31.75 c 128,-1,22
 730 28 730 28 721 24 c 1,23,24
 600 -11 600 -11 493.5 -11 c 128,-1,25
 387 -11 387 -11 325.5 16 c 128,-1,26
 264 43 264 43 228 85.5 c 128,-1,27
 192 128 192 128 169.5 188 c 0,28,29
 131 290.666666667 131 290.666666667 131 441.333333333 c 128,-1,30
 131 592 131 592 150.5 703.5 c 128,-1,31
 170 815 170 815 191.5 885 c 128,-1,32
 213 955 213 955 249 1019.5 c 128,-1,33
 285 1084 285 1084 333 1126 c 0,34,35
 438.142857143 1218 438.142857143 1218 611 1218 c 0,36,37
 727 1218 727 1218 823 1187 c 0,0,1
EndSplineSet
EndChar

StartChar: k
Encoding: 107 107 53
Width: 981
Flags: HMW
HStem: -4 21G<129 129 645 645> 1672 20G<514 514>
LayerCount: 2
Fore
SplineSet
885 21 m 0,0,1
 885 3 885 3 858 3 c 2,2,-1
 645 -4 l 1,3,4
 630 -3 630 -3 623 15 c 2,5,-1
 419 590 l 1,6,-1
 356 30 l 2,7,8
 354 16 354 16 349 10 c 128,-1,9
 344 4 344 4 330 3 c 2,10,-1
 129 -4 l 1,11,12
 107 -2 107 -2 107 15 c 1,13,-1
 292 1658 l 2,14,15
 294 1672 294 1672 299 1678 c 128,-1,16
 304 1684 304 1684 318 1685 c 2,17,-1
 514 1692 l 1,18,19
 540 1689 540 1689 540 1665 c 1,20,-1
 426 653 l 1,21,-1
 692 1177 l 2,22,23
 704 1201 704 1201 725 1202 c 2,24,-1
 932 1209 l 1,25,26
 957 1206.5 957 1206.5 957 1186 c 0,27,28
 957 1175 957 1175 953 1166 c 1,29,-1
 654 647 l 1,30,-1
 882 33 l 2,31,32
 885 26 885 26 885 21 c 0,0,1
EndSplineSet
EndChar

StartChar: j
Encoding: 106 106 54
Width: 544
Flags: HMW
HStem: -499 243<-108.5 -40.5 -108.5 24.5> 1318 298<357.5 411.5>
VStem: 236 300<1178 1519 1437 1497.5>
LayerCount: 2
Fore
SplineSet
97 -91 m 1,0,-1
 236 1178 l 1,1,2
 239.727272727 1200.36363636 239.727272727 1200.36363636 261 1202 c 2,3,-1
 456 1209 l 1,4,5
 483 1207 483 1207 483 1183 c 1,6,-1
 345 -39 l 2,7,8
 318 -277 318 -277 207 -388 c 128,-1,9
 96 -499 96 -499 -121 -499 c 0,10,11
 -145 -499 -145 -499 -145 -475 c 1,12,-1
 -122 -280 l 2,13,14
 -120 -256 -120 -256 -102 -256 c 0,15,16
 -10 -256 -10 -256 38 -215.5 c 128,-1,17
 86 -175 86 -175 97 -91 c 1,0,-1
273 1357 m 128,-1,19
 236 1396 236 1396 236 1457.5 c 128,-1,20
 236 1519 236 1519 285.5 1567.5 c 128,-1,21
 335 1616 335 1616 397 1616 c 128,-1,22
 459 1616 459 1616 497.5 1577 c 128,-1,23
 536 1538 536 1538 536 1476.5 c 128,-1,24
 536 1415 536 1415 485 1366.5 c 128,-1,25
 434 1318 434 1318 372 1318 c 128,-1,18
 310 1318 310 1318 273 1357 c 128,-1,19
EndSplineSet
EndChar

StartChar: f
Encoding: 102 102 55
Width: 693
Flags: HMW
HStem: -4 21G<141 141> 1003 210 1487 225<597 671.5>
LayerCount: 2
Fore
SplineSet
491 1239 m 2,0,-1
 488 1209 l 1,1,-1
 710 1217 l 1,2,3
 734 1216 734 1216 734 1191 c 1,4,-1
 706 1032 l 2,5,6
 702 1008 702 1008 681 1007 c 2,7,-1
 467 999 l 1,8,-1
 369 30 l 2,9,10
 367 16 367 16 362 10 c 128,-1,11
 357 4 357 4 343 3 c 2,12,-1
 141 -4 l 1,13,14
 119 -2 119 -2 119 15 c 1,15,-1
 228 997 l 1,16,-1
 137 992 l 1,17,18
 112 993 112 993 112 1017 c 1,19,-1
 139 1178 l 1,20,21
 140.865921788 1200.39106145 140.865921788 1200.39106145 165 1202 c 2,22,-1
 251 1205 l 1,23,-1
 265 1327 l 2,24,25
 290.795855718 1552.71373753 290.795855718 1552.71373753 398 1639 c 0,26,27
 488.696969697 1712 488.696969697 1712 652 1712 c 0,28,29
 759 1712 759 1712 839 1688 c 0,30,31
 869 1678 869 1678 869 1657 c 1,32,-1
 843 1482 l 2,33,34
 839 1458 839 1458 827 1458 c 128,-1,35
 815 1458 815 1458 766 1472.5 c 128,-1,36
 717 1487 717 1487 645.5 1487 c 128,-1,37
 574 1487 574 1487 539.5 1429 c 128,-1,38
 505 1371 505 1371 491 1239 c 2,0,-1
EndSplineSet
EndChar

StartChar: t
Encoding: 116 116 56
Width: 745
Flags: HMW
HStem: -11 218<481 496> 1003 211 1003 441 1428 20G<506 506>
VStem: 160 248<278.5 316>
LayerCount: 2
Fore
SplineSet
264 1205 m 1,0,1
 287.453110492 1425.09842154 287.453110492 1425.09842154 294.226555246 1432.54921077 c 128,-1,2
 301 1440 301 1440 315 1441 c 2,3,-1
 506 1448 l 1,4,5
 533 1446 533 1446 533 1423 c 1,6,7
 514 1312 514 1312 501 1210 c 1,8,-1
 734 1218 l 1,9,10
 758 1217 758 1217 758 1192 c 1,11,-1
 730 1033 l 2,12,13
 726 1009 726 1009 705 1008 c 2,14,-1
 476 999 l 1,15,16
 408 387 408 387 408 324 c 0,17,18
 408 207 408 207 508 207 c 0,19,20
 559 207 559 207 607 223 c 128,-1,21
 655 239 655 239 667 239 c 0,22,23
 688 239 688 239 688 213 c 1,24,-1
 667 38 l 2,25,26
 665 23 665 23 659.5 16 c 128,-1,27
 654 9 654 9 610.5 -1 c 128,-1,28
 567 -11 567 -11 462 -11 c 0,29,30
 308 -11 308 -11 234 60.5 c 128,-1,31
 160 132 160 132 160 274 c 128,-1,32
 160 416 160 416 239 996 c 1,33,-1
 141 992 l 1,34,35
 116 993 116 993 116 1017 c 1,36,-1
 143 1178 l 2,37,38
 146 1201 146 1201 169 1202 c 2,39,-1
 264 1205 l 1,0,1
EndSplineSet
EndChar

StartChar: v
Encoding: 118 118 57
Width: 927
Flags: HMW
HStem: -4 21G<319 319> 1189 20G<363 363 932 932>
LayerCount: 2
Fore
SplineSet
466 327 m 1,0,-1
 695 1178 l 2,1,2
 701 1201 701 1201 722 1202 c 2,3,-1
 932 1209 l 1,4,5
 957 1207 957 1207 957 1183 c 1,6,-1
 550 30 l 2,7,8
 540.906040268 4.53691275168 540.906040268 4.53691275168 524 3 c 2,9,-1
 319 -4 l 1,10,11
 300 -3 300 -3 297 15 c 2,12,-1
 141 1178 l 1,13,14
 144 1201 144 1201 166 1202 c 2,15,-1
 363 1209 l 1,16,17
 386 1208 386 1208 388 1183 c 2,18,-1
 466 327 l 1,0,-1
EndSplineSet
EndChar

StartChar: y
Encoding: 121 121 58
Width: 940
Flags: HMW
HStem: -487 21G<163 163> 1189 20G<379 379 945 945>
LayerCount: 2
Fore
SplineSet
970 1183 m 1,0,-1
 393 -454 l 2,1,2
 385 -479 385 -479 364 -480 c 2,3,-1
 163 -487 l 1,4,5
 141 -486 141 -486 141 -467 c 1,6,-1
 313 18 l 1,7,-1
 157 1178 l 1,8,9
 157 1201 157 1201 182 1202 c 2,10,-1
 379 1209 l 1,11,12
 402 1208 402 1208 404 1183 c 2,13,-1
 480 342 l 1,14,-1
 723 1178 l 2,15,16
 729 1201 729 1201 749 1202 c 2,17,-1
 945 1209 l 1,18,19
 970 1207 970 1207 970 1183 c 1,0,-1
EndSplineSet
EndChar

StartChar: w
Encoding: 119 119 59
Width: 1304
Flags: HMW
HStem: -4 21G<275 275 748 748> 1189 20G<362 362 1308 1308>
VStem: 403 303 706 160
LayerCount: 2
Fore
SplineSet
891 307 m 1,0,-1
 1098 1178 l 2,1,2
 1104 1201 1104 1201 1124 1202 c 2,3,-1
 1308 1209 l 1,4,5
 1334 1207 1334 1207 1334 1183 c 1,6,-1
 975 30 l 2,7,8
 967.731707317 4.56097560976 967.731707317 4.56097560976 949 3 c 2,9,-1
 748 -4 l 1,10,11
 731 -3 731 -3 726 15 c 1,12,-1
 686 709 l 1,13,-1
 501 30 l 1,14,15
 495 4 495 4 476 3 c 2,16,-1
 275 -4 l 1,17,18
 258 -3 258 -3 253 15 c 1,19,-1
 151 1178 l 1,20,21
 154 1201 154 1201 176 1202 c 2,22,-1
 362 1209 l 1,23,24
 385 1208 385 1208 387 1183 c 1,25,-1
 420 314 l 1,26,-1
 623 1178 l 2,27,28
 627 1199 627 1199 650 1202 c 1,29,-1
 814 1208 l 1,30,31
 839 1207 839 1207 841 1182 c 2,32,-1
 891 307 l 1,0,-1
EndSplineSet
EndChar

StartChar: x
Encoding: 120 120 60
Width: 945
Flags: HMW
HStem: -4 21G<48 48 604 604> 1189 20G<401 401 908 908>
LayerCount: 2
Fore
SplineSet
48 -4 m 1,0,1
 23 -2 23 -2 23 21 c 1,2,-1
 356 660 l 1,3,-1
 178 1178 l 1,4,5
 178 1201 178 1201 204 1202 c 2,6,-1
 401 1209 l 1,7,8
 419 1208 419 1208 427 1183 c 2,9,-1
 534 835 l 1,10,-1
 687 1178 l 2,11,12
 697 1201 697 1201 714 1202 c 2,13,-1
 908 1209 l 1,14,15
 934 1207 934 1207 934 1183 c 1,16,-1
 639 596 l 1,17,-1
 826 29 l 1,18,19
 823 4 823 4 801 3 c 2,20,-1
 604 -4 l 1,21,22
 585 -3 585 -3 578 21 c 2,23,-1
 456 422 l 1,24,-1
 270 29 l 1,25,26
 259 3 259 3 244 3 c 2,27,-1
 48 -4 l 1,0,1
EndSplineSet
EndChar

StartChar: z
Encoding: 122 122 61
Width: 863
Flags: HMW
HStem: -4 21G<59 59> 7 247 970 242 1202 20G
LayerCount: 2
Fore
SplineSet
59 -4 m 1,0,1
 37 -2 37 -2 37 18 c 0,2,3
 37 21 37 21 39 27 c 2,4,-1
 507 976 l 1,5,-1
 194 964 l 1,6,7
 169 965 169 965 169 988 c 1,8,-1
 190 1178 l 2,9,10
 193 1201 193 1201 217 1202 c 2,11,-1
 829 1222 l 1,12,13
 856 1221 856 1221 856 1195 c 1,14,-1
 404 246 l 1,15,-1
 727 262 l 1,16,17
 752 261 752 261 752 236 c 1,18,-1
 729 46 l 2,19,20
 727 32 727 32 722 26 c 128,-1,21
 717 20 717 20 703 19 c 2,22,-1
 59 -4 l 1,0,1
EndSplineSet
EndChar

StartChar: zero
Encoding: 48 48 62
Width: 964
Flags: HMW
HStem: -15 241<417.5 474 417.5 565.5> 1365 241<540 596.5>
VStem: 117 256<342 409.5> 641 255<1170 1247.5>
LayerCount: 2
Fore
SplineSet
416 -15 m 0,0,1
 117 -15 117 -15 117 369 c 0,2,3
 117 466 117 466 135 672 c 128,-1,4
 153 878 153 878 180.5 1030 c 128,-1,5
 208 1182 208 1182 217.5 1228 c 128,-1,6
 227 1274 227 1274 244.5 1331 c 128,-1,7
 262 1388 262 1388 281 1424 c 128,-1,8
 300 1460 300 1460 330 1498 c 128,-1,9
 360 1536 360 1536 397 1557.5 c 0,10,11
 480.465116279 1606 480.465116279 1606 599 1606 c 0,12,13
 896 1606 896 1606 896 1214 c 0,14,15
 896 1116 896 1116 878 912 c 128,-1,16
 860 708 860 708 834 558.5 c 128,-1,17
 808 409 808 409 798 362.5 c 128,-1,18
 788 316 788 316 771 259.5 c 128,-1,19
 754 203 754 203 734.5 166.5 c 128,-1,20
 715 130 715 130 685 92.5 c 128,-1,21
 655 55 655 55 618 33.5 c 0,22,23
 534.534883721 -15 534.534883721 -15 416 -15 c 0,0,1
396.5 745.5 m 128,-1,25
 373 504 373 504 373 365 c 128,-1,26
 373 226 373 226 446 226 c 0,27,28
 489 226 489 226 518 281 c 128,-1,29
 547 336 547 336 570.5 468.5 c 128,-1,30
 594 601 594 601 617.5 843 c 128,-1,31
 641 1085 641 1085 641 1225 c 128,-1,32
 641 1365 641 1365 568 1365 c 0,33,34
 526 1365 526 1365 496.5 1309.5 c 128,-1,35
 467 1254 467 1254 443.5 1120.5 c 128,-1,24
 420 987 420 987 396.5 745.5 c 128,-1,25
EndSplineSet
EndChar

StartChar: period
Encoding: 46 46 63
Width: 585
Flags: HMW
HStem: -11 314<228 284.5>
VStem: 99 316<113.5 178.5>
LayerCount: 2
Fore
SplineSet
138.5 30.5 m 128,-1,1
 99 72 99 72 99 136.5 c 128,-1,2
 99 201 99 201 151.5 252 c 128,-1,3
 204 303 204 303 269.5 303 c 128,-1,4
 335 303 335 303 375 262 c 128,-1,5
 415 221 415 221 415 156 c 128,-1,6
 415 91 415 91 362 40 c 128,-1,7
 309 -11 309 -11 243.5 -11 c 128,-1,0
 178 -11 178 -11 138.5 30.5 c 128,-1,1
EndSplineSet
EndChar

StartChar: question
Encoding: 63 63 64
Width: 819
Flags: HMW
HStem: -11 314<324 381.5> 1368 248<417.5 593>
VStem: 195 317<113.5 178.5> 240 243<455 561 455 588> 554 255<1185.5 1289.5>
LayerCount: 2
Fore
SplineSet
261 429 m 2,0,1
 240 429 240 429 240 450 c 0,2,3
 240 620.256410256 240 620.256410256 290.5 735.5 c 0,4,5
 337.372670807 842.465838509 337.372670807 842.465838509 399 919.5 c 0,6,7
 492.016393443 1035.7704918 492.016393443 1035.7704918 523.008196721 1099.3852459 c 128,-1,8
 554 1163 554 1163 554 1239 c 0,9,10
 554 1368 554 1368 433 1368 c 0,11,12
 381 1368 381 1368 305 1354 c 128,-1,13
 229 1340 229 1340 214 1340 c 0,14,15
 192 1340 192 1340 192 1368 c 1,16,-1
 216 1558 l 2,17,18
 217.552147239 1576.62576687 217.552147239 1576.62576687 241 1585 c 1,19,20
 415 1616 415 1616 497 1616 c 0,21,22
 639 1616 639 1616 724 1521.5 c 128,-1,23
 809 1427 809 1427 809 1290 c 128,-1,24
 809 1153 809 1153 770.5 1064.5 c 128,-1,25
 732 976 732 976 673 899.5 c 128,-1,26
 614 823 614 823 593 793 c 128,-1,27
 572 763 572 763 540.5 706.5 c 0,28,29
 483 603.365079365 483 603.365079365 483 463 c 0,30,31
 483 438 483 438 458 437 c 2,32,-1
 261 429 l 2,0,1
235 30.5 m 128,-1,34
 195 72 195 72 195 136.5 c 128,-1,35
 195 201 195 201 247.5 252 c 128,-1,36
 300 303 300 303 365.5 303 c 128,-1,37
 431 303 431 303 471.5 262 c 128,-1,38
 512 221 512 221 512 156 c 128,-1,39
 512 91 512 91 459 40 c 128,-1,40
 406 -11 406 -11 340.5 -11 c 128,-1,33
 275 -11 275 -11 235 30.5 c 128,-1,34
EndSplineSet
EndChar

StartChar: exclam
Encoding: 33 33 65
Width: 585
Flags: HMW
HStem: -11 314<235 292.5> 1586 20G<534 534>
VStem: 105 317<113.5 178.5>
LayerCount: 2
Fore
SplineSet
559 1581 m 1,0,-1
 410 462 l 2,1,2
 407 437 407 437 385 436 c 2,3,-1
 210 429 l 1,4,5
 188 430 188 430 188 450 c 1,6,-1
 295 1575 l 2,7,8
 296 1596 296 1596 321 1599 c 1,9,-1
 534 1606 l 1,10,11
 559 1605 559 1605 559 1581 c 1,0,-1
145.5 30.5 m 128,-1,13
 105 72 105 72 105 136.5 c 128,-1,14
 105 201 105 201 158 252 c 128,-1,15
 211 303 211 303 276.5 303 c 128,-1,16
 342 303 342 303 382 262 c 128,-1,17
 422 221 422 221 422 155.5 c 128,-1,18
 422 90 422 90 369 39.5 c 128,-1,19
 316 -11 316 -11 251 -11 c 128,-1,12
 186 -11 186 -11 145.5 30.5 c 128,-1,13
EndSplineSet
EndChar

StartChar: comma
Encoding: 44 44 67
Width: 585
Flags: HMW
HStem: -373 21G<145 156.5> 283 20G<228 319.5>
VStem: 99 316<104 178.5> 193 222
LayerCount: 2
Fore
SplineSet
131 -352 m 0,0,1
 131 -339 131 -339 158 -225.5 c 128,-1,2
 185 -112 185 -112 193 -4 c 1,3,4
 147 10 147 10 123 48.5 c 128,-1,5
 99 87 99 87 99 144 c 128,-1,6
 99 201 99 201 151.5 252 c 128,-1,7
 204 303 204 303 271.5 303 c 128,-1,8
 339 303 339 303 377 257 c 128,-1,9
 415 211 415 211 415 144 c 0,10,11
 415 25 415 25 361 -118.5 c 0,12,13
 278.599474721 -337.471766251 278.599474721 -337.471766251 235 -365.5 c 0,14,15
 223.333333333 -373 223.333333333 -373 151 -373 c 0,16,17
 131 -373 131 -373 131 -352 c 0,0,1
EndSplineSet
EndChar

StartChar: semicolon
Encoding: 59 59 68
Width: 585
Flags: HMW
HStem: -373 21G<145 156.5> 303 479<287 319.5> 782 314<317 373.5>
VStem: 99 316<104 178.5> 193 311
LayerCount: 2
Fore
SplineSet
131 -352 m 0,0,1
 131 -339 131 -339 158 -225.5 c 128,-1,2
 185 -112 185 -112 193 -4 c 1,3,4
 147 10 147 10 123 48.5 c 128,-1,5
 99 87 99 87 99 144 c 128,-1,6
 99 201 99 201 151.5 252 c 128,-1,7
 204 303 204 303 271.5 303 c 128,-1,8
 339 303 339 303 377 257 c 128,-1,9
 415 211 415 211 415 144 c 0,10,11
 415 25 415 25 361 -118.5 c 0,12,13
 278.599474721 -337.471766251 278.599474721 -337.471766251 235 -365.5 c 0,14,15
 223.333333333 -373 223.333333333 -373 151 -373 c 0,16,17
 131 -373 131 -373 131 -352 c 0,0,1
227.5 823.5 m 128,-1,19
 188 865 188 865 188 929.5 c 128,-1,20
 188 994 188 994 240.5 1045 c 128,-1,21
 293 1096 293 1096 358.5 1096 c 128,-1,22
 424 1096 424 1096 464 1055 c 128,-1,23
 504 1014 504 1014 504 949 c 128,-1,24
 504 884 504 884 451 833 c 128,-1,25
 398 782 398 782 332.5 782 c 128,-1,18
 267 782 267 782 227.5 823.5 c 128,-1,19
EndSplineSet
EndChar

StartChar: hyphen
Encoding: 45 45 69
Width: 964
Flags: HMW
HStem: 634 21G<179 179> 646 231 869 20G<856 856>
LayerCount: 2
Fore
SplineSet
201 865 m 2,0,-1
 856 889 l 1,1,2
 879 888 879 888 879 864 c 1,3,-1
 858 684 l 2,4,5
 855 660 855 660 833 659 c 2,6,-1
 179 634 l 1,7,8
 155 635 155 635 155 660 c 1,9,-1
 175 839 l 2,10,11
 177.888888889 865 177.888888889 865 201 865 c 2,0,-1
EndSplineSet
EndChar

StartChar: ampersand
Encoding: 38 38 70
Width: 1055
Flags: HMW
HStem: -11 250<416.5 417> 1378 228<595 663>
VStem: 73 255<308.5 408 308.5 428.5> 287 246<1205 1273.5 1205 1324.5> 722 245<1228.5 1300.5>
LayerCount: 2
Fore
SplineSet
447 239 m 1,0,-1
 607 244 l 2,1,2
 627 244 627 244 627 217 c 1,3,-1
 604 25 l 1,4,5
 600 1 600 1 579 -1 c 0,6,7
 479 -11 479 -11 384 -11 c 0,8,9
 230 -11 230 -11 151.5 83.5 c 128,-1,10
 73 178 73 178 73 318 c 0,11,12
 73 476.612903226 73 476.612903226 168.5 606 c 0,13,14
 249.997368421 716.415789474 249.997368421 716.415789474 381 822 c 1,15,16
 287 1062 287 1062 287 1225 c 128,-1,17
 287 1388 287 1388 382 1497 c 128,-1,18
 477 1606 477 1606 654 1606 c 0,19,20
 791 1606 791 1606 879 1516.5 c 128,-1,21
 967 1427 967 1427 967 1288 c 0,22,23
 967 1140.79347826 967 1140.79347826 874 1020.5 c 0,24,25
 795.927440633 919.514841689 795.927440633 919.514841689 663 812 c 1,26,27
 743 635 743 635 862.5 412.5 c 128,-1,28
 982 190 982 190 1060 60 c 0,29,30
 1069 45 1069 45 1069 31 c 0,31,32
 1069 6 1069 6 1043 5 c 2,33,-1
 811 -4 l 1,34,35
 793 -3 793 -3 784 15 c 0,36,37
 577 393 577 393 463 635 c 1,38,39
 328 488 328 488 328 363.5 c 128,-1,40
 328 239 328 239 447 239 c 1,0,-1
533 1236 m 0,41,42
 533 1146 533 1146 586 1000 c 1,43,44
 722 1153 722 1153 722 1270 c 0,45,46
 722 1318 722 1318 699 1348 c 128,-1,47
 676 1378 676 1378 633 1378 c 0,48,49
 533 1378 533 1378 533 1236 c 0,41,42
EndSplineSet
EndChar

StartChar: cent
Encoding: 162 162 71
Width: 964
Flags: HMW
HStem: -216 21G<448 448> -213 425 -11 223<468.5 530.5> 1001 217<554 625> 1001 389 1373 20G<744 752>
VStem: 141 248<383.5 470>
LayerCount: 2
Fore
SplineSet
770 1370 m 1,0,-1
 738 1086 l 2,1,2
 737 1070 737 1070 731.5 1065 c 128,-1,3
 726 1060 726 1060 713 1059 c 2,4,-1
 559 1041 l 1,5,6
 536 1041 536 1041 533 1066 c 1,7,-1
 566 1362 l 2,8,9
 567.723756906 1386.13259669 567.723756906 1386.13259669 592 1388 c 1,10,-1
 744 1393 l 2,11,12
 770 1393 770 1393 770 1370 c 1,0,-1
669 173 m 1,13,-1
 627 -185 l 1,14,15
 625 -211 625 -211 602 -211 c 2,16,-1
 448 -216 l 1,17,18
 424 -215 424 -215 423 -191 c 1,19,-1
 445 15 l 2,20,21
 446.623376623 36.1038961039 446.623376623 36.1038961039 470 40 c 1,22,-1
 669 173 l 1,13,-1
833 1187 m 0,23,24
 855 1179 855 1179 855 1149 c 1,25,-1
 832 968 l 2,26,27
 830 948 830 948 804.5 948 c 128,-1,28
 779 948 779 948 756 958 c 0,29,30
 659 1001 659 1001 595 1001 c 128,-1,31
 531 1001 531 1001 493 948 c 128,-1,32
 455 895 455 895 432 796 c 0,33,34
 389 610.913043478 389 610.913043478 389 458 c 0,35,36
 389 212 389 212 516 212 c 0,37,38
 608 212 608 212 665 235.5 c 128,-1,39
 722 259 722 259 739 259 c 0,40,41
 774 259 774 259 774 229 c 1,42,-1
 753 53 l 2,43,44
 751.25 35.5 751.25 35.5 745.625 31.75 c 128,-1,45
 740 28 740 28 731 24 c 1,46,47
 610 -11 610 -11 503.5 -11 c 128,-1,48
 397 -11 397 -11 335.5 16 c 128,-1,49
 274 43 274 43 238 85.5 c 128,-1,50
 202 128 202 128 179.5 188 c 0,51,52
 141 290.666666667 141 290.666666667 141 441.333333333 c 128,-1,53
 141 592 141 592 160.5 703.5 c 128,-1,54
 180 815 180 815 201.5 885 c 128,-1,55
 223 955 223 955 259 1019.5 c 128,-1,56
 295 1084 295 1084 343 1126 c 0,57,58
 448.142857143 1218 448.142857143 1218 621 1218 c 0,59,60
 737 1218 737 1218 833 1187 c 0,23,24
EndSplineSet
EndChar

StartChar: dollar
Encoding: 36 36 72
Width: 964
Flags: HMW
HStem: -216 21G<351 351> -15 21G<197.5 339> 1315 259 1773 20G<697 705>
VStem: 324 255<1154.5 1234.5 1154.5 1324.5> 489 255<355 463>
LayerCount: 2
Fore
SplineSet
723 1770 m 1,0,-1
 691 1486 l 2,1,2
 690 1470 690 1470 684.5 1465 c 128,-1,3
 679 1460 679 1460 666 1459 c 2,4,-1
 512 1441 l 1,5,6
 489 1441 489 1441 486 1466 c 1,7,-1
 519 1762 l 2,8,9
 520.723756906 1786.13259669 520.723756906 1786.13259669 545 1788 c 1,10,-1
 697 1793 l 2,11,12
 723 1793 723 1793 723 1770 c 1,0,-1
572 173 m 1,13,-1
 530 -185 l 1,14,15
 528 -211 528 -211 505 -211 c 2,16,-1
 351 -216 l 1,17,18
 327 -215 327 -215 326 -191 c 1,19,-1
 348 15 l 2,20,21
 349.623376623 36.1038961039 349.623376623 36.1038961039 373 40 c 1,22,-1
 572 173 l 1,13,-1
207 -15 m 0,23,24
 182 -15 182 -15 182 9 c 1,25,-1
 207 218 l 1,26,27
 211 240 211 240 233 242 c 0,28,29
 389 258 389 258 439 291.5 c 128,-1,30
 489 325 489 325 489 425 c 128,-1,31
 489 525 489 525 438 685.5 c 128,-1,32
 387 846 387 846 372 899 c 0,33,34
 324 1068.6 324 1068.6 324 1177.3 c 128,-1,35
 324 1286 324 1286 359 1363 c 128,-1,36
 394 1440 394 1440 459 1485.5 c 0,37,38
 585.428571429 1574 585.428571429 1574 798 1574 c 0,39,40
 825 1574 825 1574 825 1549 c 1,41,-1
 798 1342 l 2,42,43
 794.377777778 1316.64444444 794.377777778 1316.64444444 773 1315 c 0,44,45
 579 1301.68627451 579 1301.68627451 579 1200 c 0,46,47
 579 1106 579 1106 661.5 830.5 c 128,-1,48
 744 555 744 555 744 436 c 0,49,50
 744 -15 744 -15 207 -15 c 0,23,24
EndSplineSet
EndChar

StartChar: Euro
Encoding: 8364 8364 73
Width: 964
Flags: HMW
HStem: -11 242<558 571> 456 231 808 231 1334 234<694.5 766.5>
VStem: 208 255<318 436.5>
LayerCount: 2
Fore
SplineSet
816 28 m 128,-1,1
 811 23 811 23 718 6 c 128,-1,2
 625 -11 625 -11 530 -11 c 0,3,4
 374 -11 374 -11 291 90 c 128,-1,5
 208 191 208 191 208 365 c 0,6,7
 208 674 208 674 282 1083 c 0,8,9
 320.803448276 1302.8862069 320.803448276 1302.8862069 378.5 1392.5 c 0,10,11
 437.796174414 1484.59831345 437.796174414 1484.59831345 521.5 1521.5 c 0,12,13
 626.975609756 1568 626.975609756 1568 746.487804878 1568 c 128,-1,14
 866 1568 866 1568 906.5 1561.5 c 128,-1,15
 947 1555 947 1555 952 1553.5 c 0,16,17
 965 1549.6 965 1549.6 965 1529 c 1,18,-1
 942 1343 l 2,19,20
 938 1317 938 1317 922 1317 c 128,-1,21
 906 1317 906 1317 848 1325.5 c 128,-1,22
 790 1334 790 1334 754 1334 c 0,23,24
 658 1334 658 1334 608 1285.5 c 128,-1,25
 558 1237 558 1237 533.5 1099.5 c 128,-1,26
 509 962 509 962 486 730.5 c 128,-1,27
 463 499 463 499 463 376 c 0,28,29
 463 231 463 231 591 231 c 0,30,31
 628 231 628 231 720 243.5 c 128,-1,32
 812 256 812 256 825 256 c 0,33,34
 846 256 846 256 846 231 c 1,35,-1
 823 45 l 2,36,0
 821 33 821 33 816 28 c 128,-1,1
159 1027 m 2,37,-1
 814 1051 l 1,38,39
 837 1050 837 1050 837 1026 c 1,40,-1
 816 846 l 2,41,42
 813 822 813 822 791 821 c 2,43,-1
 137 796 l 1,44,45
 113 797 113 797 113 822 c 1,46,-1
 133 1001 l 2,47,48
 135.888888889 1027 135.888888889 1027 159 1027 c 2,37,-1
118 675 m 2,49,-1
 773 699 l 1,50,51
 796 698 796 698 796 674 c 1,52,-1
 775 494 l 2,53,54
 772 470 772 470 750 469 c 2,55,-1
 96 444 l 1,56,57
 72 445 72 445 72 470 c 1,58,-1
 92 649 l 2,59,60
 94.8888888889 675 94.8888888889 675 118 675 c 2,49,-1
EndSplineSet
EndChar

StartChar: yen
Encoding: 165 165 74
Width: 964
Flags: HMW
HStem: -4 21G<326 333> 0 478 247 231 576 231 1539 20G
LayerCount: 2
Fore
SplineSet
438 1539 m 2,0,-1
 552 968 l 1,1,-1
 757 1528 l 2,2,3
 765 1550 765 1550 782 1551 c 2,4,-1
 988 1558 l 1,5,6
 1000 1557 1000 1557 1007.5 1550 c 128,-1,7
 1015 1543 1015 1543 1015 1535 c 1,8,-1
 642 701 l 1,9,-1
 565 28 l 2,10,11
 562 4 562 4 539 3 c 2,12,-1
 333 -4 l 2,13,14
 311 -4 311 -4 311 15 c 1,15,-1
 386 679 l 1,16,-1
 182 1535 l 1,17,18
 182 1549 182 1549 209 1551 c 2,19,-1
 412 1559 l 1,20,21
 434 1558 434 1558 438 1539 c 2,0,-1
202 795 m 2,22,-1
 857 819 l 1,23,24
 880 818 880 818 880 794 c 1,25,-1
 859 614 l 2,26,27
 856 590 856 590 834 589 c 2,28,-1
 180 564 l 1,29,30
 156 565 156 565 156 590 c 1,31,-1
 176 769 l 2,32,33
 178.888888889 795 178.888888889 795 202 795 c 2,22,-1
165 466 m 2,34,-1
 820 490 l 1,35,36
 843 489 843 489 843 465 c 1,37,-1
 822 285 l 2,38,39
 819 261 819 261 797 260 c 2,40,-1
 143 235 l 1,41,42
 119 236 119 236 119 261 c 1,43,-1
 139 440 l 2,44,45
 141.888888889 466 141.888888889 466 165 466 c 2,34,-1
EndSplineSet
EndChar

StartChar: at
Encoding: 64 64 75
Width: 2128
Flags: HMW
HStem: -421 230<869.5 1177> -11 230<976 1005> -11 268 -1 21G<1277 1427> 983 235<1054 1101 923 1151.5> 1401 231<961 1351.5>
VStem: 172 220<293.5 750.5 293.5 803.5> 656 252<417 446.5> 1787 229<613.5 982>
LayerCount: 2
Fore
SplineSet
1534 -123 m 0,0,1
 1558 -123 1558 -123 1558 -149 c 1,2,-1
 1544 -326 l 2,3,4
 1542.36585366 -345.609756098 1542.36585366 -345.609756098 1520 -352 c 0,5,6
 1296.76470588 -421 1296.76470588 -421 1054.38235294 -421 c 128,-1,7
 812 -421 812 -421 605.5 -311 c 128,-1,8
 399 -201 399 -201 285.5 3.5 c 128,-1,9
 172 208 172 208 172 462.5 c 128,-1,10
 172 717 172 717 253.5 932 c 128,-1,11
 335 1147 335 1147 474 1300 c 128,-1,12
 613 1453 613 1453 805.5 1542.5 c 128,-1,13
 998 1632 998 1632 1188 1632 c 128,-1,14
 1378 1632 1378 1632 1525.5 1571.5 c 128,-1,15
 1673 1511 1673 1511 1781.5 1403 c 128,-1,16
 1890 1295 1890 1295 1953 1137 c 128,-1,17
 2016 979 2016 979 2016 818 c 128,-1,18
 2016 657 2016 657 1990.5 543.5 c 128,-1,19
 1965 430 1965 430 1922.5 349.5 c 128,-1,20
 1880 269 1880 269 1819.5 206.5 c 128,-1,21
 1759 144 1759 144 1694 105.5 c 128,-1,22
 1629 67 1629 67 1554.5 42.5 c 0,23,24
 1422.2244898 -1 1422.2244898 -1 1277 -1 c 0,25,26
 1256 0 1256 0 1256 19 c 1,27,-1
 1244 245 l 1,28,29
 1128 -11 1128 -11 928 -11 c 0,30,31
 754.777777778 -11 754.777777778 -11 690.5 167 c 0,32,33
 656 262.538461538 656 262.538461538 656 430.769230769 c 128,-1,34
 656 599 656 599 682.5 732 c 128,-1,35
 709 865 709 865 725 922.5 c 128,-1,36
 741 980 741 980 768.5 1038 c 128,-1,37
 796 1096 796 1096 831 1133.5 c 0,38,39
 909.866666667 1218 909.866666667 1218 1018.43333333 1218 c 128,-1,40
 1127 1218 1127 1218 1176 1174.5 c 128,-1,41
 1225 1131 1225 1131 1259 1044 c 1,42,-1
 1270 1178 l 2,43,44
 1271.86227545 1200.34730539 1271.86227545 1200.34730539 1295 1202 c 2,45,-1
 1492 1209 l 1,46,47
 1519 1208 1519 1208 1519 1183 c 1,48,-1
 1416 257 l 1,49,50
 1605 271 1605 271 1696 399.5 c 128,-1,51
 1787 528 1787 528 1787 791 c 0,52,53
 1787 978 1787 978 1706.5 1117.5 c 128,-1,54
 1626 1257 1626 1257 1489 1329 c 128,-1,55
 1352 1401 1352 1401 1158.5 1401 c 128,-1,56
 965 1401 965 1401 783.5 1280 c 128,-1,57
 602 1159 602 1159 497 953 c 128,-1,58
 392 747 392 747 392 505 c 0,59,60
 392 182 392 182 575.5 -4.5 c 128,-1,61
 759 -191 759 -191 1102 -191 c 0,62,63
 1231 -191 1231 -191 1377 -157 c 128,-1,64
 1523 -123 1523 -123 1534 -123 c 0,0,1
908 458 m 0,65,66
 908 219 908 219 1035 219 c 0,67,68
 1093 219 1093 219 1126.5 270 c 128,-1,69
 1160 321 1160 321 1187 476.5 c 128,-1,70
 1214 632 1214 632 1214 703 c 128,-1,71
 1214 774 1214 774 1213 792.5 c 128,-1,72
 1212 811 1212 811 1209 843.5 c 128,-1,73
 1206 876 1206 876 1198 897 c 128,-1,74
 1190 918 1190 918 1177 939.5 c 0,75,76
 1150.69767442 983 1150.69767442 983 1092.84883721 983 c 128,-1,77
 1035 983 1035 983 1001 931.5 c 128,-1,78
 967 880 967 880 948.5 793 c 0,79,80
 908 602.540540541 908 602.540540541 908 458 c 0,65,66
EndSplineSet
EndChar

StartChar: underscore
Encoding: 95 95 76
Width: 1132
Flags: HMW
HStem: -303 21G<-110 -110> -281 231 -48 20G<1109 1109>
LayerCount: 2
Fore
SplineSet
-110 -303 m 1,0,1
 -135 -301.214285714 -135 -301.214285714 -135 -277 c 1,2,-1
 -114 -97 l 2,3,4
 -111.222222222 -72 -111.222222222 -72 -88 -72 c 2,5,-1
 1109 -28 l 1,6,7
 1132 -29 1132 -29 1132 -55 c 1,8,-1
 1111 -233 l 2,9,10
 1109 -247 1109 -247 1104 -253 c 128,-1,11
 1099 -259 1099 -259 1085 -260 c 2,12,-1
 -110 -303 l 1,0,1
EndSplineSet
EndChar

StartChar: germandbls
Encoding: 223 223 77
Width: 1171
Flags: HMW
HStem: -11 241<690.5 742.5 690.5 819> 994 211 1529 223<640 756>
VStem: 649 249<858.5 953.5 858.5 972.5> 811 263<322 393> 865 264<1373 1433>
LayerCount: 2
Fore
SplineSet
138 1202 m 1,0,-1
 263 1208 l 1,1,-1
 281 1365 l 1,2,3
 299.191786129 1532.7686943 299.191786129 1532.7686943 401.5 1638 c 0,4,5
 512.333333333 1752 512.333333333 1752 709.166666667 1752 c 128,-1,6
 906 1752 906 1752 1017.5 1665.5 c 128,-1,7
 1129 1579 1129 1579 1129 1431 c 0,8,9
 1129 1353 1129 1353 1101.5 1295.5 c 128,-1,10
 1074 1238 1074 1238 1032 1185 c 128,-1,11
 990 1132 990 1132 974.5 1110.5 c 128,-1,12
 959 1089 959 1089 938 1051.5 c 0,13,14
 898 980.071428571 898 980.071428571 898 902.035714286 c 128,-1,15
 898 824 898 824 951.5 713 c 128,-1,16
 1005 602 1005 602 1021 566 c 0,17,18
 1074 446.75 1074 446.75 1074 355 c 0,19,20
 1074 182 1074 182 976 85.5 c 128,-1,21
 878 -11 878 -11 699 -11 c 0,22,23
 522 -11 522 -11 522 31 c 1,24,-1
 546 227 l 1,25,26
 548 252 548 252 563 252 c 0,27,28
 591 252 591 252 632.5 241 c 128,-1,29
 674 230 674 230 716 230 c 128,-1,30
 758 230 758 230 784.5 265.5 c 128,-1,31
 811 301 811 301 811 345.5 c 128,-1,32
 811 390 811 390 798 438.5 c 0,33,34
 783.137463698 493.948693127 783.137463698 493.948693127 716.068731849 643.974346563 c 128,-1,35
 649 794 649 794 649 906 c 0,36,37
 649 1021.4 649 1021.4 712.5 1123 c 0,38,39
 735 1159 735 1159 770 1204.5 c 128,-1,40
 805 1250 805 1250 820.5 1272 c 0,41,42
 865 1335.16129032 865 1335.16129032 865 1394.58064516 c 128,-1,43
 865 1454 865 1454 822.5 1491.5 c 128,-1,44
 780 1529 780 1529 694.5 1529 c 128,-1,45
 609 1529 609 1529 566 1472.5 c 128,-1,46
 523 1416 523 1416 508 1279 c 2,47,-1
 377 30 l 2,48,49
 374 3 374 3 351 3 c 2,50,-1
 150 -4 l 1,51,52
 129 -2 129 -2 129 15 c 1,53,-1
 239 997 l 1,54,-1
 119 992 l 1,55,56
 93 993 93 993 93 1017 c 1,57,-1
 112 1178 l 2,58,59
 115 1202 115 1202 138 1202 c 1,0,-1
EndSplineSet
EndChar

StartChar: sterling
Encoding: 163 163 78
Width: 964
Flags: HMW
HStem: -4 21G<107 107> 7 259 642 254 1329 245<672.5 745>
LayerCount: 2
Fore
SplineSet
168 628 m 1,0,1
 143 629.785714286 143 629.785714286 143 654 c 1,2,-1
 167 857 l 2,3,4
 169.777777778 882 169.777777778 882 193 882 c 2,5,-1
 265 884 l 1,6,-1
 285 1061 l 1,7,8
 311.681440443 1284.45706371 311.681440443 1284.45706371 362 1381.5 c 0,9,10
 461.814814815 1574 461.814814815 1574 717 1574 c 0,11,12
 812 1574 812 1574 870 1566.5 c 128,-1,13
 928 1559 928 1559 933.5 1554.5 c 128,-1,14
 939 1550 939 1550 939 1533 c 1,15,-1
 916 1338 l 2,16,17
 913 1312 913 1312 898 1312 c 128,-1,18
 883 1312 883 1312 827 1320.5 c 128,-1,19
 771 1329 771 1329 719.5 1329 c 128,-1,20
 668 1329 668 1329 632.5 1311.5 c 0,21,22
 559.533009136 1275.53035662 559.533009136 1275.53035662 539 1087 c 2,23,-1
 518 893 l 1,24,-1
 731 900 l 1,25,26
 754 899 754 899 754 874 c 1,27,-1
 729 672 l 2,28,29
 726 647 726 647 704 646 c 2,30,-1
 491 639 l 1,31,-1
 450 259 l 1,32,-1
 834 273 l 1,33,34
 857 272 857 272 857 247 c 1,35,-1
 834 45 l 2,36,37
 831 20 831 20 809 19 c 2,38,-1
 107 -4 l 1,39,40
 82 -3 82 -3 82 20 c 1,41,-1
 105 223 l 2,42,43
 107 236 107 236 111.5 241.5 c 128,-1,44
 116 247 116 247 131 248 c 2,45,-1
 194 251 l 1,46,-1
 237 631 l 1,47,-1
 168 628 l 1,0,1
EndSplineSet
EndChar

StartChar: periodcentered
Encoding: 183 183 79
Width: 585
Flags: HMW
HStem: 556 314<302 358.5>
VStem: 173 316<680.5 745.5>
LayerCount: 2
Fore
SplineSet
212.5 597.5 m 128,-1,1
 173 639 173 639 173 703.5 c 128,-1,2
 173 768 173 768 225.5 819 c 128,-1,3
 278 870 278 870 343.5 870 c 128,-1,4
 409 870 409 870 449 829 c 128,-1,5
 489 788 489 788 489 723 c 128,-1,6
 489 658 489 658 436 607 c 128,-1,7
 383 556 383 556 317.5 556 c 128,-1,0
 252 556 252 556 212.5 597.5 c 128,-1,1
EndSplineSet
EndChar

StartChar: bullet
Encoding: 8226 8226 80
Width: 585
Flags: HMW
HStem: 512 402<298 372>
VStem: 134 405<671 754.5>
LayerCount: 2
Fore
SplineSet
185 564 m 128,-1,1
 134 616 134 616 134 700 c 128,-1,2
 134 784 134 784 200.5 849 c 128,-1,3
 267 914 267 914 351 914 c 128,-1,4
 435 914 435 914 487 861 c 128,-1,5
 539 808 539 808 539 725 c 128,-1,6
 539 642 539 642 471 577 c 128,-1,7
 403 512 403 512 319.5 512 c 128,-1,0
 236 512 236 512 185 564 c 128,-1,1
EndSplineSet
EndChar

StartChar: ae
Encoding: 230 230 81
Width: 1494
Flags: HMW
HStem: -11 223<963.5 1025> 545 176 995 223<508 568.5>
VStem: 98 234<301 396.5 301 419> 1173 232<817.5 863>
LayerCount: 2
Fore
SplineSet
674 191 m 1,0,1
 570.93877551 -11 570.93877551 -11 383 -11 c 0,2,3
 246 -11 246 -11 172 74.5 c 128,-1,4
 98 160 98 160 98 314 c 0,5,6
 98 642 98 642 444 685 c 0,7,8
 526 695 526 695 657 703 c 1,9,10
 664 749 664 749 664 788.5 c 128,-1,11
 664 828 664 828 656.5 862.5 c 128,-1,12
 649 897 649 897 632 928 c 0,13,14
 595.258064516 995 595.258064516 995 502.129032258 995 c 128,-1,15
 409 995 409 995 347.5 971.5 c 128,-1,16
 286 948 286 948 271 948 c 0,17,18
 238 948 238 948 238 978 c 1,19,-1
 258 1154 l 2,20,21
 259 1169 259 1169 264 1174 c 128,-1,22
 269 1179 269 1179 296.5 1187.5 c 128,-1,23
 324 1196 324 1196 406.5 1207 c 128,-1,24
 489 1218 489 1218 546 1218 c 0,25,26
 721 1218 721 1218 805 1093 c 1,27,28
 914 1218 914 1218 1102 1218 c 0,29,30
 1250 1218 1250 1218 1327.5 1119.5 c 128,-1,31
 1405 1021 1405 1021 1405 851.5 c 128,-1,32
 1405 682 1405 682 1385 581 c 0,33,34
 1380 554 1380 554 1354 553 c 2,35,-1
 865 537 l 1,36,37
 862 492 862 492 862 457 c 0,38,39
 862 344 862 344 901.5 278 c 128,-1,40
 941 212 941 212 1011 212 c 0,41,42
 1109 212 1109 212 1172.5 235.5 c 128,-1,43
 1236 259 1236 259 1249 259 c 0,44,45
 1280 259 1280 259 1280 229 c 1,46,-1
 1260 53 l 2,47,48
 1259 38 1259 38 1254.5 33.5 c 128,-1,49
 1250 29 1250 29 1237 24 c 1,50,51
 1116 -11 1116 -11 972 -11 c 0,52,53
 748 -11 748 -11 674 191 c 1,0,1
450 219 m 0,54,55
 530.2 219 530.2 219 568 273 c 0,56,57
 623.582089552 352.402985075 623.582089552 352.402985075 640 533 c 1,58,59
 436.425287356 533 436.425287356 533 371.5 461.5 c 0,60,61
 332 418 332 418 332 348 c 0,62,63
 332 219 332 219 450 219 c 0,54,55
887 748 m 1,64,-1
 882 715 l 1,65,-1
 1136 728 l 2,66,67
 1166 729 1166 729 1169.5 760.5 c 128,-1,68
 1173 792 1173 792 1173 825.5 c 128,-1,69
 1173 859 1173 859 1168.5 885.5 c 128,-1,70
 1164 912 1164 912 1153.5 939.5 c 0,71,72
 1130.01818182 1001 1130.01818182 1001 1062.50909091 1001 c 128,-1,73
 995 1001 995 1001 953.5 948.5 c 128,-1,74
 912 896 912 896 887 748 c 1,64,-1
EndSplineSet
EndChar

StartChar: oe
Encoding: 339 339 82
Width: 1535
Flags: HMW
HStem: -15 223<1003 1054.5> 546 158 1011 207<527.5 616.5>
VStem: 131 241<349.5 440.5 349.5 447.5> 1214 229<817.5 863>
LayerCount: 2
Fore
SplineSet
490 -15 m 0,0,1
 131 -15 131 -15 131 406 c 0,2,3
 131 537 131 537 150 673.5 c 128,-1,4
 169 810 169 810 185 877 c 128,-1,5
 201 944 201 944 231.5 1012 c 128,-1,6
 262 1080 262 1080 305 1122.5 c 0,7,8
 401.623529412 1218 401.623529412 1218 579.311764706 1218 c 128,-1,9
 757 1218 757 1218 831 1085 c 1,10,11
 944 1218 944 1218 1141 1218 c 0,12,13
 1288 1218 1288 1218 1365.5 1119.5 c 128,-1,14
 1443 1021 1443 1021 1443 853.5 c 128,-1,15
 1443 686 1443 686 1425 584 c 1,16,17
 1418 556 1418 556 1392 555 c 2,18,-1
 906 538 l 1,19,20
 903 493 903 493 903 457 c 0,21,22
 903 343 903 343 941.5 275.5 c 128,-1,23
 980 208 980 208 1051 208 c 0,24,25
 1149 208 1149 208 1212 232 c 128,-1,26
 1275 256 1275 256 1288.5 256 c 0,27,28
 1320 256 1320 256 1320 226 c 1,29,-1
 1301 48 l 2,30,31
 1299 27 1299 27 1265 17 c 128,-1,32
 1231 7 1231 7 1152.5 -4 c 128,-1,33
 1074 -15 1074 -15 1012 -15 c 0,34,35
 836 -15 836 -15 747 113 c 1,36,37
 659 -15 659 -15 490 -15 c 0,0,1
696 831 m 0,38,39
 696 1011 696 1011 573 1011 c 0,40,41
 506 1011 506 1011 471 953 c 0,42,43
 418.937318791 866.72469971 418.937318791 866.72469971 386.5 581.5 c 0,44,45
 372 454 372 454 372 408 c 128,-1,46
 372 362 372 362 373.5 338 c 128,-1,47
 375 314 375 314 382 283.5 c 128,-1,48
 389 253 389 253 401.5 234.5 c 0,49,50
 432.243243243 189 432.243243243 189 495.621621622 189 c 128,-1,51
 559 189 559 189 594.5 245.5 c 128,-1,52
 630 302 630 302 650 426 c 1,53,54
 696 736 696 736 696 831 c 0,38,39
1109 1001 m 0,55,56
 1036 1001 1036 1001 990.976815547 943.500511422 c 128,-1,57
 945.953631094 886.001022844 945.953631094 886.001022844 920 700 c 1,58,-1
 1161 708 l 2,59,60
 1187 709 1187 709 1197 719 c 0,61,62
 1214 736 1214 736 1214 802.5 c 128,-1,63
 1214 869 1214 869 1206.5 904.5 c 128,-1,64
 1199 940 1199 940 1174 970.5 c 128,-1,65
 1149 1001 1149 1001 1109 1001 c 0,55,56
EndSplineSet
EndChar

StartChar: section
Encoding: 167 167 83
Width: 1058
Flags: HMW
HStem: -374 242<290.5 342 290.5 429> 783 214 1351 258<749 779.5>
VStem: 139 249<622.5 705 622.5 748> 420 266 686 246<461.5 551>
LayerCount: 2
Fore
SplineSet
875 1346 m 2,0,-1
 771 1351 l 1,1,2
 733 1351 733 1351 712 1337 c 128,-1,3
 691 1323 691 1323 691 1286 c 0,4,5
 691 1184 691 1184 801 928 c 0,6,7
 932 621.340909091 932 621.340909091 932 530 c 0,8,9
 932 366 932 366 852.5 274.5 c 128,-1,10
 773 183 773 183 640 164 c 1,11,12
 686 69 686 69 686 -8 c 0,13,14
 686 -180 686 -180 587 -277 c 128,-1,15
 488 -374 488 -374 309 -374 c 0,16,17
 134 -374 134 -374 134 -331 c 1,18,-1
 158 -135 l 1,19,20
 160 -110 160 -110 174 -110 c 0,21,22
 200 -110 200 -110 238 -121 c 128,-1,23
 276 -132 276 -132 317 -132 c 128,-1,24
 358 -132 358 -132 384 -97 c 128,-1,25
 410 -62 410 -62 410 -15 c 128,-1,26
 410 32 410 32 389.5 85.5 c 0,27,28
 363.817155756 152.525959368 363.817155756 152.525959368 300.908577878 253.262979684 c 128,-1,29
 238 354 238 354 213 398 c 128,-1,30
 188 442 188 442 163.5 510.5 c 128,-1,31
 139 579 139 579 139 637 c 0,32,33
 139 801 139 801 239.5 898.5 c 128,-1,34
 340 996 340 996 501 997 c 1,35,36
 420 1182 420 1182 420 1311 c 128,-1,37
 420 1440 420 1440 507 1524.5 c 128,-1,38
 594 1609 594 1609 764 1609 c 0,39,40
 842 1609 842 1609 876.5 1601.5 c 128,-1,41
 911 1594 911 1594 911 1574 c 1,42,-1
 894 1375 l 2,43,44
 892 1346 892 1346 875 1346 c 2,0,-1
423 752.5 m 128,-1,46
 388 722 388 722 388 673.5 c 128,-1,47
 388 625 388 625 410 569 c 0,48,49
 439.969387755 492.714285714 439.969387755 492.714285714 524 362 c 1,50,51
 541 358 541 358 561 358 c 0,52,53
 611 358 611 358 648.5 399 c 128,-1,54
 686 440 686 440 686 519.5 c 128,-1,55
 686 599 686 599 604 778 c 1,56,57
 529 783 529 783 493.5 783 c 128,-1,45
 458 783 458 783 423 752.5 c 128,-1,46
EndSplineSet
EndChar

StartChar: bracketleft
Encoding: 91 91 84
Width: 681
Flags: HMW
HStem: -446 21G<127 134> -438 237 1501 229 1717 20G<799 799>
LayerCount: 2
Fore
SplineSet
777 1505 m 2,0,-1
 567 1498 l 1,1,-1
 377 -205 l 1,2,-1
 578 -198 l 1,3,4
 603 -199 603 -199 603 -223 c 1,5,-1
 582 -405 l 2,6,7
 578.244444444 -429.411111111 578.244444444 -429.411111111 556 -431 c 2,8,-1
 134 -446 l 2,9,10
 112 -446 112 -446 112 -426 c 1,11,-1
 351 1699 l 2,12,13
 354 1722 354 1722 376 1723 c 2,14,-1
 799 1737 l 1,15,16
 825 1736 825 1736 825 1711 c 1,17,-1
 803 1531 l 2,18,19
 799.244444444 1506.58888889 799.244444444 1506.58888889 777 1505 c 2,0,-1
EndSplineSet
EndChar

StartChar: bracketright
Encoding: 93 93 85
Width: 681
Flags: HMW
HStem: -438 21G<-68 -68> -431 229 1500 237 1725 20G<597 619>
LayerCount: 2
Fore
SplineSet
-46 -206 m 2,0,-1
 164 -199 l 1,1,-1
 354 1504 l 1,2,-1
 153 1497 l 1,3,4
 128 1498 128 1498 128 1522 c 1,5,-1
 149 1704 l 2,6,7
 152.755555556 1728.41111111 152.755555556 1728.41111111 175 1730 c 2,8,-1
 597 1745 l 2,9,10
 619 1745 619 1745 619 1725 c 1,11,-1
 380 -400 l 2,12,13
 377 -423 377 -423 355 -424 c 2,14,-1
 -68 -438 l 1,15,16
 -94 -437 -94 -437 -94 -412 c 1,17,-1
 -72 -232 l 2,18,19
 -68.2444444444 -207.588888889 -68.2444444444 -207.588888889 -46 -206 c 2,0,-1
EndSplineSet
EndChar

StartChar: parenleft
Encoding: 40 40 86
Width: 694
Flags: HMW
HStem: -427 236<515 536.5> 1513 230<726.5 796>
VStem: 183 244<-89.5 74>
LayerCount: 2
Fore
SplineSet
527 -427 m 0,0,1
 358 -427 358 -427 270.5 -329.5 c 128,-1,2
 183 -232 183 -232 183 -46.5 c 128,-1,3
 183 139 183 139 226 542 c 128,-1,4
 269 945 269 945 304 1146 c 128,-1,5
 339 1347 339 1347 354.5 1408 c 128,-1,6
 370 1469 370 1469 404 1541.5 c 128,-1,7
 438 1614 438 1614 485.5 1652 c 0,8,9
 599.25 1743 599.25 1743 803 1743 c 0,10,11
 820 1743 820 1743 826.5 1737 c 128,-1,12
 833 1731 833 1731 833 1713 c 1,13,-1
 811 1538 l 2,14,15
 808 1513 808 1513 789 1513 c 0,16,17
 691 1513 691 1513 638.5 1458 c 128,-1,18
 586 1403 586 1403 554.5 1219 c 128,-1,19
 523 1035 523 1035 475 632.5 c 128,-1,20
 427 230 427 230 427 -30 c 0,21,22
 427 -191 427 -191 554 -191 c 0,23,24
 575 -191 575 -191 575 -216 c 1,25,-1
 552 -401 l 2,26,27
 549 -427 549 -427 527 -427 c 0,0,1
EndSplineSet
EndChar

StartChar: parenright
Encoding: 41 41 87
Width: 694
Flags: HMW
HStem: -427 230<-57 12.5 -57 124.5> 1507 236<202.5 224>
VStem: 312 244<1242 1405.5>
LayerCount: 2
Fore
SplineSet
212 1743 m 0,0,1
 381 1743 381 1743 468.5 1645.5 c 128,-1,2
 556 1548 556 1548 556 1362.5 c 128,-1,3
 556 1177 556 1177 513 774 c 128,-1,4
 470 371 470 371 435 170 c 128,-1,5
 400 -31 400 -31 384.5 -92 c 128,-1,6
 369 -153 369 -153 335 -225.5 c 128,-1,7
 301 -298 301 -298 253.5 -336 c 0,8,9
 139.75 -427 139.75 -427 -64 -427 c 0,10,11
 -81 -427 -81 -427 -87.5 -421 c 128,-1,12
 -94 -415 -94 -415 -94 -397 c 1,13,-1
 -72 -222 l 2,14,15
 -69 -197 -69 -197 -50 -197 c 0,16,17
 48 -197 48 -197 100.5 -142 c 128,-1,18
 153 -87 153 -87 184.5 97 c 128,-1,19
 216 281 216 281 264 683.5 c 128,-1,20
 312 1086 312 1086 312 1346 c 0,21,22
 312 1507 312 1507 185 1507 c 0,23,24
 164 1507 164 1507 164 1532 c 1,25,-1
 187 1717 l 2,26,27
 190 1743 190 1743 212 1743 c 0,0,1
EndSplineSet
EndChar

StartChar: braceleft
Encoding: 123 123 88
Width: 762
Flags: HMW
HStem: -427 236<587 623> 1513 230<813.5 883.5>
VStem: 271 243<-57.5 -39.5> 309 234<374 438>
LayerCount: 2
Fore
SplineSet
209 748 m 1,0,1
 272 748 272 748 316 785.5 c 128,-1,2
 360 823 360 823 368 891 c 0,3,4
 410 1266 410 1266 461 1470 c 0,5,6
 529 1743 529 1743 890 1743 c 0,7,8
 906 1743 906 1743 912.5 1737 c 128,-1,9
 919 1731 919 1731 919 1713 c 1,10,-1
 898 1538 l 1,11,12
 893 1513 893 1513 877 1513 c 0,13,14
 700 1513 700 1513 674 1363 c 0,15,16
 626 1096 626 1096 601 873 c 0,17,18
 579 674 579 674 374 662 c 1,19,20
 471 636 471 636 507 580 c 128,-1,21
 543 524 543 524 543 430.5 c 128,-1,22
 543 337 543 337 528.5 209 c 128,-1,23
 514 81 514 81 514 -15 c 0,24,25
 514 -191 514 -191 641 -191 c 0,26,27
 663 -191 663 -191 663 -216 c 1,28,-1
 639 -401 l 1,29,30
 635.105263158 -418.526315789 635.105263158 -418.526315789 629.052631579 -422.763157895 c 128,-1,31
 623 -427 623 -427 613 -427 c 0,32,33
 445 -427 445 -427 358 -329.5 c 128,-1,34
 271 -232 271 -232 271 -65 c 0,35,36
 271 6 271 6 290 167 c 128,-1,37
 309 328 309 328 309 398 c 0,38,39
 309 551 309 551 191 551 c 0,40,41
 167 551 167 551 167 576 c 1,42,-1
 182 723 l 2,43,44
 185 744 185 744 209 748 c 1,0,1
EndSplineSet
EndChar

StartChar: braceright
Encoding: 125 125 89
Width: 762
Flags: HMW
HStem: -427 230<-66.5 3.5 -66.5 87> 1507 236<194 230>
VStem: 274 234<878 942> 303 243<1355.5 1373.5>
LayerCount: 2
Fore
SplineSet
608 568 m 1,0,1
 545 568 545 568 501 530.5 c 128,-1,2
 457 493 457 493 449 425 c 0,3,4
 407 50 407 50 356 -154 c 0,5,6
 288 -427 288 -427 -73 -427 c 0,7,8
 -89 -427 -89 -427 -95.5 -421 c 128,-1,9
 -102 -415 -102 -415 -102 -397 c 1,10,-1
 -81 -222 l 1,11,12
 -76 -197 -76 -197 -60 -197 c 0,13,14
 117 -197 117 -197 143 -47 c 0,15,16
 191 220 191 220 216 443 c 0,17,18
 238 642 238 642 443 654 c 1,19,20
 346 680 346 680 310 736 c 128,-1,21
 274 792 274 792 274 885.5 c 128,-1,22
 274 979 274 979 288.5 1107 c 128,-1,23
 303 1235 303 1235 303 1331 c 0,24,25
 303 1507 303 1507 176 1507 c 0,26,27
 154 1507 154 1507 154 1532 c 1,28,-1
 178 1717 l 1,29,30
 181.894736842 1734.52631579 181.894736842 1734.52631579 187.947368421 1738.76315789 c 128,-1,31
 194 1743 194 1743 204 1743 c 0,32,33
 372 1743 372 1743 459 1645.5 c 128,-1,34
 546 1548 546 1548 546 1381 c 0,35,36
 546 1310 546 1310 527 1149 c 128,-1,37
 508 988 508 988 508 918 c 0,38,39
 508 765 508 765 626 765 c 0,40,41
 650 765 650 765 650 740 c 1,42,-1
 635 593 l 2,43,44
 632 572 632 572 608 568 c 1,0,1
EndSplineSet
EndChar

StartChar: emdash
Encoding: 8212 8212 90
Width: 2534
Flags: HMW
HStem: 654 21G<196 196> 692 231 943 20G<2419 2419>
LayerCount: 2
Fore
SplineSet
217 884 m 2,0,-1
 2419 963 l 1,1,2
 2443 962 2443 962 2443 937 c 1,3,-1
 2421 758 l 2,4,5
 2417.37777778 732.644444444 2417.37777778 732.644444444 2396 731 c 2,6,-1
 196 654 l 1,7,8
 170 655 170 655 170 679 c 1,9,-1
 191 860 l 2,10,11
 194 884 194 884 217 884 c 2,0,-1
EndSplineSet
EndChar

StartChar: endash
Encoding: 8211 8211 91
Width: 1407
Flags: HMW
HStem: 654 21G<196 196> 672 230 901 20G<1287 1287>
LayerCount: 2
Fore
SplineSet
217 884 m 2,0,-1
 1287 921 l 1,1,2
 1312 920 1312 920 1312 896 c 1,3,-1
 1289 716 l 2,4,5
 1287 703 1287 703 1282.5 697.5 c 128,-1,6
 1278 692 1278 692 1265 691 c 2,7,-1
 196 654 l 1,8,9
 170 655 170 655 170 679 c 1,10,-1
 191 860 l 2,11,12
 194 884 194 884 217 884 c 2,0,-1
EndSplineSet
EndChar

StartChar: acute
Encoding: 180 180 92
Width: 877
Flags: HMW
HStem: 1226 21G<269 269> 1228 460 1672 20G<604 604>
LayerCount: 2
Fore
SplineSet
630 1665 m 1,0,-1
 438 1253 l 2,1,2
 428 1233 428 1233 403 1231 c 1,3,-1
 269 1226 l 1,4,5
 247 1228 247 1228 247 1246 c 1,6,-1
 382 1658 l 2,7,8
 391 1684 391 1684 415 1685 c 2,9,-1
 604 1692 l 1,10,11
 630 1690 630 1690 630 1665 c 1,0,-1
EndSplineSet
EndChar

StartChar: grave
Encoding: 96 96 93
Width: 877
Flags: HMW
HStem: 1219 21G<463 471> 1221 456 1661 20G<477 477>
LayerCount: 2
Fore
SplineSet
509 1653 m 2,0,-1
 612 1252 l 1,1,2
 612 1224 612 1224 588 1223 c 2,3,-1
 471 1219 l 2,4,5
 447 1219 447 1219 438 1241 c 2,6,-1
 265 1649 l 1,7,8
 265 1673 265 1673 288 1674 c 2,9,-1
 477 1681 l 1,10,11
 502 1680 502 1680 509 1653 c 2,0,-1
EndSplineSet
EndChar

StartChar: circumflex
Encoding: 710 710 94
Width: 877
Flags: HMW
HStem: 1237 21G<163 163 581 581> 1240 452 1676 20G<580 580>
LayerCount: 2
Fore
SplineSet
613 1670 m 2,0,-1
 734 1271 l 1,1,2
 734 1256 734 1256 729.5 1249.5 c 128,-1,3
 725 1243 725 1243 710 1242 c 2,4,-1
 581 1237 l 1,5,6
 555 1239 555 1239 549 1257 c 2,7,-1
 473 1483 l 1,8,-1
 331 1267 l 2,9,10
 316 1244 316 1244 295 1243 c 2,11,-1
 163 1237 l 1,12,13
 142 1239 142 1239 142 1257 c 1,14,-1
 369 1663 l 2,15,16
 382 1688 382 1688 403 1689 c 2,17,-1
 580 1696 l 1,18,19
 605 1695 605 1695 613 1670 c 2,0,-1
EndSplineSet
EndChar

StartChar: dieresis
Encoding: 168 168 95
Width: 877
Flags: HMW
HStem: 1316 262<213.5 261 612 659.5>
VStem: 106 264<1419.5 1473> 505 265<1420 1474.5>
LayerCount: 2
Fore
SplineSet
139.5 1350.5 m 128,-1,1
 106 1385 106 1385 106 1438.5 c 128,-1,2
 106 1492 106 1492 150 1535 c 128,-1,3
 194 1578 194 1578 248.5 1578 c 128,-1,4
 303 1578 303 1578 336.5 1543.5 c 128,-1,5
 370 1509 370 1509 370 1455 c 128,-1,6
 370 1401 370 1401 325.5 1358.5 c 128,-1,7
 281 1316 281 1316 227 1316 c 128,-1,0
 173 1316 173 1316 139.5 1350.5 c 128,-1,1
538.5 1351 m 128,-1,9
 505 1386 505 1386 505 1440 c 128,-1,10
 505 1494 505 1494 548.5 1536 c 128,-1,11
 592 1578 592 1578 646.5 1578 c 128,-1,12
 701 1578 701 1578 735.5 1543.5 c 128,-1,13
 770 1509 770 1509 770 1455 c 128,-1,14
 770 1401 770 1401 724.5 1358.5 c 128,-1,15
 679 1316 679 1316 625.5 1316 c 128,-1,8
 572 1316 572 1316 538.5 1351 c 128,-1,9
EndSplineSet
EndChar

StartChar: macron
Encoding: 175 175 96
Width: 877
Flags: HMW
HStem: 1391 21G 1401 186 1578 20G<760 760>
LayerCount: 2
Fore
SplineSet
136 1576 m 2,0,-1
 760 1598 l 1,1,2
 783 1597 783 1597 783 1573 c 1,3,-1
 767 1438 l 2,4,5
 763.525773196 1413.68041237 763.525773196 1413.68041237 740 1412 c 2,6,-1
 118 1391 l 1,7,8
 94 1392 94 1392 94 1415 c 1,9,-1
 110 1550 l 2,10,11
 112.888888889 1576 112.888888889 1576 136 1576 c 2,0,-1
EndSplineSet
EndChar

StartChar: tilde
Encoding: 732 732 97
Width: 877
Flags: HMW
HStem: 1294 258<292 582.5> 1356 196<292 321.5>
LayerCount: 2
Fore
SplineSet
345 1552 m 0,0,1
 390 1552 390 1552 461 1520 c 128,-1,2
 532 1488 532 1488 571 1488 c 128,-1,3
 610 1488 610 1488 667 1512.5 c 128,-1,4
 724 1537 724 1537 743 1537 c 128,-1,5
 762 1537 762 1537 764 1518 c 2,6,-1
 770 1443 l 1,7,8
 770 1424 770 1424 746 1402 c 1,9,10
 638 1294 638 1294 529 1294 c 0,11,12
 483 1294 483 1294 413.5 1325 c 128,-1,13
 344 1356 344 1356 304.5 1356 c 128,-1,14
 265 1356 265 1356 206.5 1331.5 c 128,-1,15
 148 1307 148 1307 131 1307 c 128,-1,16
 114 1307 114 1307 112 1326 c 2,17,-1
 106 1401 l 1,18,19
 106 1420 106 1420 128 1442 c 0,20,21
 238 1552 238 1552 345 1552 c 0,0,1
EndSplineSet
EndChar

StartChar: dotlessi
Encoding: 305 305 98
Width: 546
Flags: HMW
HStem: -4 21G<128 128> 1189 20G<458 458>
LayerCount: 2
Fore
SplineSet
485 1183 m 1,0,-1
 355 30 l 2,1,2
 353 16 353 16 348 10 c 128,-1,3
 343 4 343 4 329 3 c 2,4,-1
 128 -4 l 1,5,6
 106 -2 106 -2 106 15 c 1,7,-1
 238 1178 l 1,8,9
 241.727272727 1200.36363636 241.727272727 1200.36363636 263 1202 c 2,10,-1
 458 1209 l 1,11,12
 485 1207 485 1207 485 1183 c 1,0,-1
EndSplineSet
EndChar

StartChar: dotlessj
Encoding: 567 567 99
Width: 544
Flags: HMW
HStem: -506 243<-108.5 -40.5 -108.5 24.5> 1193 20G<457 457>
LayerCount: 2
Fore
SplineSet
97 -98 m 1,0,-1
 236 1178 l 1,1,2
 239.727272727 1200.36363636 239.727272727 1200.36363636 261 1202 c 2,3,-1
 457 1213 l 1,4,5
 484 1211 484 1211 484 1187 c 1,6,-1
 345 -46 l 2,7,8
 319 -284 319 -284 207.5 -395 c 128,-1,9
 96 -506 96 -506 -121 -506 c 0,10,11
 -145 -506 -145 -506 -145 -482 c 1,12,-1
 -122 -287 l 2,13,14
 -120 -263 -120 -263 -102 -263 c 0,15,16
 -10 -263 -10 -263 38 -222.5 c 128,-1,17
 86 -182 86 -182 97 -98 c 1,0,-1
EndSplineSet
EndChar

StartChar: IJ
Encoding: 306 306 100
Width: 1233
Flags: HMW
HStem: -11 243<572.5 679.5 572.5 711.5> -4 21G<115.5 122> 1538 20G<499 499 1194 1194>
LayerCount: 2
Fore
SplineSet
525 1534 m 1,0,-1
 354 28 l 2,1,2
 351 4 351 4 328 3 c 2,3,-1
 122 -4 l 2,4,5
 100 -4 100 -4 100 15 c 1,6,-1
 273 1528 l 1,7,8
 276.56626506 1549.39759036 276.56626506 1549.39759036 299 1551 c 2,9,-1
 499 1558 l 1,10,11
 525 1557 525 1557 525 1534 c 1,0,-1
1220 1534 m 1,12,-1
 1097 438 l 2,13,14
 1069.23501596 182.165504197 1069.23501596 182.165504197 927 82 c 0,15,16
 794.94 -11 794.94 -11 557 -11 c 0,17,18
 532 -11 532 -11 532 13 c 1,19,-1
 556 208 l 1,20,21
 561 232 561 232 581 232 c 0,22,23
 763.355263158 232 763.355263158 232 812.5 315 c 0,24,25
 835 353 835 353 842 416 c 2,26,-1
 968 1528 l 2,27,28
 970 1540 970 1540 974.5 1545 c 128,-1,29
 979 1550 979 1550 993 1551 c 2,30,-1
 1194 1558 l 1,31,32
 1220 1556 1220 1556 1220 1534 c 1,12,-1
EndSplineSet
EndChar

StartChar: Eth
Encoding: 208 208 101
Width: 1058
Flags: HMW
HStem: -4 21G<132 132> 546 231 1338 230<598.5 636.5>
VStem: 745 257<1102 1229.5>
LayerCount: 2
Fore
SplineSet
72 769 m 2,0,-1
 561 786 l 1,1,2
 585 785 585 785 585 761 c 1,3,-1
 563 581 l 2,4,5
 561 568 561 568 556.5 562.5 c 128,-1,6
 552 557 552 557 539 556 c 2,7,-1
 50 537 l 1,8,9
 26 540 26 540 26 564 c 1,10,-1
 45 743 l 2,11,12
 47.8888888889 769 47.8888888889 769 72 769 c 2,0,-1
290 1545 m 128,-1,14
 295 1550 295 1550 391 1559 c 128,-1,15
 487 1568 487 1568 654.5 1568 c 128,-1,16
 822 1568 822 1568 912 1471.5 c 128,-1,17
 1002 1375 1002 1375 1002 1207 c 0,18,19
 1002 890 1002 890 931 477 c 0,20,21
 892.518240343 257.653969957 892.518240343 257.653969957 808 151 c 0,22,23
 730.092266746 52.687860417 730.092266746 52.687860417 563.5 22.5 c 0,24,25
 489 9 489 9 381 5 c 2,26,-1
 132 -4 l 1,27,28
 110 -3 110 -3 110 15 c 1,29,-1
 283 1528 l 2,30,13
 285 1540 285 1540 290 1545 c 128,-1,14
512 1335 m 1,31,-1
 390 246 l 1,32,33
 539 259 539 259 596.5 304 c 128,-1,34
 654 349 654 349 677 475 c 128,-1,35
 700 601 700 601 722.5 819 c 128,-1,36
 745 1037 745 1037 745 1176 c 0,37,38
 745 1258 745 1258 705 1298 c 128,-1,39
 665 1338 665 1338 596.5 1338 c 128,-1,40
 528 1338 528 1338 512 1335 c 1,31,-1
EndSplineSet
EndChar

StartChar: thorn
Encoding: 254 254 102
Width: 1056
Flags: HMW
HStem: -487 21G<79 79> -11 235<518 572 475 703> 988 230<638 650> 1672 20G<513 513>
VStem: 413 305<419.5 790> 718 252<760.5 790>
LayerCount: 2
Fore
SplineSet
52 -462 m 1,0,-1
 293 1657 l 2,1,2
 296 1682 296 1682 318 1685 c 1,3,-1
 513 1692 l 1,4,5
 539 1689 539 1689 539 1665 c 1,6,-1
 449 1022 l 1,7,8
 500 1117 500 1117 557.5 1167.5 c 128,-1,9
 615 1218 615 1218 687 1218 c 128,-1,10
 759 1218 759 1218 807 1194.5 c 128,-1,11
 855 1171 855 1171 885.5 1132.5 c 128,-1,12
 916 1094 916 1094 935.5 1040 c 0,13,14
 970 944.461538462 970 944.461538462 970 777.730769231 c 128,-1,15
 970 611 970 611 947.5 495 c 128,-1,16
 925 379 925 379 908 318.5 c 128,-1,17
 891 258 891 258 862.5 194 c 128,-1,18
 834 130 834 130 798 87 c 0,19,20
 715.953488372 -11 715.953488372 -11 591 -11 c 0,21,22
 485.616666667 -11 485.616666667 -11 433.5 48 c 0,23,24
 389.108280255 98.2547770701 389.108280255 98.2547770701 355 193 c 1,25,-1
 301 -455 l 2,26,27
 300 -479 300 -479 275 -480 c 2,28,-1
 79 -487 l 1,29,30
 52 -486 52 -486 52 -462 c 1,0,-1
718 749 m 0,31,32
 718 988 718 988 590 988 c 0,33,34
 534 988 534 988 499 936.5 c 128,-1,35
 464 885 464 885 438.5 730 c 128,-1,36
 413 575 413 575 413 504 c 128,-1,37
 413 433 413 433 414 414 c 128,-1,38
 415 395 415 395 418 363.5 c 128,-1,39
 421 332 421 332 429 310.5 c 128,-1,40
 437 289 437 289 450 267.5 c 0,41,42
 476.302325581 224 476.302325581 224 534.151162791 224 c 128,-1,43
 592 224 592 224 626 275.5 c 128,-1,44
 660 327 660 327 678.5 413 c 0,45,46
 718 596.621621622 718 596.621621622 718 749 c 0,31,32
EndSplineSet
EndChar

StartChar: paragraph
Encoding: 182 182 105
Width: 1170
Flags: HMW
HStem: -328 249<380 487 380 519> 581 204<482.5 724> 1376 240<729.5 789>
VStem: 239 268<924.5 1003.5>
LayerCount: 2
Fore
SplineSet
650 114 m 2,0,-1
 701 582 l 1,1,2
 670 581 670 581 594 581 c 0,3,4
 427 581 427 581 333 673 c 128,-1,5
 239 765 239 765 239 908 c 0,6,7
 239 1215.71929825 239 1215.71929825 352 1410 c 1,8,9
 415 1521 415 1521 516 1568.5 c 128,-1,10
 617 1616 617 1616 787 1616 c 128,-1,11
 957 1616 957 1616 1117 1575 c 1,12,13
 1143 1566.875 1143 1566.875 1143 1548 c 1,14,-1
 1124 1391 l 2,15,16
 1121 1365 1121 1365 1098 1363 c 2,17,-1
 1066 1361 l 2,18,19
 1044 1360 1044 1360 1041 1336 c 2,20,-1
 904 137 l 2,21,22
 874.065797068 -128.41659933 874.065797068 -128.41659933 734 -231 c 0,23,24
 601.557692308 -328 601.557692308 -328 364 -328 c 0,25,26
 339 -328 339 -328 339 -304 c 1,27,-1
 363 -103 l 1,28,29
 369 -79 369 -79 389 -79 c 0,30,31
 569.4 -79 569.4 -79 620 9 c 0,32,33
 643 49 643 49 650 114 c 2,0,-1
693 785 m 2,34,-1
 724 785 l 1,35,-1
 789 1376 l 1,36,37
 699 1376 699 1376 659.5 1362 c 128,-1,38
 620 1348 620 1348 585.5 1305.5 c 128,-1,39
 551 1263 551 1263 529 1162.5 c 128,-1,40
 507 1062 507 1062 507 978 c 128,-1,41
 507 894 507 894 556.5 839.5 c 128,-1,42
 606 785 606 785 693 785 c 2,34,-1
EndSplineSet
EndChar

StartChar: Thorn
Encoding: 222 222 106
Width: 1006
Flags: HMW
HStem: -4 21G<125.5 132> 302 233<420 479.5 420 563> 1048 232<568.5 599> 1048 506 1538 20G<509 509>
VStem: 714 256<903.5 945>
LayerCount: 2
Fore
SplineSet
392 302 m 1,0,-1
 420 535 l 1,1,2
 604 535 604 535 659 612.5 c 128,-1,3
 714 690 714 690 714 891 c 0,4,5
 714 972 714 972 671.5 1010 c 128,-1,6
 629 1048 629 1048 561.5 1048 c 128,-1,7
 494 1048 494 1048 479 1046 c 1,8,-1
 265 1242 l 1,9,10
 268 1264 268 1264 291 1265 c 0,11,12
 469 1280 469 1280 636.5 1280 c 128,-1,13
 804 1280 804 1280 887 1196.5 c 128,-1,14
 970 1113 970 1113 970 942.5 c 128,-1,15
 970 772 970 772 935 638 c 0,16,17
 847 302 847 302 392 302 c 1,0,-1
535 1534 m 1,18,-1
 364 28 l 2,19,20
 361 4 361 4 338 3 c 2,21,-1
 132 -4 l 2,22,23
 110 -4 110 -4 110 15 c 1,24,-1
 283 1528 l 1,25,26
 286.56626506 1549.39759036 286.56626506 1549.39759036 309 1551 c 2,27,-1
 509 1558 l 1,28,29
 535 1557 535 1557 535 1534 c 1,18,-1
EndSplineSet
EndChar

StartChar: exclamdown
Encoding: 161 161 107
Width: 585
Flags: HMW
HStem: -400 21G<106 106> 903 314<347.5 405>
VStem: 218 317<1027.5 1092.5>
LayerCount: 2
Fore
SplineSet
81 -375 m 1,0,-1
 230 744 l 2,1,2
 233 769 233 769 255 770 c 2,3,-1
 430 777 l 1,4,5
 452 776 452 776 452 756 c 1,6,-1
 345 -369 l 2,7,8
 344 -390 344 -390 319 -393 c 1,9,-1
 106 -400 l 1,10,11
 81 -399 81 -399 81 -375 c 1,0,-1
494.5 1175.5 m 128,-1,13
 535 1134 535 1134 535 1069.5 c 128,-1,14
 535 1005 535 1005 482 954 c 128,-1,15
 429 903 429 903 363.5 903 c 128,-1,16
 298 903 298 903 258 944 c 128,-1,17
 218 985 218 985 218 1050.5 c 128,-1,18
 218 1116 218 1116 271 1166.5 c 128,-1,19
 324 1217 324 1217 389 1217 c 128,-1,12
 454 1217 454 1217 494.5 1175.5 c 128,-1,13
EndSplineSet
EndChar

StartChar: questiondown
Encoding: 191 191 108
Width: 819
Flags: HMW
HStem: -410 248<256 431.5> 903 314<467.5 525>
VStem: 40 255<-83.5 20.5> 337 317<1027.5 1092.5> 366 243<645 751>
LayerCount: 2
Fore
SplineSet
588 777 m 2,0,1
 609 777 609 777 609 756 c 0,2,3
 609 585.743589744 609 585.743589744 558.5 470.5 c 0,4,5
 511.627329193 363.534161491 511.627329193 363.534161491 450 286.5 c 0,6,7
 356.983606557 170.229508197 356.983606557 170.229508197 325.991803279 106.614754098 c 128,-1,8
 295 43 295 43 295 -33 c 0,9,10
 295 -162 295 -162 416 -162 c 0,11,12
 468 -162 468 -162 544 -148 c 128,-1,13
 620 -134 620 -134 635 -134 c 0,14,15
 657 -134 657 -134 657 -162 c 1,16,-1
 633 -352 l 2,17,18
 631.447852761 -370.625766871 631.447852761 -370.625766871 608 -379 c 1,19,20
 434 -410 434 -410 352 -410 c 0,21,22
 210 -410 210 -410 125 -315.5 c 128,-1,23
 40 -221 40 -221 40 -84 c 128,-1,24
 40 53 40 53 78.5 141.5 c 128,-1,25
 117 230 117 230 176 306.5 c 128,-1,26
 235 383 235 383 256 413 c 128,-1,27
 277 443 277 443 308.5 499.5 c 0,28,29
 366 602.634920635 366 602.634920635 366 743 c 0,30,31
 366 768 366 768 391 769 c 2,32,-1
 588 777 l 2,0,1
614 1175.5 m 128,-1,34
 654 1134 654 1134 654 1069.5 c 128,-1,35
 654 1005 654 1005 601.5 954 c 128,-1,36
 549 903 549 903 483.5 903 c 128,-1,37
 418 903 418 903 377.5 944 c 128,-1,38
 337 985 337 985 337 1050 c 128,-1,39
 337 1115 337 1115 390 1166 c 128,-1,40
 443 1217 443 1217 508.5 1217 c 128,-1,33
 574 1217 574 1217 614 1175.5 c 128,-1,34
EndSplineSet
EndChar

StartChar: bar
Encoding: 124 124 109
Width: 538
Flags: HMW
HStem: -468 21G<103 103> 1670 20G<472 472>
LayerCount: 2
Fore
SplineSet
498 1663 m 1,0,-1
 264 -436 l 2,1,2
 261 -461 261 -461 237 -463 c 1,3,-1
 103 -468 l 1,4,5
 81 -467 81 -467 81 -448 c 1,6,-1
 317 1658 l 2,7,8
 319 1672 319 1672 324 1678 c 128,-1,9
 329 1684 329 1684 343 1685 c 2,10,-1
 472 1690 l 1,11,12
 498 1688 498 1688 498 1663 c 1,0,-1
EndSplineSet
EndChar

StartChar: brokenbar
Encoding: 166 166 110
Width: 538
Flags: HMW
HStem: -468 21G<103 103> 1670 20G<472 472>
LayerCount: 2
Fore
SplineSet
498 1663 m 1,0,-1
 400 795 l 2,1,2
 397 772 397 772 375 770 c 1,3,-1
 240 764 l 1,4,5
 218 767 218 767 218 784 c 1,6,-1
 317 1658 l 2,7,8
 319 1672 319 1672 324 1678 c 128,-1,9
 329 1684 329 1684 343 1685 c 2,10,-1
 472 1690 l 1,11,12
 498 1688 498 1688 498 1663 c 1,0,-1
361 431 m 1,13,-1
 264 -436 l 2,14,15
 261 -461 261 -461 237 -463 c 1,16,-1
 103 -468 l 1,17,18
 81 -467 81 -467 81 -448 c 1,19,-1
 179 427 l 2,20,21
 182.588888889 450.327777778 182.588888889 450.327777778 206 452 c 2,22,-1
 335 458 l 1,23,24
 361 456 361 456 361 431 c 1,13,-1
EndSplineSet
EndChar

StartChar: ring
Encoding: 730 730 111
Width: 877
Flags: HMW
HStem: 1240 105<391.5 460 391.5 481> 1564 107<416 484>
VStem: 197 119<1415 1478.5 1415 1500.5> 562 118<1430 1493>
LayerCount: 2
Fore
SplineSet
257.5 1295.5 m 128,-1,1
 197 1351 197 1351 197 1442 c 128,-1,2
 197 1533 197 1533 277 1602 c 128,-1,3
 357 1671 357 1671 458 1671 c 128,-1,4
 559 1671 559 1671 619.5 1614.5 c 128,-1,5
 680 1558 680 1558 680 1468 c 128,-1,6
 680 1378 680 1378 599 1309 c 128,-1,7
 518 1240 518 1240 418 1240 c 128,-1,0
 318 1240 318 1240 257.5 1295.5 c 128,-1,1
356.5 1529.5 m 128,-1,9
 316 1495 316 1495 316 1447.5 c 128,-1,10
 316 1400 316 1400 345.5 1372.5 c 128,-1,11
 375 1345 375 1345 427.5 1345 c 128,-1,12
 480 1345 480 1345 521 1379.5 c 128,-1,13
 562 1414 562 1414 562 1460.5 c 128,-1,14
 562 1507 562 1507 531 1535.5 c 128,-1,15
 500 1564 500 1564 448.5 1564 c 128,-1,8
 397 1564 397 1564 356.5 1529.5 c 128,-1,9
EndSplineSet
EndChar

StartChar: OE
Encoding: 338 338 112
Width: 1429
Flags: HMW
HStem: -11 240<476.5 549.5 476.5 635> -4 21G<649.5 656> 678 255 1328 240<596.5 670.5> 1550 20G<1381 1381>
VStem: 138 255<317 359.5> 753 253<1129.5 1245.5 1129.5 1250>
LayerCount: 2
Fore
SplineSet
454.5 -11 m 0,0,1
 376 -11 376 -11 312.5 17 c 128,-1,2
 249 45 249 45 212 94 c 0,3,4
 138 192 138 192 138 334 c 0,5,6
 138 482.105263158 138 482.105263158 161 706.052631579 c 128,-1,7
 184 930 184 930 205.5 1048.5 c 128,-1,8
 227 1167 227 1167 239 1215.5 c 128,-1,9
 251 1264 251 1264 270 1316 c 128,-1,10
 289 1368 289 1368 312.5 1403.5 c 128,-1,11
 336 1439 336 1439 370.5 1472 c 128,-1,12
 405 1505 405 1505 449 1525 c 0,13,14
 543.6 1568 543.6 1568 655.8 1568 c 128,-1,15
 768 1568 768 1568 832.5 1529.5 c 128,-1,16
 897 1491 897 1491 933.5 1428.5 c 0,17,18
 1006 1304.35616438 1006 1304.35616438 1006 1138.67808219 c 128,-1,19
 1006 973 1006 973 929 544 c 0,20,21
 885.023923445 303.822966507 885.023923445 303.822966507 833.5 206.5 c 0,22,23
 775.126760563 96.2394366197 775.126760563 96.2394366197 697 49 c 0,24,25
 597.769230769 -11 597.769230769 -11 454.5 -11 c 0,0,1
417 733.5 m 128,-1,27
 393 491 393 491 393 360 c 128,-1,28
 393 229 393 229 515.5 229 c 0,29,30
 640.080645161 229 640.080645161 229 680 454 c 0,31,32
 704 592 704 592 728.5 834.5 c 128,-1,33
 753 1077 753 1077 753 1202.5 c 128,-1,34
 753 1328 753 1328 640 1328 c 0,35,36
 570 1328 570 1328 528 1282 c 128,-1,37
 486 1236 486 1236 463.5 1106 c 128,-1,26
 441 976 441 976 417 733.5 c 128,-1,27
1272 684 m 2,38,-1
 961 672 l 1,39,-1
 914 262 l 1,40,-1
 1297 275 l 1,41,42
 1323 274 1323 274 1323 249 c 1,43,-1
 1297 42 l 1,44,45
 1295.40223464 21.2290502793 1295.40223464 21.2290502793 1271 16 c 1,46,-1
 656 -4 l 2,47,48
 634 -4 634 -4 634 15 c 1,49,-1
 807 1528 l 1,50,51
 810.56626506 1549.39759036 810.56626506 1549.39759036 833 1551 c 2,52,-1
 1381 1570 l 1,53,54
 1406 1567 1406 1567 1406 1543 c 1,55,-1
 1381 1336 l 2,56,57
 1378 1311 1378 1311 1355 1309 c 1,58,-1
 1033 1300 l 1,59,-1
 990 928 l 1,60,-1
 1298 939 l 1,61,62
 1324 938 1324 938 1324 913 c 1,63,-1
 1298 709 l 2,64,65
 1294.4 685.6 1294.4 685.6 1272 684 c 2,38,-1
EndSplineSet
EndChar

StartChar: AE
Encoding: 198 198 113
Width: 1345
Flags: HMW
HStem: -4 21G<22.5 29 565.5 572> 6 262 353 213 678 255 1304 256 1550 20G<1297 1297 1297 1297>
LayerCount: 2
Fore
SplineSet
853 1536 m 1,0,-1
 712 1415 l 1,1,-1
 434 559 l 1,2,-1
 722 574 l 1,3,-1
 722 365 l 1,4,-1
 363 342 l 1,5,-1
 262 29 l 2,6,7
 257 14 257 14 253 9.5 c 128,-1,8
 249 5 249 5 237 4 c 2,9,-1
 29 -4 l 2,10,11
 9 -4 9 -4 9 15 c 1,12,-1
 557 1527 l 2,13,14
 566 1551 566 1551 583 1551 c 2,15,-1
 1297 1570 l 1,16,-1
 853 1536 l 1,0,-1
1188 684 m 2,17,-1
 877 672 l 1,18,-1
 830 262 l 1,19,-1
 1213 275 l 1,20,21
 1239 274 1239 274 1239 249 c 1,22,-1
 1213 42 l 1,23,24
 1211.40223464 21.2290502793 1211.40223464 21.2290502793 1187 16 c 1,25,-1
 572 -4 l 2,26,27
 550 -4 550 -4 550 15 c 1,28,-1
 723 1528 l 1,29,30
 726.56626506 1549.39759036 726.56626506 1549.39759036 749 1551 c 2,31,-1
 1297 1570 l 1,32,33
 1322 1567 1322 1567 1322 1543 c 1,34,-1
 1297 1336 l 2,35,36
 1294 1311 1294 1311 1271 1309 c 1,37,-1
 949 1300 l 1,38,-1
 906 928 l 1,39,-1
 1214 939 l 1,40,41
 1240 938 1240 938 1240 913 c 1,42,-1
 1214 709 l 2,43,44
 1210.4 685.6 1210.4 685.6 1188 684 c 2,17,-1
EndSplineSet
EndChar

StartChar: mu
Encoding: 181 181 114
AltUni2: 0003bc.ffffffff.0
Width: 1134
Flags: HMW
HStem: -487 21G<84 84> -11 223<444 565.5> -4 21G<691 751.5> 1189 20G<469 469 998 998>
LayerCount: 2
Fore
SplineSet
496 1183 m 1,0,-1
 404 352 l 1,1,2
 404 271 404 271 443 241.5 c 128,-1,3
 482 212 482 212 542 212 c 128,-1,4
 602 212 602 212 666 237 c 1,5,-1
 771 1177 l 2,6,7
 774 1201 774 1201 797 1202 c 2,8,-1
 998 1209 l 1,9,10
 1021 1207 1021 1207 1021 1188 c 1,11,-1
 916 265 l 1,12,13
 916 244 916 244 939 244 c 1,14,-1
 1047 250 l 1,15,16
 1078 250 1078 250 1078 222 c 1,17,-1
 1057 35 l 1,18,19
 1055.36125654 8.78010471204 1055.36125654 8.78010471204 1034 7 c 0,20,21
 818 -4 818 -4 714 -4 c 0,22,23
 649 -4 649 -4 647 65 c 1,24,25
 569 -11 569 -11 466 -11 c 0,26,27
 405 -11 405 -11 365 16 c 1,28,-1
 312 -454 l 2,29,30
 308.244444444 -478.411111111 308.244444444 -478.411111111 286 -480 c 2,31,-1
 84 -487 l 1,32,33
 62 -485 62 -485 62 -467 c 1,34,-1
 249 1178 l 1,35,36
 252.727272727 1200.36363636 252.727272727 1200.36363636 274 1202 c 2,37,-1
 469 1209 l 1,38,39
 496 1208 496 1208 496 1183 c 1,0,-1
EndSplineSet
EndChar

StartChar: acute.cap
Encoding: 65537 -1 115
Width: 877
Flags: HMW
HStem: 1669 21G<279 279> 1671 252 1910 20G<593 593>
LayerCount: 2
Fore
SplineSet
619 1905 m 1,0,-1
 455 1697 l 1,1,2
 437 1676 437 1676 410 1674 c 2,3,-1
 279 1669 l 1,4,5
 257 1671 257 1671 257 1689 c 1,6,-1
 338 1891 l 2,7,8
 347 1914 347 1914 381 1916 c 2,9,-1
 593 1930 l 1,10,11
 619 1928 619 1928 619 1905 c 1,0,-1
EndSplineSet
EndChar

StartChar: circumflex.cap
Encoding: 65538 -1 116
Width: 877
Flags: HMW
HStem: 1638 21G<93 93> 1919 20G<598 604>
LayerCount: 2
Fore
SplineSet
630 1913 m 2,0,-1
 806 1690 l 1,1,2
 806 1664.66666667 806 1664.66666667 781 1663 c 2,3,-1
 636 1658 l 2,4,5
 625 1658 625 1658 599 1678 c 1,6,-1
 442 1814 l 1,7,-1
 275 1667 l 2,8,9
 251 1645 251 1645 235 1644 c 2,10,-1
 93 1638 l 1,11,12
 71 1640 71 1640 71 1658 c 1,13,-1
 298 1907 l 2,14,15
 314 1926 314 1926 327 1927 c 2,16,-1
 598 1939 l 2,17,18
 610 1939 610 1939 630 1913 c 2,0,-1
EndSplineSet
EndChar

StartChar: dieresis.cap
Encoding: 65539 -1 117
Width: 877
Flags: HMW
HStem: 1687 242<202 250 624.5 672>
VStem: 95 264<1781 1834> 517 265<1781.5 1836>
LayerCount: 2
Fore
SplineSet
127.5 1717 m 128,-1,1
 95 1747 95 1747 95 1799.5 c 128,-1,2
 95 1852 95 1852 138.5 1890.5 c 128,-1,3
 182 1929 182 1929 237 1929 c 128,-1,4
 292 1929 292 1929 325.5 1899 c 128,-1,5
 359 1869 359 1869 359 1816 c 128,-1,6
 359 1763 359 1763 315 1725 c 128,-1,7
 271 1687 271 1687 215.5 1687 c 128,-1,0
 160 1687 160 1687 127.5 1717 c 128,-1,1
550 1717.5 m 128,-1,9
 517 1748 517 1748 517 1801 c 128,-1,10
 517 1854 517 1854 560 1891.5 c 128,-1,11
 603 1929 603 1929 659 1929 c 128,-1,12
 715 1929 715 1929 748.5 1899 c 128,-1,13
 782 1869 782 1869 782 1816 c 128,-1,14
 782 1763 782 1763 737.5 1725 c 128,-1,15
 693 1687 693 1687 638 1687 c 128,-1,8
 583 1687 583 1687 550 1717.5 c 128,-1,9
EndSplineSet
EndChar

StartChar: caron.cap
Encoding: 65540 -1 118
Width: 877
Flags: HMW
HStem: 1638 21G<273 279> 1919 20G
LayerCount: 2
Fore
SplineSet
247 1664 m 1,0,-1
 71 1887 l 1,1,2
 71 1912.33333333 71 1912.33333333 96 1914 c 2,3,-1
 241 1919 l 2,4,5
 252 1919 252 1919 278 1899 c 1,6,-1
 435 1763 l 1,7,-1
 602 1910 l 2,8,9
 626 1932 626 1932 642 1933 c 2,10,-1
 784 1939 l 1,11,12
 806 1937 806 1937 806 1919 c 1,13,-1
 579 1670 l 2,14,15
 563 1651 563 1651 550 1650 c 2,16,-1
 279 1638 l 2,17,18
 266 1638 266 1638 247 1664 c 1,0,-1
EndSplineSet
EndChar

StartChar: ring.cap
Encoding: 65541 -1 119
Width: 877
Flags: HMW
HStem: 1439 105<391.5 460 391.5 481> 1763 107<416 484>
VStem: 197 119<1614 1677.5 1614 1699.5> 562 118<1629 1692>
LayerCount: 2
Fore
SplineSet
257.5 1494.5 m 128,-1,1
 197 1550 197 1550 197 1641 c 128,-1,2
 197 1732 197 1732 277 1801 c 128,-1,3
 357 1870 357 1870 458 1870 c 128,-1,4
 559 1870 559 1870 619.5 1813.5 c 128,-1,5
 680 1757 680 1757 680 1667 c 128,-1,6
 680 1577 680 1577 599 1508 c 128,-1,7
 518 1439 518 1439 418 1439 c 128,-1,0
 318 1439 318 1439 257.5 1494.5 c 128,-1,1
356.5 1728.5 m 128,-1,9
 316 1694 316 1694 316 1646.5 c 128,-1,10
 316 1599 316 1599 345.5 1571.5 c 128,-1,11
 375 1544 375 1544 427.5 1544 c 128,-1,12
 480 1544 480 1544 521 1578.5 c 128,-1,13
 562 1613 562 1613 562 1659.5 c 128,-1,14
 562 1706 562 1706 531 1734.5 c 128,-1,15
 500 1763 500 1763 448.5 1763 c 128,-1,8
 397 1763 397 1763 356.5 1728.5 c 128,-1,9
EndSplineSet
EndChar

StartChar: tilde.cap
Encoding: 65542 -1 120
Width: 877
Flags: HMW
HStem: 1680 181<570.5 606.5> 1741 181<269 303>
LayerCount: 2
Fore
SplineSet
322 1922 m 0,0,1
 377 1922 377 1922 459.5 1891.5 c 128,-1,2
 542 1861 542 1861 586 1861 c 128,-1,3
 630 1861 630 1861 690.5 1887.5 c 128,-1,4
 751 1914 751 1914 767.5 1914 c 128,-1,5
 784 1914 784 1914 786 1897 c 2,6,-1
 792 1822 l 1,7,8
 792 1801 792 1801 769.5 1781 c 128,-1,9
 747 1761 747 1761 733 1750 c 128,-1,10
 719 1739 719 1739 689 1719 c 0,11,12
 630.5 1680 630.5 1680 560.75 1680 c 128,-1,13
 491 1680 491 1680 414.5 1710.5 c 128,-1,14
 338 1741 338 1741 291.5 1741 c 128,-1,15
 245 1741 245 1741 184.5 1714.5 c 128,-1,16
 124 1688 124 1688 107.5 1688 c 128,-1,17
 91 1688 91 1688 90 1704 c 2,18,-1
 84 1780 l 1,19,20
 84 1798 84 1798 106 1821 c 0,21,22
 204 1922 204 1922 322 1922 c 0,0,1
EndSplineSet
EndChar

StartChar: grave.cap
Encoding: 65543 -1 121
Width: 877
Flags: HMW
HStem: 1678 21G 1681 244 1909 20G<513 513>
LayerCount: 2
Fore
SplineSet
513 1929 m 1,0,1
 533.115606936 1927.32369942 533.115606936 1927.32369942 544 1904 c 1,2,-1
 617 1712 l 1,3,4
 617 1686 617 1686 591 1685 c 2,5,-1
 455 1678 l 1,6,7
 440 1679 440 1679 422 1699 c 1,8,-1
 259 1897 l 1,9,10
 259 1920 259 1920 282 1921 c 2,11,-1
 513 1929 l 1,0,1
EndSplineSet
EndChar

StartChar: commaaccent
Encoding: 65544 -1 122
Width: 877
Flags: HMW
HStem: -625 21G<360 370.5> -65 20G<405.5 490>
VStem: 298 281<-229.5 -159.5>
LayerCount: 2
Fore
SplineSet
452 -597 m 1,0,1
 436 -621 436 -621 419.5 -623 c 128,-1,2
 403 -625 403 -625 375.5 -625 c 128,-1,3
 348 -625 348 -625 348 -608 c 128,-1,4
 348 -591 348 -591 362 -510.5 c 128,-1,5
 376 -430 376 -430 383 -328 c 1,6,7
 341 -314 341 -314 319.5 -279.5 c 128,-1,8
 298 -245 298 -245 298 -191 c 128,-1,9
 298 -137 298 -137 341 -91 c 128,-1,10
 384 -45 384 -45 446.5 -45 c 128,-1,11
 509 -45 509 -45 544 -87 c 128,-1,12
 579 -129 579 -129 579 -200.5 c 128,-1,13
 579 -272 579 -272 535 -408 c 128,-1,14
 491 -544 491 -544 452 -597 c 1,0,1
EndSplineSet
EndChar

StartChar: quoteright
Encoding: 8217 8217 123
Width: 585
Flags: HMW
HStem: 1066 21G<288 299.5> 1722 20G<371 462.5>
VStem: 242 316<1543 1617.5> 336 222
LayerCount: 2
Fore
SplineSet
274 1087 m 0,0,1
 274 1100 274 1100 301 1213.5 c 128,-1,2
 328 1327 328 1327 336 1435 c 1,3,4
 290 1449 290 1449 266 1487.5 c 128,-1,5
 242 1526 242 1526 242 1583 c 128,-1,6
 242 1640 242 1640 294.5 1691 c 128,-1,7
 347 1742 347 1742 414.5 1742 c 128,-1,8
 482 1742 482 1742 520 1696 c 128,-1,9
 558 1650 558 1650 558 1583 c 0,10,11
 558 1464 558 1464 504 1320.5 c 0,12,13
 421.599474721 1101.52823375 421.599474721 1101.52823375 378 1073.5 c 0,14,15
 366.333333333 1066 366.333333333 1066 294 1066 c 0,16,17
 274 1066 274 1066 274 1087 c 0,0,1
EndSplineSet
EndChar

StartChar: quoteleft
Encoding: 8216 8216 124
Width: 585
Flags: HMW
HStem: 1067 21G<343.5 435> 1723 20G<506.5 518>
VStem: 248 222 248 316<1191.5 1266 1191.5 1316>
LayerCount: 2
Fore
SplineSet
532 1722 m 0,0,1
 532 1709 532 1709 505 1595.5 c 128,-1,2
 478 1482 478 1482 470 1374 c 1,3,4
 516 1360 516 1360 540 1321.5 c 128,-1,5
 564 1283 564 1283 564 1226 c 128,-1,6
 564 1169 564 1169 511.5 1118 c 128,-1,7
 459 1067 459 1067 391.5 1067 c 128,-1,8
 324 1067 324 1067 286 1113 c 128,-1,9
 248 1159 248 1159 248 1226 c 0,10,11
 248 1345 248 1345 302 1488.5 c 0,12,13
 384.400525279 1707.47176625 384.400525279 1707.47176625 428 1735.5 c 0,14,15
 439.666666667 1743 439.666666667 1743 512 1743 c 0,16,17
 532 1743 532 1743 532 1722 c 0,0,1
EndSplineSet
EndChar

StartChar: quotedblleft
Encoding: 8220 8220 125
Width: 1055
Flags: HMW
HStem: 1067 21G<343.5 435 813.5 905> 1723 20G<506.5 518 976.5 988>
VStem: 248 222 248 316<1191.5 1266 1191.5 1316> 718 222 718 316<1191.5 1266 1191.5 1316>
LayerCount: 2
Fore
SplineSet
532 1722 m 0,0,1
 532 1709 532 1709 505 1595.5 c 128,-1,2
 478 1482 478 1482 470 1374 c 1,3,4
 516 1360 516 1360 540 1321.5 c 128,-1,5
 564 1283 564 1283 564 1226 c 128,-1,6
 564 1169 564 1169 511.5 1118 c 128,-1,7
 459 1067 459 1067 391.5 1067 c 128,-1,8
 324 1067 324 1067 286 1113 c 128,-1,9
 248 1159 248 1159 248 1226 c 0,10,11
 248 1345 248 1345 302 1488.5 c 0,12,13
 384.400525279 1707.47176625 384.400525279 1707.47176625 428 1735.5 c 0,14,15
 439.666666667 1743 439.666666667 1743 512 1743 c 0,16,17
 532 1743 532 1743 532 1722 c 0,0,1
1002 1722 m 0,18,19
 1002 1709 1002 1709 975 1595.5 c 128,-1,20
 948 1482 948 1482 940 1374 c 1,21,22
 986 1360 986 1360 1010 1321.5 c 128,-1,23
 1034 1283 1034 1283 1034 1226 c 128,-1,24
 1034 1169 1034 1169 981.5 1118 c 128,-1,25
 929 1067 929 1067 861.5 1067 c 128,-1,26
 794 1067 794 1067 756 1113 c 128,-1,27
 718 1159 718 1159 718 1226 c 0,28,29
 718 1345 718 1345 772 1488.5 c 0,30,31
 854.400525279 1707.47176625 854.400525279 1707.47176625 898 1735.5 c 0,32,33
 909.666666667 1743 909.666666667 1743 982 1743 c 0,34,35
 1002 1743 1002 1743 1002 1722 c 0,18,19
EndSplineSet
EndChar

StartChar: quotedblright
Encoding: 8221 8221 126
Width: 1056
Flags: HMW
HStem: 1066 21G<288 299.5 759 770.5> 1722 20G<371 462.5 842 933.5>
VStem: 242 316<1543 1617.5> 336 222 713 316<1543 1617.5> 807 222
LayerCount: 2
Fore
SplineSet
274 1087 m 0,0,1
 274 1100 274 1100 301 1213.5 c 128,-1,2
 328 1327 328 1327 336 1435 c 1,3,4
 290 1449 290 1449 266 1487.5 c 128,-1,5
 242 1526 242 1526 242 1583 c 128,-1,6
 242 1640 242 1640 294.5 1691 c 128,-1,7
 347 1742 347 1742 414.5 1742 c 128,-1,8
 482 1742 482 1742 520 1696 c 128,-1,9
 558 1650 558 1650 558 1583 c 0,10,11
 558 1464 558 1464 504 1320.5 c 0,12,13
 421.599474721 1101.52823375 421.599474721 1101.52823375 378 1073.5 c 0,14,15
 366.333333333 1066 366.333333333 1066 294 1066 c 0,16,17
 274 1066 274 1066 274 1087 c 0,0,1
745 1087 m 0,18,19
 745 1100 745 1100 772 1213.5 c 128,-1,20
 799 1327 799 1327 807 1435 c 1,21,22
 761 1449 761 1449 737 1487.5 c 128,-1,23
 713 1526 713 1526 713 1583 c 128,-1,24
 713 1640 713 1640 765.5 1691 c 128,-1,25
 818 1742 818 1742 885.5 1742 c 128,-1,26
 953 1742 953 1742 991 1696 c 128,-1,27
 1029 1650 1029 1650 1029 1583 c 0,28,29
 1029 1464 1029 1464 975 1320.5 c 0,30,31
 892.599474721 1101.52823375 892.599474721 1101.52823375 849 1073.5 c 0,32,33
 837.333333333 1066 837.333333333 1066 765 1066 c 0,34,35
 745 1066 745 1066 745 1087 c 0,18,19
EndSplineSet
EndChar

StartChar: quotesinglbase
Encoding: 8218 8218 127
Width: 585
Flags: HMW
HStem: -373 21G<145 156.5> 283 20G<228 319.5>
VStem: 99 316<104 178.5> 193 222
LayerCount: 2
Fore
SplineSet
131 -352 m 0,0,1
 131 -339 131 -339 158 -225.5 c 128,-1,2
 185 -112 185 -112 193 -4 c 1,3,4
 147 10 147 10 123 48.5 c 128,-1,5
 99 87 99 87 99 144 c 128,-1,6
 99 201 99 201 151.5 252 c 128,-1,7
 204 303 204 303 271.5 303 c 128,-1,8
 339 303 339 303 377 257 c 128,-1,9
 415 211 415 211 415 144 c 0,10,11
 415 25 415 25 361 -118.5 c 0,12,13
 278.599474721 -337.471766251 278.599474721 -337.471766251 235 -365.5 c 0,14,15
 223.333333333 -373 223.333333333 -373 151 -373 c 0,16,17
 131 -373 131 -373 131 -352 c 0,0,1
EndSplineSet
EndChar

StartChar: quotedblbase
Encoding: 8222 8222 128
Width: 1055
Flags: HMW
HStem: -373 21G<145 156.5 615 626.5> 283 20G<228 319.5 698 789.5>
VStem: 99 316<104 178.5> 193 222 569 316<104 178.5> 663 222
LayerCount: 2
Fore
SplineSet
131 -352 m 0,0,1
 131 -339 131 -339 158 -225.5 c 128,-1,2
 185 -112 185 -112 193 -4 c 1,3,4
 147 10 147 10 123 48.5 c 128,-1,5
 99 87 99 87 99 144 c 128,-1,6
 99 201 99 201 151.5 252 c 128,-1,7
 204 303 204 303 271.5 303 c 128,-1,8
 339 303 339 303 377 257 c 128,-1,9
 415 211 415 211 415 144 c 0,10,11
 415 25 415 25 361 -118.5 c 0,12,13
 278.599474721 -337.471766251 278.599474721 -337.471766251 235 -365.5 c 0,14,15
 223.333333333 -373 223.333333333 -373 151 -373 c 0,16,17
 131 -373 131 -373 131 -352 c 0,0,1
601 -352 m 0,18,19
 601 -339 601 -339 628 -225.5 c 128,-1,20
 655 -112 655 -112 663 -4 c 1,21,22
 617 10 617 10 593 48.5 c 128,-1,23
 569 87 569 87 569 144 c 128,-1,24
 569 201 569 201 621.5 252 c 128,-1,25
 674 303 674 303 741.5 303 c 128,-1,26
 809 303 809 303 847 257 c 128,-1,27
 885 211 885 211 885 144 c 0,28,29
 885 25 885 25 831 -118.5 c 0,30,31
 748.599474721 -337.471766251 748.599474721 -337.471766251 705 -365.5 c 0,32,33
 693.333333333 -373 693.333333333 -373 621 -373 c 0,34,35
 601 -373 601 -373 601 -352 c 0,18,19
EndSplineSet
EndChar

StartChar: quotesingle
Encoding: 39 39 129
Width: 539
Flags: HMW
HStem: 1068 21G<278 278> 1708 20G<495 495>
LayerCount: 2
Fore
SplineSet
527 1702 m 1,0,-1
 429 1099 l 2,1,2
 426 1086 426 1086 421.5 1080 c 128,-1,3
 417 1074 417 1074 404 1073 c 2,4,-1
 278 1068 l 1,5,6
 246 1070 246 1070 245 1088 c 1,7,-1
 271 1697 l 1,8,9
 273 1720 273 1720 295 1721 c 2,10,-1
 495 1728 l 1,11,12
 527 1726 527 1726 527 1702 c 1,0,-1
EndSplineSet
EndChar

StartChar: quotedbl
Encoding: 34 34 130
Width: 980
Flags: HMW
HStem: 1068 21G<278 278 719 719> 1708 20G<495 495 936 936>
LayerCount: 2
Fore
SplineSet
527 1702 m 1,0,-1
 429 1099 l 2,1,2
 426 1086 426 1086 421.5 1080 c 128,-1,3
 417 1074 417 1074 404 1073 c 2,4,-1
 278 1068 l 1,5,6
 246 1070 246 1070 245 1088 c 1,7,-1
 271 1697 l 1,8,9
 273 1720 273 1720 295 1721 c 2,10,-1
 495 1728 l 1,11,12
 527 1726 527 1726 527 1702 c 1,0,-1
968 1702 m 1,13,-1
 870 1099 l 2,14,15
 867 1086 867 1086 862.5 1080 c 128,-1,16
 858 1074 858 1074 845 1073 c 2,17,-1
 719 1068 l 1,18,19
 687 1070 687 1070 686 1088 c 1,20,-1
 712 1697 l 1,21,22
 714 1720 714 1720 736 1721 c 2,23,-1
 936 1728 l 1,24,25
 968 1726 968 1726 968 1702 c 1,13,-1
EndSplineSet
EndChar

StartChar: guilsinglleft
Encoding: 8249 8249 131
Width: 737
Flags: HMW
HStem: 150 21G 995 20G<717 717>
LayerCount: 2
Fore
SplineSet
742 989 m 1,0,-1
 456 591 l 1,1,-1
 619 183 l 1,2,3
 619 157.666666667 619 157.666666667 594 156 c 2,4,-1
 429 150 l 1,5,6
 407 151 407 151 396 171 c 2,7,-1
 188 561 l 2,8,9
 185 568 185 568 185 575 c 128,-1,10
 185 582 185 582 191 590 c 2,11,-1
 498 983 l 2,12,13
 517 1008 517 1008 541 1009 c 2,14,-1
 717 1015 l 1,15,16
 742 1014 742 1014 742 989 c 1,0,-1
EndSplineSet
EndChar

StartChar: guilsinglright
Encoding: 8250 8250 132
Width: 737
Flags: HMW
HStem: 155 21G<45 45> 1000 20G<333 333>
LayerCount: 2
Fore
SplineSet
20 181 m 1,0,-1
 306 579 l 1,1,-1
 143 987 l 1,2,3
 143 1012.33333333 143 1012.33333333 168 1014 c 2,4,-1
 333 1020 l 1,5,6
 355 1019 355 1019 366 999 c 2,7,-1
 574 609 l 2,8,9
 577 602 577 602 577 595 c 128,-1,10
 577 588 577 588 571 580 c 2,11,-1
 264 187 l 2,12,13
 245 162 245 162 221 161 c 2,14,-1
 45 155 l 1,15,16
 20 156 20 156 20 181 c 1,0,-1
EndSplineSet
EndChar

StartChar: guillemotleft
Encoding: 171 171 133
Width: 1210
Flags: HMW
HStem: 150 21G 995 20G<717 717 1190 1190>
LayerCount: 2
Fore
SplineSet
742 989 m 1,0,-1
 456 591 l 1,1,-1
 619 183 l 1,2,3
 619 157.666666667 619 157.666666667 594 156 c 2,4,-1
 429 150 l 1,5,6
 407 151 407 151 396 171 c 2,7,-1
 188 561 l 2,8,9
 185 568 185 568 185 575 c 128,-1,10
 185 582 185 582 191 590 c 2,11,-1
 498 983 l 2,12,13
 517 1008 517 1008 541 1009 c 2,14,-1
 717 1015 l 1,15,16
 742 1014 742 1014 742 989 c 1,0,-1
1215 989 m 1,17,-1
 929 591 l 1,18,-1
 1092 183 l 1,19,20
 1092 157.666666667 1092 157.666666667 1067 156 c 2,21,-1
 902 150 l 1,22,23
 880 151 880 151 869 171 c 2,24,-1
 661 561 l 2,25,26
 658 568 658 568 658 575 c 128,-1,27
 658 582 658 582 664 590 c 2,28,-1
 971 983 l 2,29,30
 990 1008 990 1008 1014 1009 c 2,31,-1
 1190 1015 l 1,32,33
 1215 1014 1215 1014 1215 989 c 1,17,-1
EndSplineSet
EndChar

StartChar: guillemotright
Encoding: 187 187 134
Width: 1210
Flags: HMW
HStem: 155 21G<45 45 518 518> 1000 20G<333 333 806 806>
LayerCount: 2
Fore
SplineSet
20 181 m 1,0,-1
 306 579 l 1,1,-1
 143 987 l 1,2,3
 143 1012.33333333 143 1012.33333333 168 1014 c 2,4,-1
 333 1020 l 1,5,6
 355 1019 355 1019 366 999 c 2,7,-1
 574 609 l 2,8,9
 577 602 577 602 577 595 c 128,-1,10
 577 588 577 588 571 580 c 2,11,-1
 264 187 l 2,12,13
 245 162 245 162 221 161 c 2,14,-1
 45 155 l 1,15,16
 20 156 20 156 20 181 c 1,0,-1
493 181 m 1,17,-1
 779 579 l 1,18,-1
 616 987 l 1,19,20
 616 1012.33333333 616 1012.33333333 641 1014 c 2,21,-1
 806 1020 l 1,22,23
 828 1019 828 1019 839 999 c 2,24,-1
 1047 609 l 1,25,26
 1050 601 1050 601 1050 594.5 c 128,-1,27
 1050 588 1050 588 1044 580 c 2,28,-1
 737 187 l 2,29,30
 718 162 718 162 694 161 c 2,31,-1
 518 155 l 1,32,33
 493 156 493 156 493 181 c 1,17,-1
EndSplineSet
EndChar

StartChar: plus
Encoding: 43 43 135
Width: 964
Flags: HMW
HStem: 377 21G 380 490 639 231 1111 20G<646 646>
LayerCount: 2
Fore
SplineSet
673 1106 m 1,0,-1
 648 888 l 1,1,-1
 860 899 l 1,2,3
 885 898 885 898 885 874 c 1,4,-1
 862 694 l 2,5,6
 859 670 859 670 838 669 c 2,7,-1
 623 657 l 1,8,-1
 595 409 l 2,9,10
 592 384 592 384 569 383 c 2,11,-1
 386 377 l 1,12,13
 364 379 364 379 364 398 c 1,14,-1
 392 645 l 1,15,-1
 184 634 l 1,16,17
 159 635 159 635 159 660 c 1,18,-1
 180 839 l 2,19,20
 182.888888889 865 182.888888889 865 206 865 c 1,21,-1
 418 876 l 1,22,-1
 443 1100 l 2,23,24
 446.588888889 1123.32777778 446.588888889 1123.32777778 470 1125 c 2,25,-1
 646 1131 l 1,26,27
 673 1130 673 1130 673 1106 c 1,0,-1
EndSplineSet
EndChar

StartChar: plusminus
Encoding: 177 177 136
Width: 964
Flags: HMW
HStem: 120 21G<128 128> 132 231 467 490 1198 20G<659 659>
LayerCount: 2
Fore
SplineSet
686 1193 m 1,0,-1
 661 975 l 1,1,-1
 873 986 l 1,2,3
 898 985 898 985 898 961 c 1,4,-1
 875 781 l 2,5,6
 872 757 872 757 851 756 c 2,7,-1
 636 744 l 1,8,-1
 608 496 l 2,9,10
 605 471 605 471 582 470 c 2,11,-1
 399 464 l 1,12,13
 377 466 377 466 377 485 c 1,14,-1
 405 732 l 1,15,-1
 197 721 l 1,16,17
 172 722 172 722 172 747 c 1,18,-1
 193 926 l 2,19,20
 195.888888889 952 195.888888889 952 219 952 c 1,21,-1
 431 963 l 1,22,-1
 456 1187 l 2,23,24
 459.588888889 1210.32777778 459.588888889 1210.32777778 483 1212 c 2,25,-1
 659 1218 l 1,26,27
 686 1216 686 1216 686 1193 c 1,0,-1
150 351 m 2,28,-1
 805 375 l 1,29,30
 828 374 828 374 828 350 c 1,31,-1
 807 170 l 2,32,33
 804 146 804 146 782 145 c 2,34,-1
 128 120 l 1,35,36
 104 121 104 121 104 146 c 1,37,-1
 124 325 l 2,38,39
 126.888888889 351 126.888888889 351 150 351 c 2,28,-1
EndSplineSet
EndChar

StartChar: equal
Encoding: 61 61 137
Width: 964
Flags: HMW
HStem: 373 21G<146 146> 385 231 839 231 1062 20G<874 874>
LayerCount: 2
Fore
SplineSet
219 1058 m 2,0,-1
 874 1082 l 1,1,2
 897 1081 897 1081 897 1057 c 1,3,-1
 876 877 l 2,4,5
 873 853 873 853 851 852 c 2,6,-1
 197 827 l 1,7,8
 173 828 173 828 173 853 c 1,9,-1
 193 1032 l 2,10,11
 195.888888889 1058 195.888888889 1058 219 1058 c 2,0,-1
168 604 m 2,12,-1
 823 628 l 1,13,14
 846 627 846 627 846 603 c 1,15,-1
 825 423 l 2,16,17
 822 399 822 399 800 398 c 2,18,-1
 146 373 l 1,19,20
 122 374 122 374 122 399 c 1,21,-1
 142 578 l 2,22,23
 144.888888889 604 144.888888889 604 168 604 c 2,12,-1
EndSplineSet
EndChar

StartChar: slash
Encoding: 47 47 138
Width: 519
Flags: HMW
HStem: -404 21G<80 89> 1721 20G<470 470>
LayerCount: 2
Fore
SplineSet
638 1684 m 1,0,-1
 106 -377 l 1,1,2
 100.6 -404 100.6 -404 80 -404 c 1,3,-1
 -68 -371 l 1,4,5
 -88 -365 -88 -365 -88 -350 c 1,6,-1
 443 1715 l 2,7,8
 446 1729 446 1729 451 1734.5 c 128,-1,9
 456 1740 456 1740 470 1741 c 1,10,-1
 612 1709 l 1,11,12
 638 1705 638 1705 638 1684 c 1,0,-1
EndSplineSet
EndChar

StartChar: backslash
Encoding: 92 92 139
Width: 519
Flags: HMW
HStem: -404 21G<427 436> 1721 20G<233 233>
LayerCount: 2
Fore
SplineSet
412 -377 m 2,0,-1
 62 1684 l 1,1,2
 62 1703 62 1703 89 1709 c 2,3,-1
 233 1741 l 1,4,5
 247 1740 247 1740 251 1735 c 128,-1,6
 255 1730 255 1730 258 1715 c 2,7,-1
 609 -350 l 1,8,9
 609 -364 609 -364 587 -371 c 1,10,-1
 436 -404 l 1,11,12
 424 -404 424 -404 419.5 -398 c 128,-1,13
 415 -392 415 -392 412 -377 c 2,0,-1
EndSplineSet
EndChar

StartChar: divide
Encoding: 247 247 140
Width: 964
Flags: HMW
HStem: 168 277<438 488> 538 231 869 277<518 568>
VStem: 324 279<278 335> 404 279<979 1036>
LayerCount: 2
Fore
SplineSet
439 905.5 m 128,-1,1
 404 942 404 942 404 999 c 128,-1,2
 404 1056 404 1056 450.5 1101 c 128,-1,3
 497 1146 497 1146 554.5 1146 c 128,-1,4
 612 1146 612 1146 647.5 1109.5 c 128,-1,5
 683 1073 683 1073 683 1016 c 128,-1,6
 683 959 683 959 636 914 c 128,-1,7
 589 869 589 869 531.5 869 c 128,-1,0
 474 869 474 869 439 905.5 c 128,-1,1
193 757 m 2,8,-1
 848 781 l 1,9,10
 871 780 871 780 871 756 c 1,11,-1
 850 576 l 2,12,13
 847 552 847 552 825 551 c 2,14,-1
 171 526 l 1,15,16
 147 527 147 527 147 552 c 1,17,-1
 167 731 l 2,18,19
 169.888888889 757 169.888888889 757 193 757 c 2,8,-1
359 204.5 m 128,-1,21
 324 241 324 241 324 298 c 128,-1,22
 324 355 324 355 370.5 400 c 128,-1,23
 417 445 417 445 474.5 445 c 128,-1,24
 532 445 532 445 567.5 408.5 c 128,-1,25
 603 372 603 372 603 315 c 128,-1,26
 603 258 603 258 556 213 c 128,-1,27
 509 168 509 168 451.5 168 c 128,-1,20
 394 168 394 168 359 204.5 c 128,-1,21
EndSplineSet
EndChar

StartChar: logicalnot
Encoding: 172 172 141
Width: 964
Flags: HMW
HStem: 444 21G 447 430 643 234 869 20G<854 854>
LayerCount: 2
Fore
SplineSet
201 865 m 2,0,-1
 854 889 l 1,1,2
 879 888 879 888 879 864 c 1,3,-1
 836 475 l 2,4,5
 833 451 833 451 810 450 c 2,6,-1
 626 444 l 1,7,8
 605 447 605 447 605 465 c 1,9,-1
 626 652 l 1,10,-1
 179 634 l 1,11,12
 155 635 155 635 155 660 c 1,13,-1
 175 839 l 2,14,15
 176.847826087 855.630434783 176.847826087 855.630434783 183.423913043 859.815217391 c 128,-1,16
 190 864 190 864 201 865 c 2,0,-1
EndSplineSet
EndChar

StartChar: copyright
Encoding: 169 169 142
Width: 1935
Flags: HMW
HStem: -15 186<793.5 1166 793.5 1207.5> 281 182<972.5 976.5> 1212 175<1065 1114> 1488 188<868 1240>
VStem: 211 200<601 973 601 1013.5> 712 195<523.5 546> 1623 199<685 1055.5>
LayerCount: 2
Fore
SplineSet
995 463 m 1,0,-1
 1154 480 l 1,1,2
 1169 480 1169 480 1169 463 c 1,3,-1
 1153 320 l 2,4,5
 1151.26744186 306.139534884 1151.26744186 306.139534884 1134 303 c 0,6,7
 1028 281 1028 281 954 281 c 0,8,9
 838 281 838 281 775 349 c 128,-1,10
 712 417 712 417 712 528 c 0,11,12
 712 761 712 761 762 1046 c 0,13,14
 797.301222142 1251.38892883 797.301222142 1251.38892883 893.5 1324.5 c 0,15,16
 975.736842105 1387 975.736842105 1387 1119 1387 c 0,17,18
 1235.44444444 1387 1235.44444444 1387 1247.5 1371.5 c 0,19,20
 1251 1367 1251 1367 1251 1358 c 1,21,-1
 1233 1218 l 1,22,23
 1232 1201 1232 1201 1218 1201 c 1,24,-1
 1105 1212 l 1,25,26
 1041 1212 1041 1212 1007 1177.5 c 128,-1,27
 973 1143 973 1143 956 1045 c 128,-1,28
 939 947 939 947 923 797 c 128,-1,29
 907 647 907 647 907 555 c 128,-1,30
 907 463 907 463 995 463 c 1,0,-1
301.5 359.5 m 128,-1,32
 211 533 211 533 211 772.5 c 128,-1,33
 211 1012 211 1012 320 1222.5 c 128,-1,34
 429 1433 429 1433 629.5 1554.5 c 128,-1,35
 830 1676 830 1676 1085 1676 c 0,36,37
 1248 1676 1248 1676 1387 1616.5 c 128,-1,38
 1526 1557 1526 1557 1620.5 1454.5 c 128,-1,39
 1715 1352 1715 1352 1768.5 1210.5 c 128,-1,40
 1822 1069 1822 1069 1822 908 c 0,41,42
 1822 646 1822 646 1713 436 c 128,-1,43
 1604 226 1604 226 1403.5 105.5 c 128,-1,44
 1203 -15 1203 -15 966 -15 c 128,-1,45
 729 -15 729 -15 560.5 85.5 c 128,-1,31
 392 186 392 186 301.5 359.5 c 128,-1,32
491 1136 m 128,-1,47
 411 973 411 973 411 786.5 c 128,-1,48
 411 600 411 600 477 465 c 128,-1,49
 543 330 543 330 670.5 250.5 c 128,-1,50
 798 171 798 171 980 171 c 128,-1,51
 1162 171 1162 171 1312.5 265.5 c 128,-1,52
 1463 360 1463 360 1543 522.5 c 128,-1,53
 1623 685 1623 685 1623 870.5 c 128,-1,54
 1623 1056 1623 1056 1557 1191.5 c 128,-1,55
 1491 1327 1491 1327 1363.5 1407.5 c 128,-1,56
 1236 1488 1236 1488 1054 1488 c 128,-1,57
 872 1488 872 1488 721.5 1393.5 c 128,-1,46
 571 1299 571 1299 491 1136 c 128,-1,47
EndSplineSet
EndChar

StartChar: registered
Encoding: 174 174 143
Width: 1935
Flags: HMW
HStem: -15 186<793.5 1166 793.5 1207.5> 1488 188<868 1240>
VStem: 211 200<601 973 601 1013.5> 1117 196<1042 1142.5> 1623 199<685 1055.5>
LayerCount: 2
Fore
SplineSet
301.5 359.5 m 128,-1,1
 211 533 211 533 211 772.5 c 128,-1,2
 211 1012 211 1012 320 1222.5 c 128,-1,3
 429 1433 429 1433 629.5 1554.5 c 128,-1,4
 830 1676 830 1676 1085 1676 c 0,5,6
 1248 1676 1248 1676 1387 1616.5 c 128,-1,7
 1526 1557 1526 1557 1620.5 1454.5 c 128,-1,8
 1715 1352 1715 1352 1768.5 1210.5 c 128,-1,9
 1822 1069 1822 1069 1822 908 c 0,10,11
 1822 646 1822 646 1713 436 c 128,-1,12
 1604 226 1604 226 1403.5 105.5 c 128,-1,13
 1203 -15 1203 -15 966 -15 c 128,-1,14
 729 -15 729 -15 560.5 85.5 c 128,-1,0
 392 186 392 186 301.5 359.5 c 128,-1,1
491 1136 m 128,-1,16
 411 973 411 973 411 786.5 c 128,-1,17
 411 600 411 600 477 465 c 128,-1,18
 543 330 543 330 670.5 250.5 c 128,-1,19
 798 171 798 171 980 171 c 128,-1,20
 1162 171 1162 171 1312.5 265.5 c 128,-1,21
 1463 360 1463 360 1543 522.5 c 128,-1,22
 1623 685 1623 685 1623 870.5 c 128,-1,23
 1623 1056 1623 1056 1557 1191.5 c 128,-1,24
 1491 1327 1491 1327 1363.5 1407.5 c 128,-1,25
 1236 1488 1236 1488 1054 1488 c 128,-1,26
 872 1488 872 1488 721.5 1393.5 c 128,-1,15
 571 1299 571 1299 491 1136 c 128,-1,16
1313 1112 m 0,27,28
 1313 859 1313 859 1109 781 c 1,29,-1
 1305 328 l 1,30,31
 1305 310 1305 310 1286 309 c 2,32,-1
 1108 302 l 1,33,34
 1096 303 1096 303 1093 315 c 1,35,-1
 938 706 l 1,36,-1
 894 327 l 2,37,38
 892 310 892 310 876 309 c 2,39,-1
 708 302 l 1,40,41
 694 304 694 304 694 315 c 1,42,-1
 812 1344 l 2,43,44
 813 1356 813 1356 817.5 1359.5 c 128,-1,45
 822 1363 822 1363 837 1368 c 1,46,47
 986 1390 986 1390 1063 1390 c 0,48,49
 1313 1390 1313 1390 1313 1112 c 0,27,28
996 1200 m 1,50,-1
 960 893 l 1,51,52
 1051 902 1051 902 1084 952 c 128,-1,53
 1117 1002 1117 1002 1117 1081 c 128,-1,54
 1117 1160 1117 1160 1100 1181.5 c 128,-1,55
 1083 1203 1083 1203 1048.5 1203 c 128,-1,56
 1014 1203 1014 1203 996 1200 c 1,50,-1
EndSplineSet
EndChar

StartChar: currency
Encoding: 164 164 144
Width: 964
Flags: HMW
HStem: 119 21G<801.5 807> 256 202<440 514.5> 975 203<504.5 573.5 504.5 577> 1290 20G<258.5 264.5>
VStem: 124 211<634.5 739.5> 675 213<701 796.5 701 801>
LayerCount: 2
Fore
SplineSet
124 673 m 0,0,1
 124 878 124 878 223 1017 c 1,2,-1
 114 1179 l 1,3,4
 104 1192 104 1192 104 1199 c 0,5,6
 104 1206 104 1206 112 1213 c 1,7,-1
 240 1301 l 1,8,9
 256 1310 256 1310 264.5 1310 c 0,10,11
 273 1310 273 1310 277 1304 c 2,12,-1
 382 1148 l 1,13,14
 453 1178 453 1178 552.5 1178 c 0,15,16
 652 1178 652 1178 736 1119 c 1,17,-1
 870 1266 l 1,18,19
 880 1281 880 1281 890 1281 c 128,-1,20
 900 1281 900 1281 905 1277 c 2,21,-1
 1013 1177 l 1,22,23
 1026 1163 1026 1163 1026 1153.5 c 0,24,25
 1026 1144 1026 1144 1023 1141 c 2,26,-1
 857 959 l 1,27,-1
 854 961 l 1,28,29
 888 874 888 874 888 760 c 0,30,31
 888 582 888 582 814 452 c 1,32,-1
 951 252 l 2,33,34
 960 239 960 239 960 229.5 c 0,35,36
 960 220 960 220 954 216 c 2,37,-1
 826 127 l 2,38,39
 813 119 813 119 803.5 119 c 0,40,41
 794 119 794 119 790 124 c 2,42,-1
 667 303 l 1,43,44
 582 256 582 256 474 256 c 0,45,46
 366 256 366 256 284 308 c 1,47,-1
 160 171 l 2,48,49
 147 158 147 158 141 158 c 0,50,51
 135 158 135 158 125 162 c 1,52,-1
 16 262 l 2,53,54
 3 275 3 275 3 282 c 0,55,56
 3 289 3 289 7 297 c 1,57,-1
 160 464 l 1,58,59
 124 552 124 552 124 673 c 0,0,1
335 693 m 0,60,61
 335 458 335 458 498 458 c 0,62,63
 583 458 583 458 629 538 c 128,-1,64
 675 618 675 618 675 738 c 0,65,66
 675 975 675 975 513 975 c 0,67,68
 428 975 428 975 381.5 894.5 c 128,-1,69
 335 814 335 814 335 693 c 0,60,61
EndSplineSet
EndChar

StartChar: multiply
Encoding: 215 215 145
Width: 964
Flags: HMW
HStem: 325 21G 1065 20G<382 388.5 797.5 803>
LayerCount: 2
Fore
SplineSet
914 923 m 1,0,-1
 680 709 l 1,1,-1
 857 478 l 1,2,3
 863 472 863 472 863 463.5 c 0,4,5
 863 455 863 455 852 445 c 2,6,-1
 727 334 l 2,7,8
 716 325 716 325 710.5 325 c 0,9,10
 705 325 705 325 690 340 c 1,11,-1
 521 562 l 1,12,-1
 299 359 l 2,13,14
 286 346 286 346 279 346 c 0,15,16
 272 346 272 346 265 353 c 2,17,-1
 159 482 l 2,18,19
 154 488 154 488 154 496 c 0,20,21
 154 504 154 504 160 510 c 2,22,-1
 397 725 l 1,23,-1
 234 940 l 2,24,25
 228 948 228 948 228 956.5 c 0,26,27
 228 965 228 965 240 974 c 2,28,-1
 372 1079 l 2,29,30
 380 1085 380 1085 387 1085 c 0,31,32
 394 1085 394 1085 405 1070 c 2,33,-1
 557 870 l 1,34,-1
 779 1072 l 2,35,36
 794 1085 794 1085 800.5 1085 c 0,37,38
 807 1085 807 1085 813 1079 c 2,39,-1
 915 951 l 2,40,41
 922 941 922 941 922 934.5 c 0,42,43
 922 928 922 928 914 923 c 1,0,-1
EndSplineSet
EndChar

StartChar: uni00AD
Encoding: 173 173 146
Width: 896
Flags: HMW
HStem: 634 21G<144 144> 646 231 869 20G<821 821>
LayerCount: 2
Fore
SplineSet
166 865 m 2,0,-1
 821 889 l 1,1,2
 844 888 844 888 844 864 c 1,3,-1
 823 684 l 2,4,5
 820 660 820 660 798 659 c 2,6,-1
 144 634 l 1,7,8
 120 635 120 635 120 660 c 1,9,-1
 140 839 l 2,10,11
 142.888888889 865 142.888888889 865 166 865 c 2,0,-1
EndSplineSet
EndChar

StartChar: onequarter
Encoding: 188 188 147
Width: 1452
Flags: HMW
HStem: -27 21G<383 390.5> -11 21G<1054.5 1061> -8 341 137 196 793 190 1389 216 1619 20G<1177 1177>
LayerCount: 2
Fore
SplineSet
1313 1527 m 2,0,-1
 413 -4 l 1,1,2
 398 -27 398 -27 383 -27 c 1,3,-1
 262 39 l 2,4,5
 242 50 242 50 242 62.5 c 128,-1,6
 242 75 242 75 247 85 c 2,7,-1
 1149 1616 l 2,8,9
 1162 1638 1162 1638 1177 1639 c 1,10,-1
 1299 1573 l 2,11,12
 1319 1562 1319 1562 1319 1550 c 128,-1,13
 1319 1538 1319 1538 1313 1527 c 2,0,-1
1345 780 m 1,14,-1
 1293 332 l 1,15,-1
 1381 335 l 1,16,17
 1406 334 1406 334 1406 309 c 1,18,-1
 1391 179 l 2,19,20
 1388 153 1388 153 1365 152 c 2,21,-1
 1272 149 l 1,22,-1
 1258 20 l 2,23,24
 1255 -4 1255 -4 1233 -5 c 2,25,-1
 1061 -11 l 2,26,27
 1040 -11 1040 -11 1040 9 c 1,28,-1
 1075 142 l 1,29,-1
 797 132 l 1,30,31
 769 132 769 132 769 148 c 128,-1,32
 769 164 769 164 777 175 c 1,33,-1
 1126 774 l 2,34,35
 1141.22826087 799.380434783 1141.22826087 799.380434783 1172 801 c 2,36,-1
 1325 806 l 1,37,38
 1345 805 1345 805 1345 780 c 1,14,-1
1007 322 m 1,39,-1
 1113 326 l 1,40,-1
 1141 561 l 1,41,-1
 1007 322 l 1,39,-1
248 1601 m 2,42,-1
 499 1610 l 2,43,44
 518 1610 518 1610 518 1583 c 1,45,-1
 452 991 l 1,46,-1
 556 995 l 1,47,48
 580 994 580 994 580 969 c 1,49,-1
 563 827 l 2,50,51
 560 802 560 802 538 801 c 2,52,-1
 111 786 l 1,53,54
 86 789 86 789 86 813 c 1,55,-1
 102 956 l 2,56,57
 104 969 104 969 108.5 974.5 c 128,-1,58
 113 980 113 980 128 981 c 2,59,-1
 234 985 l 1,60,-1
 279 1392 l 1,61,-1
 154 1386 l 1,62,63
 129 1387 129 1387 129 1412 c 0,64,65
 129 1425.08695652 129 1425.08695652 169.5 1499.04347826 c 128,-1,66
 210 1573 210 1573 212 1577 c 0,67,68
 225 1600 225 1600 248 1601 c 2,42,-1
EndSplineSet
EndChar

StartChar: percent
Encoding: 37 37 148
Width: 1452
Flags: HMW
HStem: -27 21G<351 359> -15 164<1027 1122 1027 1161> 546 166<1043 1138.5> 895 167<389 485 389 525> 1457 165<405 500.5> 1619 20G<1178.5 1186>
VStem: 144 171<1192.5 1299 1192.5 1335.5> 575 172<1218 1325.5> 782 169<282 388.5 282 424> 1212 173<307 414>
LayerCount: 2
Fore
SplineSet
1322 1527 m 2,0,-1
 381 -4 l 2,1,2
 368 -27 368 -27 351 -27 c 1,3,-1
 230 39 l 2,4,5
 211 49 211 49 211 62 c 128,-1,6
 211 75 211 75 216 85 c 2,7,-1
 1158 1616 l 1,8,9
 1170 1639 1170 1639 1186 1639 c 1,10,-1
 1308 1573 l 2,11,12
 1328 1562 1328 1562 1328 1550 c 128,-1,13
 1328 1538 1328 1538 1322 1527 c 2,0,-1
215.5 986 m 128,-1,15
 144 1077 144 1077 144 1236 c 128,-1,16
 144 1395 144 1395 232 1508.5 c 128,-1,17
 320 1622 320 1622 462 1622 c 128,-1,18
 604 1622 604 1622 675.5 1531.5 c 128,-1,19
 747 1441 747 1441 747 1280.5 c 128,-1,20
 747 1120 747 1120 659.5 1007.5 c 128,-1,21
 572 895 572 895 429.5 895 c 128,-1,14
 287 895 287 895 215.5 986 c 128,-1,15
315 1240 m 0,22,23
 315 1062 315 1062 439 1062 c 0,24,25
 505 1062 505 1062 540 1122.5 c 128,-1,26
 575 1183 575 1183 575 1278 c 0,27,28
 575 1457 575 1457 451 1457 c 0,29,30
 385 1457 385 1457 350 1395.5 c 128,-1,31
 315 1334 315 1334 315 1240 c 0,22,23
853 75.5 m 128,-1,33
 782 166 782 166 782 325 c 128,-1,34
 782 484 782 484 869.5 598 c 128,-1,35
 957 712 957 712 1099 712 c 128,-1,36
 1241 712 1241 712 1313 620.5 c 128,-1,37
 1385 529 1385 529 1385 369 c 128,-1,38
 1385 209 1385 209 1296.5 97 c 128,-1,39
 1208 -15 1208 -15 1066 -15 c 128,-1,32
 924 -15 924 -15 853 75.5 c 128,-1,33
951 329 m 0,40,41
 951 149 951 149 1077 149 c 0,42,43
 1142 149 1142 149 1177 210.5 c 128,-1,44
 1212 272 1212 272 1212 366 c 0,45,46
 1212 546 1212 546 1089 546 c 0,47,48
 1023 546 1023 546 987 484.5 c 128,-1,49
 951 423 951 423 951 329 c 0,40,41
EndSplineSet
EndChar

StartChar: numbersign
Encoding: 35 35 149
Width: 1295
Flags: HMW
HStem: -4 21G<265 265 673 673> 398 210 426 213 966 210 994 211 1601 20G<715 715 1123 1123>
LayerCount: 2
Fore
SplineSet
740 1596 m 1,0,-1
 665 1188 l 1,1,-1
 869 1195 l 1,2,-1
 942 1590 l 2,3,4
 944 1603 944 1603 949 1608 c 128,-1,5
 954 1613 954 1613 968 1615 c 1,6,-1
 1123 1621 l 1,7,8
 1148 1619 1148 1619 1148 1596 c 1,9,-1
 1075 1202 l 1,10,-1
 1262 1209 l 1,11,12
 1285 1208 1285 1208 1285 1183 c 1,13,-1
 1266 1023 l 2,14,15
 1263 999 1263 999 1241 998 c 2,16,-1
 1036 991 l 1,17,-1
 970 635 l 1,18,-1
 1196 643 l 1,19,20
 1221 642 1221 642 1221 616 c 1,21,-1
 1201 457 l 1,22,23
 1198 444 1198 444 1193.5 438 c 128,-1,24
 1189 432 1189 432 1176 431 c 2,25,-1
 931 422 l 1,26,-1
 859 29 l 2,27,28
 855.325581395 10.6279069767 855.325581395 10.6279069767 849.162790698 6.31395348837 c 128,-1,29
 843 2 843 2 833 2 c 2,30,-1
 673 -4 l 1,31,32
 652 -2 652 -2 652 15 c 1,33,-1
 725 415 l 1,34,-1
 521 408 l 1,35,-1
 451 29 l 2,36,37
 447.325581395 10.6279069767 447.325581395 10.6279069767 441.162790698 6.31395348837 c 128,-1,38
 435 2 435 2 425 2 c 2,39,-1
 265 -4 l 1,40,41
 244 -2 244 -2 244 15 c 1,42,-1
 315 401 l 1,43,-1
 130 395 l 1,44,45
 105 396 105 396 105 419 c 1,46,-1
 122 580 l 2,47,48
 123.944134078 603.329608939 123.944134078 603.329608939 149 605 c 2,49,-1
 354 612 l 1,50,-1
 420 970 l 1,51,-1
 194 962 l 1,52,53
 169 963 169 963 169 986 c 1,54,-1
 187 1146 l 2,55,56
 189.888888889 1172 189.888888889 1172 213 1172 c 2,57,-1
 458 1180 l 1,58,-1
 534 1590 l 2,59,60
 537.580838323 1613.2754491 537.580838323 1613.2754491 560 1615 c 2,61,-1
 715 1621 l 1,62,63
 740 1619 740 1619 740 1596 c 1,0,-1
626 977 m 1,64,-1
 560 620 l 1,65,-1
 764 627 l 1,66,-1
 830 984 l 1,67,-1
 626 977 l 1,64,-1
EndSplineSet
EndChar

StartChar: asciitilde
Encoding: 126 126 150
Width: 1031
Flags: HMW
HStem: 701 21G<160.5 172> 726 236<748 784> 754 234<333.5 369> 995 20G<945 956>
LayerCount: 2
Fore
SplineSet
253.5 952 m 0,0,1
 317 988 317 988 385.5 988 c 128,-1,2
 454 988 454 988 583 975 c 128,-1,3
 712 962 712 962 761 962 c 128,-1,4
 810 962 810 962 875 988.5 c 128,-1,5
 940 1015 940 1015 949 1015 c 0,6,7
 972 1015 972 1015 974 997 c 2,8,-1
 989 880 l 1,9,10
 988 856 988 856 967 837 c 0,11,12
 846 726 846 726 731 726 c 0,13,14
 662 726 662 726 540.5 740 c 128,-1,15
 419 754 419 754 362 754 c 128,-1,16
 305 754 305 754 241 727.5 c 128,-1,17
 177 701 177 701 160 701 c 128,-1,18
 143 701 143 701 142 717 c 1,19,-1
 127 835 l 1,20,21
 133.37818854 883.899445471 133.37818854 883.899445471 253.5 952 c 0,0,1
EndSplineSet
EndChar

StartChar: onesuperior
Encoding: 185 185 151
Width: 690
Flags: HMW
HStem: 842 21G<182 182> 849 190 1445 216 1646 20G<570 577.5>
LayerCount: 2
Fore
SplineSet
319 1657 m 2,0,-1
 570 1666 l 2,1,2
 589 1666 589 1666 589 1639 c 1,3,-1
 523 1047 l 1,4,-1
 627 1051 l 1,5,6
 651 1050 651 1050 651 1025 c 1,7,-1
 634 883 l 2,8,9
 631 858 631 858 609 857 c 2,10,-1
 182 842 l 1,11,12
 157 845 157 845 157 869 c 1,13,-1
 173 1012 l 2,14,15
 175 1025 175 1025 179.5 1030.5 c 128,-1,16
 184 1036 184 1036 199 1037 c 2,17,-1
 305 1041 l 1,18,-1
 350 1448 l 1,19,-1
 225 1442 l 1,20,21
 200 1443 200 1443 200 1468 c 0,22,23
 200 1481.08695652 200 1481.08695652 240.5 1555.04347826 c 128,-1,24
 281 1629 281 1629 283 1633 c 0,25,26
 296 1656 296 1656 319 1657 c 2,0,-1
EndSplineSet
EndChar

StartChar: twosuperior
Encoding: 178 178 152
Width: 690
Flags: HMW
HStem: 842 21G<157 157> 850 200 1472 198<406 417>
VStem: 482 212<1389.5 1430>
LayerCount: 2
Fore
SplineSet
618 858 m 1,0,-1
 157 842 l 1,1,2
 131 843 131 843 131 865 c 0,3,4
 131 909 131 909 143 973 c 128,-1,5
 155 1037 155 1037 205.5 1097.5 c 128,-1,6
 256 1158 256 1158 332.5 1229 c 128,-1,7
 409 1300 409 1300 445.5 1341.5 c 128,-1,8
 482 1383 482 1383 482 1411 c 128,-1,9
 482 1439 482 1439 456.5 1455.5 c 128,-1,10
 431 1472 431 1472 392.5 1472 c 128,-1,11
 354 1472 354 1472 294 1459.5 c 128,-1,12
 234 1447 234 1447 210.5 1447 c 128,-1,13
 187 1447 187 1447 187 1475 c 1,14,-1
 204 1617 l 2,15,16
 206 1630 206 1630 210.5 1635 c 128,-1,17
 215 1640 215 1640 272 1655 c 128,-1,18
 329 1670 329 1670 440.5 1670 c 128,-1,19
 552 1670 552 1670 623 1612.5 c 128,-1,20
 694 1555 694 1555 694 1437 c 0,21,22
 694 1361.71428571 694 1361.71428571 659 1313.85714286 c 0,23,24
 611.065019506 1248.31339402 611.065019506 1248.31339402 536.532509753 1175.65669701 c 128,-1,25
 462 1103 462 1103 416 1046 c 1,26,-1
 636 1054 l 1,27,28
 660 1053 660 1053 660 1025 c 1,29,-1
 645 883 l 2,30,31
 643 860 643 860 618 858 c 1,0,-1
EndSplineSet
EndChar

StartChar: threesuperior
Encoding: 179 179 153
Width: 690
Flags: HMW
HStem: 841 175<355 401 355 465> 841 417<336 556.5> 1181 489<297 499 306 499> 1472 198<406 417>
VStem: 473 212<1072 1135.5>
LayerCount: 2
Fore
SplineSet
373 1016 m 0,0,1
 473 1016 473 1016 473 1102 c 0,2,3
 473 1149 473 1149 444 1165 c 128,-1,4
 415 1181 415 1181 356 1181 c 2,5,-1
 306 1181 l 2,6,7
 284 1181 284 1181 284 1208 c 1,8,-1
 296 1281 l 2,9,10
 299 1303 299 1303 321 1306 c 0,11,12
 415 1320 415 1320 448.5 1342.5 c 128,-1,13
 482 1365 482 1365 482 1402 c 0,14,15
 482 1472 482 1472 392 1472 c 0,16,17
 355 1472 355 1472 294 1458.5 c 128,-1,18
 233 1445 233 1445 210 1445 c 128,-1,19
 187 1445 187 1445 187 1473 c 1,20,-1
 204 1615 l 2,21,22
 205 1628 205 1628 210 1632.5 c 128,-1,23
 215 1637 215 1637 229 1642 c 0,24,25
 320 1670 320 1670 439 1670 c 0,26,27
 695 1670 695 1670 695 1486 c 128,-1,28
 695 1302 695 1302 488 1258 c 1,29,30
 587 1258 587 1258 636 1212 c 128,-1,31
 685 1166 685 1166 685 1070.5 c 128,-1,32
 685 975 685 975 599 908 c 128,-1,33
 513 841 513 841 369 841 c 0,34,35
 256 841 256 841 169 865 c 0,36,37
 160 868 160 868 156 869 c 128,-1,38
 152 870 152 870 149 871.5 c 128,-1,39
 146 873 146 873 144.5 874.5 c 128,-1,40
 143 876 143 876 141.5 878.5 c 0,41,42
 139 882.666666667 139 882.666666667 139 894 c 1,43,-1
 153 1018 l 2,44,45
 153.202091788 1019.41464251 153.202091788 1019.41464251 154.405451651 1029.0563557 c 0,46,47
 156.020917878 1042 156.020917878 1042 174 1042 c 128,-1,48
 192 1042 192 1042 253.5 1029 c 128,-1,49
 315 1016 315 1016 373 1016 c 0,0,1
EndSplineSet
EndChar

StartChar: onehalf
Encoding: 189 189 154
Width: 1452
Flags: HMW
HStem: -27 21G<383 390.5> -4 200 618 198<1141 1152> 793 190 1389 216 1619 20G<1177 1177>
VStem: 1217 212<535.5 576>
LayerCount: 2
Fore
SplineSet
1313 1527 m 2,0,-1
 413 -4 l 1,1,2
 398 -27 398 -27 383 -27 c 1,3,-1
 262 39 l 2,4,5
 242 50 242 50 242 62.5 c 128,-1,6
 242 75 242 75 247 85 c 2,7,-1
 1149 1616 l 2,8,9
 1162 1638 1162 1638 1177 1639 c 1,10,-1
 1299 1573 l 2,11,12
 1319 1562 1319 1562 1319 1550 c 128,-1,13
 1319 1538 1319 1538 1313 1527 c 2,0,-1
248 1601 m 2,14,-1
 499 1610 l 2,15,16
 518 1610 518 1610 518 1583 c 1,17,-1
 452 991 l 1,18,-1
 556 995 l 1,19,20
 580 994 580 994 580 969 c 1,21,-1
 563 827 l 2,22,23
 560 802 560 802 538 801 c 2,24,-1
 111 786 l 1,25,26
 86 789 86 789 86 813 c 1,27,-1
 102 956 l 2,28,29
 104 969 104 969 108.5 974.5 c 128,-1,30
 113 980 113 980 128 981 c 2,31,-1
 234 985 l 1,32,-1
 279 1392 l 1,33,-1
 154 1386 l 1,34,35
 129 1387 129 1387 129 1412 c 0,36,37
 129 1425.08695652 129 1425.08695652 169.5 1499.04347826 c 128,-1,38
 210 1573 210 1573 212 1577 c 0,39,40
 225 1600 225 1600 248 1601 c 2,14,-1
1353 4 m 1,41,-1
 892 -12 l 1,42,43
 866 -11 866 -11 866 11 c 0,44,45
 866 55 866 55 878 119 c 128,-1,46
 890 183 890 183 940.5 243.5 c 128,-1,47
 991 304 991 304 1067.5 375 c 128,-1,48
 1144 446 1144 446 1180.5 487.5 c 128,-1,49
 1217 529 1217 529 1217 557 c 128,-1,50
 1217 585 1217 585 1191.5 601.5 c 128,-1,51
 1166 618 1166 618 1127.5 618 c 128,-1,52
 1089 618 1089 618 1029 605.5 c 128,-1,53
 969 593 969 593 945.5 593 c 128,-1,54
 922 593 922 593 922 621 c 1,55,-1
 939 763 l 2,56,57
 941 776 941 776 945.5 781 c 128,-1,58
 950 786 950 786 1007 801 c 128,-1,59
 1064 816 1064 816 1175.5 816 c 128,-1,60
 1287 816 1287 816 1358 758.5 c 128,-1,61
 1429 701 1429 701 1429 583 c 0,62,63
 1429 507.714285714 1429 507.714285714 1394 459.857142857 c 0,64,65
 1346.06501951 394.313394018 1346.06501951 394.313394018 1271.53250975 321.656697009 c 128,-1,66
 1197 249 1197 249 1151 192 c 1,67,-1
 1371 200 l 1,68,69
 1395 199 1395 199 1395 171 c 1,70,-1
 1380 29 l 2,71,72
 1378 6 1378 6 1353 4 c 1,41,-1
EndSplineSet
EndChar

StartChar: threequarters
Encoding: 190 190 155
Width: 1452
Flags: HMW
HStem: -27 21G<383 390.5> -11 21G<1054.5 1061> -8 341 137 196 793 190 1389 216 1619 20G<1177 1177>
LayerCount: 2
Fore
SplineSet
1313 1527 m 2,0,-1
 413 -4 l 1,1,2
 398 -27 398 -27 383 -27 c 1,3,-1
 262 39 l 2,4,5
 242 50 242 50 242 62.5 c 128,-1,6
 242 75 242 75 247 85 c 2,7,-1
 1149 1616 l 2,8,9
 1162 1638 1162 1638 1177 1639 c 1,10,-1
 1299 1573 l 2,11,12
 1319 1562 1319 1562 1319 1550 c 128,-1,13
 1319 1538 1319 1538 1313 1527 c 2,0,-1
1345 780 m 1,14,-1
 1293 332 l 1,15,-1
 1381 335 l 1,16,17
 1406 334 1406 334 1406 309 c 1,18,-1
 1391 179 l 2,19,20
 1388 153 1388 153 1365 152 c 2,21,-1
 1272 149 l 1,22,-1
 1258 20 l 2,23,24
 1255 -4 1255 -4 1233 -5 c 2,25,-1
 1061 -11 l 2,26,27
 1040 -11 1040 -11 1040 9 c 1,28,-1
 1075 142 l 1,29,-1
 797 132 l 1,30,31
 769 132 769 132 769 148 c 128,-1,32
 769 164 769 164 777 175 c 1,33,-1
 1126 774 l 2,34,35
 1141.22826087 799.380434783 1141.22826087 799.380434783 1172 801 c 2,36,-1
 1325 806 l 1,37,38
 1345 805 1345 805 1345 780 c 1,14,-1
1007 322 m 1,39,-1
 1113 326 l 1,40,-1
 1141 561 l 1,41,-1
 1007 322 l 1,39,-1
248 1601 m 2,42,-1
 499 1610 l 2,43,44
 518 1610 518 1610 518 1583 c 1,45,-1
 452 991 l 1,46,-1
 556 995 l 1,47,48
 580 994 580 994 580 969 c 1,49,-1
 563 827 l 2,50,51
 560 802 560 802 538 801 c 2,52,-1
 111 786 l 1,53,54
 86 789 86 789 86 813 c 1,55,-1
 102 956 l 2,56,57
 104 969 104 969 108.5 974.5 c 128,-1,58
 113 980 113 980 128 981 c 2,59,-1
 234 985 l 1,60,-1
 279 1392 l 1,61,-1
 154 1386 l 1,62,63
 129 1387 129 1387 129 1412 c 0,64,65
 129 1425.08695652 129 1425.08695652 169.5 1499.04347826 c 128,-1,66
 210 1573 210 1573 212 1577 c 0,67,68
 225 1600 225 1600 248 1601 c 2,42,-1
EndSplineSet
EndChar

StartChar: less
Encoding: 60 60 156
Width: 964
Flags: HMW
HStem: 206 21G<580 586.5> 1070 20G<672 677.5>
LayerCount: 2
Fore
SplineSet
483 668 m 1,0,-1
 745 351 l 2,1,2
 752 344 752 344 752 336 c 128,-1,3
 752 328 752 328 741 318 c 1,4,-1
 599 214 l 2,5,6
 589 206 589 206 583.5 206 c 128,-1,7
 578 206 578 206 563 221 c 1,8,-1
 219 625 l 2,9,10
 213 632 213 632 213 637.5 c 0,11,12
 213 713 213 713 234 734 c 1,13,-1
 654 1077 l 1,14,15
 667 1090 667 1090 674.5 1090 c 128,-1,16
 682 1090 682 1090 688 1084 c 2,17,-1
 811 954 l 1,18,19
 816 946 816 946 816 939 c 128,-1,20
 816 932 816 932 810 926 c 2,21,-1
 483 668 l 1,0,-1
EndSplineSet
EndChar

StartChar: greater
Encoding: 62 62 157
Width: 964
Flags: HMW
HStem: 206 21G<336.5 342> 1070 20G<427.5 434>
LayerCount: 2
Fore
SplineSet
531 628 m 1,0,-1
 269 945 l 2,1,2
 262 952 262 952 262 960 c 128,-1,3
 262 968 262 968 273 978 c 1,4,-1
 415 1082 l 2,5,6
 425 1090 425 1090 430.5 1090 c 128,-1,7
 436 1090 436 1090 451 1075 c 1,8,-1
 795 671 l 2,9,10
 801 664 801 664 801 658.5 c 0,11,12
 801 583 801 583 780 562 c 1,13,-1
 360 219 l 1,14,15
 347 206 347 206 339.5 206 c 128,-1,16
 332 206 332 206 326 212 c 2,17,-1
 203 342 l 1,18,19
 198 350 198 350 198 357 c 128,-1,20
 198 364 198 364 204 370 c 2,21,-1
 531 628 l 1,0,-1
EndSplineSet
EndChar

StartChar: ordfeminine
Encoding: 170 170 158
Width: 903
Flags: HMW
HStem: 805 163<332 516.5> 1450 153 1596 20G<405 518>
VStem: 193 213<1089 1135.5> 406 200<1089 1330.5>
LayerCount: 2
Fore
SplineSet
563 926 m 1,0,1
 501.508196721 805 501.508196721 805 400.754098361 805 c 128,-1,2
 300 805 300 805 246.5 886.5 c 128,-1,3
 193 968 193 968 193 1090 c 128,-1,4
 193 1212 193 1212 218 1333 c 0,5,6
 275 1616 275 1616 479 1616 c 0,7,8
 534 1616 534 1616 568 1581.5 c 128,-1,9
 602 1547 602 1547 626 1482 c 1,10,-1
 634 1576 l 2,11,12
 635 1599 635 1599 659 1600 c 2,13,-1
 833 1606 l 2,14,15
 852 1606 852 1606 852 1581 c 1,16,-1
 773 863 l 2,17,18
 770 837 770 837 747 836 c 2,19,-1
 575 829 l 1,20,21
 553 831 553 831 553 849 c 1,22,-1
 563 926 l 1,0,1
425 1303 m 1,23,24
 406 1211.8 406 1211.8 406 1151.9 c 128,-1,25
 406 1092 406 1092 409.5 1069.5 c 128,-1,26
 413 1047 413 1047 422 1022.5 c 0,27,28
 442.020408163 968 442.020408163 968 486.010204082 968 c 128,-1,29
 530 968 530 968 552 999 c 128,-1,30
 574 1030 574 1030 590 1128 c 128,-1,31
 606 1226 606 1226 606 1278.5 c 128,-1,32
 606 1331 606 1331 604.5 1350 c 128,-1,33
 603 1369 603 1369 597 1395.5 c 0,34,35
 584.660377358 1450 584.660377358 1450 537 1450 c 0,36,37
 451 1450 451 1450 425 1303 c 1,23,24
EndSplineSet
EndChar

StartChar: ordmasculine
Encoding: 186 186 159
Width: 883
Flags: HMW
HStem: 805 165<449 521.5 449 582> 1453 163<495 566>
VStem: 193 214<1089.5 1135.5> 607 213<1284.5 1330.5>
LayerCount: 2
Fore
SplineSet
607 1306 m 0,0,1
 607 1453 607 1453 532 1453 c 0,2,3
 497 1453 497 1453 474 1429 c 0,4,5
 440.298416565 1393.83313033 440.298416565 1393.83313033 423.649208283 1291.91656516 c 128,-1,6
 407 1190 407 1190 407 1116 c 0,7,8
 407 970 407 970 487 970 c 0,9,10
 534 970 534 970 554 1005 c 128,-1,11
 574 1040 574 1040 590.5 1127.5 c 128,-1,12
 607 1215 607 1215 607 1306 c 0,0,1
265.5 880.5 m 128,-1,14
 193 956 193 956 193 1080.5 c 128,-1,15
 193 1205 193 1205 211 1296.5 c 128,-1,16
 229 1388 229 1388 250 1434 c 128,-1,17
 271 1480 271 1480 307.5 1523.5 c 0,18,19
 385.114942529 1616 385.114942529 1616 529.557471264 1616 c 128,-1,20
 674 1616 674 1616 747 1538.5 c 128,-1,21
 820 1461 820 1461 820 1338 c 128,-1,22
 820 1215 820 1215 801 1118.5 c 128,-1,23
 782 1022 782 1022 761 974 c 128,-1,24
 740 926 740 926 704 886 c 0,25,26
 631.1 805 631.1 805 484.55 805 c 128,-1,13
 338 805 338 805 265.5 880.5 c 128,-1,14
EndSplineSet
EndChar

StartChar: degree
Encoding: 176 176 160
Width: 840
Flags: HMW
HStem: 918 166<429 525 429 565> 1457 165<445 540.5>
VStem: 184 171<1203.5 1311 1203.5 1346.5> 615 172<1230 1336.5>
LayerCount: 2
Fore
SplineSet
255 1004 m 128,-1,1
 184 1090 184 1090 184 1247.5 c 128,-1,2
 184 1405 184 1405 271.5 1513.5 c 128,-1,3
 359 1622 359 1622 502 1622 c 128,-1,4
 645 1622 645 1622 716 1536 c 128,-1,5
 787 1450 787 1450 787 1291 c 128,-1,6
 787 1132 787 1132 700 1025 c 128,-1,7
 613 918 613 918 469.5 918 c 128,-1,0
 326 918 326 918 255 1004 c 128,-1,1
389.5 1401 m 128,-1,9
 355 1345 355 1345 355 1258 c 128,-1,10
 355 1171 355 1171 382 1127.5 c 128,-1,11
 409 1084 409 1084 477.5 1084 c 128,-1,12
 546 1084 546 1084 580.5 1140.5 c 128,-1,13
 615 1197 615 1197 615 1282.5 c 128,-1,14
 615 1368 615 1368 587.5 1412.5 c 128,-1,15
 560 1457 560 1457 492 1457 c 128,-1,8
 424 1457 424 1457 389.5 1401 c 128,-1,9
EndSplineSet
EndChar

StartChar: Oslash
Encoding: 216 216 161
Width: 1047
Flags: HMW
HStem: -137 21G<287 295> -15 236<473.5 544 473.5 629.5> 1338 236<589.5 661> 1679 20G<823.5 831>
VStem: 138 255<320 421.5> 739 255<1135.5 1238>
LayerCount: 2
Fore
SplineSet
877 1670 m 1,0,-1
 312 -117 l 2,1,2
 305.333333333 -137 305.333333333 -137 287 -137 c 1,3,-1
 256 -130 l 2,4,5
 236 -125 236 -125 236 -112 c 1,6,-1
 803 1682 l 2,7,8
 809 1699 809 1699 831 1699 c 1,9,-1
 855 1694 l 2,10,11
 877 1688.5 877 1688.5 877 1670 c 1,0,-1
224 85 m 128,-1,13
 138 185 138 185 138 335 c 0,14,15
 138 716.846153846 138 716.846153846 215 1090 c 0,16,17
 276.153353659 1382.89237805 276.153353659 1382.89237805 384.5 1481.5 c 0,18,19
 486.135802469 1574 486.135802469 1574 653.567901235 1574 c 128,-1,20
 821 1574 821 1574 907.5 1473 c 128,-1,21
 994 1372 994 1372 994 1224.5 c 128,-1,22
 994 1077 994 1077 975 867.5 c 128,-1,23
 956 658 956 658 928 517.5 c 128,-1,24
 900 377 900 377 880.5 312.5 c 128,-1,25
 861 248 861 248 827 182 c 128,-1,26
 793 116 793 116 748.5 76 c 0,27,28
 647.2625 -15 647.2625 -15 478.63125 -15 c 128,-1,12
 310 -15 310 -15 224 85 c 128,-1,13
504 221 m 0,29,30
 631 221 631 221 667 455 c 0,31,32
 691 610 691 610 715 841 c 128,-1,33
 739 1072 739 1072 739 1166 c 128,-1,34
 739 1260 739 1260 708.5 1299 c 128,-1,35
 678 1338 678 1338 622.5 1338 c 0,36,37
 506.36 1338 506.36 1338 465 1103 c 0,38,39
 441 965 441 965 417 728.5 c 128,-1,40
 393 492 393 492 393 395 c 128,-1,41
 393 298 393 298 424.5 259.5 c 128,-1,42
 456 221 456 221 504 221 c 0,29,30
EndSplineSet
EndChar

StartChar: oslash
Encoding: 248 248 162
Width: 1023
Flags: HMW
HStem: -112 21G<321 329.5> -11 200<441.5 530 441.5 630.5> 1011 207<536 625> 1315 20G<735 742>
VStem: 131 240<320 431 320 447.5> 696 241<788.5 880.5>
LayerCount: 2
Fore
SplineSet
789 1304 m 1,0,-1
 348 -92 l 2,1,2
 341.333333333 -112 341.333333333 -112 321 -112 c 1,3,-1
 292 -105 l 2,4,5
 271 -100 271 -100 271 -87 c 1,6,-1
 715 1317 l 2,7,8
 721 1335 721 1335 742 1335 c 1,9,-1
 767 1329 l 1,10,11
 789 1325 789 1325 789 1304 c 1,0,-1
213.5 95.5 m 128,-1,13
 131 202 131 202 131 406 c 0,14,15
 131 501 131 501 152 654 c 128,-1,16
 173 807 173 807 191 876.5 c 128,-1,17
 209 946 209 946 242 1012.5 c 128,-1,18
 275 1079 275 1079 320 1122.5 c 0,19,20
 418.793103448 1218 418.793103448 1218 588 1218 c 0,21,22
 827.98245614 1218 827.98245614 1218 899 1042 c 0,23,24
 937 947.826086957 937 947.826086957 937 814.413043478 c 128,-1,25
 937 681 937 681 916.5 538 c 128,-1,26
 896 395 896 395 878 326.5 c 128,-1,27
 860 258 860 258 827.5 192.5 c 128,-1,28
 795 127 795 127 750 84 c 0,29,30
 650.581395349 -11 650.581395349 -11 473.290697674 -11 c 128,-1,12
 296 -11 296 -11 213.5 95.5 c 128,-1,13
650 427 m 1,31,32
 661 480 661 480 678.5 625.5 c 128,-1,33
 696 771 696 771 696 841 c 0,34,35
 696 1011 696 1011 573 1011 c 0,36,37
 515 1011 515 1011 477.5 956 c 128,-1,38
 440 901 440 901 417 773 c 0,39,40
 371 513 371 513 371 351 c 128,-1,41
 371 189 371 189 493 189 c 0,42,43
 551 189 551 189 589.5 244.5 c 128,-1,44
 628 300 628 300 650 427 c 1,31,32
EndSplineSet
EndChar

StartChar: kgreenlandic
Encoding: 312 312 163
Width: 968
Flags: HMW
HStem: -4 21G<116 116 632 632> 1189 20G<487 487 919 919>
LayerCount: 2
Fore
SplineSet
872 21 m 0,0,1
 872 3 872 3 845 3 c 2,2,-1
 632 -4 l 1,3,4
 617 -3 617 -3 610 15 c 2,5,-1
 420 551 l 1,6,-1
 343 30 l 2,7,8
 341 16 341 16 336 10 c 128,-1,9
 331 4 331 4 317 3 c 2,10,-1
 116 -4 l 1,11,12
 94 -2 94 -2 94 15 c 1,13,-1
 265 1175 l 2,14,15
 267 1190 267 1190 272 1195.5 c 128,-1,16
 277 1201 277 1201 291 1202 c 2,17,-1
 487 1209 l 1,18,19
 513 1206 513 1206 513 1182 c 1,20,-1
 444 713 l 1,21,-1
 679 1177 l 2,22,23
 691 1201 691 1201 712 1202 c 2,24,-1
 919 1209 l 1,25,26
 944 1206.5 944 1206.5 944 1186 c 0,27,28
 944 1175 944 1175 940 1166 c 1,29,-1
 641 647 l 1,30,-1
 869 33 l 2,31,32
 872 26 872 26 872 21 c 0,0,1
EndSplineSet
EndChar

StartChar: cedilla
Encoding: 184 184 164
Width: 877
Flags: HMW
HStem: -483 137<381 429.5 379 491.5> -206 139 51 20G<322 322>
VStem: 264 405<-324.5 -120.5> 512 157<-297.5 -240.5>
LayerCount: 2
Fore
SplineSet
452 -195 m 1,0,-1
 338 -206 l 1,1,2
 309 -206 309 -206 286.5 -182 c 128,-1,3
 264 -158 264 -158 264 -129 c 128,-1,4
 264 -100 264 -100 322 71 c 1,5,-1
 412 61 l 1,6,-1
 375 -87 l 1,7,8
 457 -67 457 -67 517.5 -67 c 128,-1,9
 578 -67 578 -67 623.5 -110.5 c 128,-1,10
 669 -154 669 -154 669 -258 c 128,-1,11
 669 -362 669 -362 601.5 -422.5 c 128,-1,12
 534 -483 534 -483 416 -483 c 0,13,14
 366 -483 366 -483 309.5 -472 c 128,-1,15
 253 -461 253 -461 230 -450.5 c 128,-1,16
 207 -440 207 -440 207 -421.5 c 128,-1,17
 207 -403 207 -403 217 -328 c 0,18,19
 220 -312 220 -312 234.5 -312 c 128,-1,20
 249 -312 249 -312 300 -329 c 128,-1,21
 351 -346 351 -346 395 -346 c 0,22,23
 512 -346 512 -346 512 -267 c 0,24,25
 512 -230 512 -230 495 -212.5 c 128,-1,26
 478 -195 478 -195 452 -195 c 1,0,-1
EndSplineSet
EndChar

StartChar: asciicircum
Encoding: 94 94 165
Width: 964
Flags: HMW
HStem: 655 21G<814 820.5> 1299 20G<580.5 584>
LayerCount: 2
Fore
SplineSet
524 1046 m 1,0,-1
 228 671 l 2,1,2
 222 665 222 665 214 665 c 0,3,4
 206 665 206 665 200 670 c 2,5,-1
 71 792 l 2,6,7
 65 798 65 798 65 805.5 c 0,8,9
 65 813 65 813 78 826 c 1,10,-1
 477 1302 l 2,11,12
 484 1311 484 1311 495.5 1315 c 0,13,14
 507 1319 507 1319 548.5 1319 c 0,15,16
 590 1319 590 1319 597 1313 c 1,17,-1
 967 821 l 1,18,19
 982 808 982 808 982 801.5 c 0,20,21
 982 795 982 795 974 785 c 1,22,-1
 837 666 l 1,23,24
 827 655 827 655 817.5 655 c 0,25,26
 808 655 808 655 803 662 c 2,27,-1
 524 1046 l 1,0,-1
EndSplineSet
EndChar

StartChar: asterisk
Encoding: 42 42 166
Width: 992
Flags: HMW
HStem: 884 21G<598.5 605.5> 1659 20G<599 600> 1660 20G<589.5 595>
LayerCount: 2
Fore
SplineSet
594 1680 m 1,0,-1
 753 1642 l 2,1,2
 774 1637 774 1637 774 1612 c 1,3,-1
 637 1336 l 1,4,-1
 917 1381 l 1,5,6
 936 1379 936 1379 940 1361 c 1,7,-1
 954 1205 l 1,8,9
 954 1177 954 1177 932 1177 c 1,10,-1
 649 1218 l 1,11,-1
 772 975 l 2,12,13
 773 972 773 972 773 963 c 128,-1,14
 773 954 773 954 762 947 c 1,15,-1
 617 886 l 1,16,17
 609 884 609 884 599 884 c 128,-1,18
 589 884 589 884 582 896 c 1,19,-1
 535 1190 l 1,20,-1
 328 983 l 2,21,22
 322 977 322 977 314 977 c 128,-1,23
 306 977 306 977 301 985 c 1,24,-1
 195 1102 l 1,25,26
 188 1116 188 1116 188 1124 c 128,-1,27
 188 1132 188 1132 195 1138 c 1,28,-1
 463 1278 l 1,29,-1
 213 1406 l 2,30,31
 202 1412 202 1412 202 1420.25 c 128,-1,32
 202 1428.5 202 1428.5 205 1436 c 1,33,-1
 285 1571 l 1,34,35
 296 1586 296 1586 305 1586 c 128,-1,36
 314 1586 314 1586 319 1583 c 1,37,-1
 530 1375 l 1,38,-1
 575 1662 l 1,39,40
 580 1680 580 1680 594 1680 c 1,0,-1
EndSplineSet
EndChar

StartChar: lslash
Encoding: 322 322 167
Width: 545
Flags: HMW
HStem: -4 21G<128 128> 1672 20G<513 513>
LayerCount: 2
Fore
SplineSet
8 637 m 2,0,-1
 649 1004 l 1,1,2
 653 1008 653 1008 662 1008 c 128,-1,3
 671 1008 671 1008 679 1001.5 c 128,-1,4
 687 995 687 995 687 987 c 2,5,-1
 667 814 l 2,6,7
 665.48 794.24 665.48 794.24 641 782 c 1,8,-1
 -5 412 l 2,9,10
 -9 409 -9 409 -17 409 c 128,-1,11
 -25 409 -25 409 -31.5 416 c 128,-1,12
 -38 423 -38 423 -38 432 c 2,13,-1
 -19 608 l 2,14,15
 -18 623 -18 623 8 637 c 2,0,-1
539 1665 m 1,16,-1
 355 31 l 2,17,18
 353 17 353 17 348 11 c 128,-1,19
 343 5 343 5 329 4 c 2,20,-1
 128 -4 l 1,21,22
 106 -2 106 -2 106 15 c 1,23,-1
 291 1658 l 2,24,25
 293 1672 293 1672 298 1678 c 128,-1,26
 303 1684 303 1684 317 1685 c 2,27,-1
 513 1692 l 1,28,29
 539 1689 539 1689 539 1665 c 1,16,-1
EndSplineSet
EndChar

StartChar: ntilde
Encoding: 241 241 169
Width: 1067
Flags: HMW
HStem: -4 21G<128 128 649 649> 995 223<561.5 834> 1407 258<524 814.5> 1469 196<524 553.5>
VStem: 721 254<846.5 1000>
LayerCount: 2
Fore
SplineSet
486 1183 m 1,0,-1
 475 1091 l 1,1,2
 619 1218 619 1218 751 1218 c 0,3,4
 919.396039604 1218 919.396039604 1218 963 1034.5 c 0,5,6
 975 984 975 984 975 939.5 c 128,-1,7
 975 895 975 895 972 868 c 2,8,-1
 876 30 l 2,9,10
 872.377777778 4.64444444444 872.377777778 4.64444444444 851 3 c 2,11,-1
 649 -4 l 1,12,13
 627 -2 627 -2 627 15 c 1,14,-1
 718 807 l 2,15,16
 721 833 721 833 721 854 c 0,17,18
 721 936 721 936 682.5 965.5 c 128,-1,19
 644 995 644 995 585 995 c 128,-1,20
 526 995 526 995 462 970 c 1,21,-1
 355 30 l 2,22,23
 351.377777778 4.64444444444 351.377777778 4.64444444444 330 3 c 2,24,-1
 128 -4 l 1,25,26
 106 -2 106 -2 106 15 c 1,27,-1
 238 1178 l 1,28,29
 241.727272727 1200.36363636 241.727272727 1200.36363636 263 1202 c 2,30,-1
 459 1209 l 1,31,32
 486 1208 486 1208 486 1183 c 1,0,-1
577 1665 m 0,33,34
 622 1665 622 1665 693 1633 c 128,-1,35
 764 1601 764 1601 803 1601 c 128,-1,36
 842 1601 842 1601 899 1625.5 c 128,-1,37
 956 1650 956 1650 975 1650 c 128,-1,38
 994 1650 994 1650 996 1631 c 2,39,-1
 1002 1556 l 1,40,41
 1002 1537 1002 1537 978 1515 c 1,42,43
 870 1407 870 1407 761 1407 c 0,44,45
 715 1407 715 1407 645.5 1438 c 128,-1,46
 576 1469 576 1469 536.5 1469 c 128,-1,47
 497 1469 497 1469 438.5 1444.5 c 128,-1,48
 380 1420 380 1420 363 1420 c 128,-1,49
 346 1420 346 1420 344 1439 c 2,50,-1
 338 1514 l 1,51,52
 338 1533 338 1533 360 1555 c 0,53,54
 470 1665 470 1665 577 1665 c 0,33,34
EndSplineSet
EndChar

StartChar: uacute
Encoding: 250 250 171
Width: 1067
Flags: HMW
HStem: -11 223<280.5 552.5> 1341 460 1785 20G<899 899>
VStem: 139 254<207.5 359.5>
LayerCount: 2
Fore
SplineSet
629 21 m 1,0,-1
 637 98 l 1,1,2
 516 -11 516 -11 363 -11 c 0,3,4
 248 -11 248 -11 193.5 73 c 128,-1,5
 139 157 139 157 139 283 c 0,6,7
 139 304 139 304 143 340 c 2,8,-1
 238 1177 l 2,9,10
 241 1201 241 1201 263 1202 c 2,11,-1
 465 1210 l 1,12,13
 486 1208 486 1208 486 1189 c 1,14,-1
 396 400 l 2,15,16
 393 374.5 393 374.5 393 352 c 0,17,18
 393 268 393 268 425.5 240 c 128,-1,19
 458 212 458 212 523.5 212 c 128,-1,20
 589 212 589 212 653 237 c 1,21,-1
 759 1177 l 2,22,23
 762 1201 762 1201 784 1202 c 2,24,-1
 986 1209 l 1,25,26
 1007 1207 1007 1207 1007 1188 c 1,27,-1
 877 31 l 2,28,29
 873.525773196 6.68041237113 873.525773196 6.68041237113 850 5 c 2,30,-1
 655 -4 l 1,31,32
 629 -3 629 -3 629 21 c 1,0,-1
925 1778 m 1,33,-1
 733 1366 l 2,34,35
 723 1346 723 1346 698 1344 c 1,36,-1
 564 1339 l 1,37,38
 542 1341 542 1341 542 1359 c 1,39,-1
 677 1771 l 2,40,41
 686 1797 686 1797 710 1798 c 2,42,-1
 899 1805 l 1,43,44
 925 1803 925 1803 925 1778 c 1,33,-1
EndSplineSet
EndChar

StartChar: ydieresis
Encoding: 255 255 174
Width: 940
Flags: HMW
HStem: -487 21G<163 163> 1429 262<384.5 432 783 830.5>
VStem: 277 264<1532.5 1586> 676 265<1533 1587.5>
LayerCount: 2
Fore
SplineSet
970 1183 m 1,0,-1
 393 -454 l 2,1,2
 385 -479 385 -479 364 -480 c 2,3,-1
 163 -487 l 1,4,5
 141 -486 141 -486 141 -467 c 1,6,-1
 313 18 l 1,7,-1
 157 1178 l 1,8,9
 157 1201 157 1201 182 1202 c 2,10,-1
 379 1209 l 1,11,12
 402 1208 402 1208 404 1183 c 2,13,-1
 480 342 l 1,14,-1
 723 1178 l 2,15,16
 729 1201 729 1201 749 1202 c 2,17,-1
 945 1209 l 1,18,19
 970 1207 970 1207 970 1183 c 1,0,-1
310.5 1463.5 m 128,-1,21
 277 1498 277 1498 277 1551.5 c 128,-1,22
 277 1605 277 1605 321 1648 c 128,-1,23
 365 1691 365 1691 419.5 1691 c 128,-1,24
 474 1691 474 1691 507.5 1656.5 c 128,-1,25
 541 1622 541 1622 541 1568 c 128,-1,26
 541 1514 541 1514 496.5 1471.5 c 128,-1,27
 452 1429 452 1429 398 1429 c 128,-1,20
 344 1429 344 1429 310.5 1463.5 c 128,-1,21
709.5 1464 m 128,-1,29
 676 1499 676 1499 676 1553 c 128,-1,30
 676 1607 676 1607 719.5 1649 c 128,-1,31
 763 1691 763 1691 817.5 1691 c 128,-1,32
 872 1691 872 1691 906.5 1656.5 c 128,-1,33
 941 1622 941 1622 941 1568 c 128,-1,34
 941 1514 941 1514 895.5 1471.5 c 128,-1,35
 850 1429 850 1429 796.5 1429 c 128,-1,28
 743 1429 743 1429 709.5 1464 c 128,-1,29
EndSplineSet
EndChar

StartChar: eth
Encoding: 240 240 175
Width: 1018
Flags: HMW
HStem: -11 235<440.5 533.5 440.5 632.5> 869 205<511 537 407 592> 1670 20G<452 460>
VStem: 122 246<358.5 436> 674 243
LayerCount: 2
Fore
SplineSet
735 1387 m 1,0,1
 917 1082.97727273 917 1082.97727273 917 727 c 0,2,3
 917 345.505494505 917 345.505494505 786.5 139 c 0,4,5
 691.708333333 -11 691.708333333 -11 501.354166667 -11 c 128,-1,6
 311 -11 311 -11 216.5 96 c 128,-1,7
 122 203 122 203 122 397 c 0,8,9
 122 490 122 490 153 672 c 128,-1,10
 184 854 184 854 272 964 c 128,-1,11
 360 1074 360 1074 508 1074 c 0,12,13
 590 1074 590 1074 652 1025 c 1,14,15
 626 1173 626 1173 564 1292 c 1,16,-1
 455 1231 l 2,17,18
 444 1225 444 1225 435 1225 c 128,-1,19
 426 1225 426 1225 421 1234 c 2,20,-1
 367 1336 l 2,21,22
 363 1343 363 1343 363 1349 c 128,-1,23
 363 1355 363 1355 374 1362 c 2,24,-1
 479 1429 l 1,25,26
 434 1491 434 1491 391.5 1541 c 128,-1,27
 349 1591 349 1591 349 1597.5 c 128,-1,28
 349 1604 349 1604 361 1615 c 2,29,-1
 435 1681 l 1,30,31
 448 1690 448 1690 457 1690 c 128,-1,32
 466 1690 466 1690 479 1681 c 0,33,34
 562 1618 562 1618 637 1529 c 1,35,-1
 751 1601 l 2,36,37
 765 1609 765 1609 772 1609 c 128,-1,38
 779 1609 779 1609 786 1599 c 1,39,-1
 852 1476 l 2,40,41
 854 1471 854 1471 854 1463.5 c 128,-1,42
 854 1456 854 1456 844 1448 c 1,43,-1
 735 1387 l 1,0,1
590 273 m 128,-1,45
 624 322 624 322 647 461.5 c 128,-1,46
 670 601 670 601 674 723 c 1,47,48
 672 803 672 803 643 836 c 128,-1,49
 614 869 614 869 552 869 c 128,-1,50
 490 869 490 869 454.5 821 c 128,-1,51
 419 773 419 773 393.5 639.5 c 128,-1,52
 368 506 368 506 368 435.5 c 128,-1,53
 368 365 368 365 373 337 c 128,-1,54
 378 309 378 309 390.5 281.5 c 0,55,56
 416.636363636 224 416.636363636 224 486.318181818 224 c 128,-1,44
 556 224 556 224 590 273 c 128,-1,45
EndSplineSet
EndChar

StartChar: rcaron
Encoding: 345 345 176
Width: 794
Flags: HMW
HStem: -4 21G<128 128> 965 253<677.5 683> 1356 453 1792 20G
LayerCount: 2
Fore
SplineSet
779 954 m 1,0,-1
 672 965 l 1,1,2
 542 965 542 965 454 913 c 1,3,-1
 355 31 l 2,4,5
 351.377777778 5.64444444444 351.377777778 5.64444444444 330 4 c 2,6,-1
 128 -4 l 1,7,8
 106 -2 106 -2 106 15 c 1,9,-1
 238 1178 l 1,10,11
 241.727272727 1200.36363636 241.727272727 1200.36363636 263 1202 c 2,12,-1
 458 1209 l 1,13,14
 485 1208 485 1208 485 1183 c 1,15,-1
 473 1080 l 1,16,17
 537 1145 537 1145 597 1181.5 c 128,-1,18
 657 1218 657 1218 717.5 1218 c 128,-1,19
 778 1218 778 1218 810 1213 c 0,20,21
 831 1209 831 1209 831 1185 c 0,22,23
 831 1116 831 1116 808 980 c 0,24,25
 803 954 803 954 779 954 c 1,0,-1
306 1379 m 2,26,-1
 185 1778 l 1,27,28
 185 1793 185 1793 189.5 1799.5 c 128,-1,29
 194 1806 194 1806 209 1807 c 2,30,-1
 338 1812 l 1,31,32
 364 1810 364 1810 370 1792 c 2,33,-1
 446 1566 l 1,34,-1
 588 1782 l 2,35,36
 603 1805 603 1805 624 1806 c 2,37,-1
 756 1812 l 1,38,39
 777 1810 777 1810 777 1792 c 1,40,-1
 550 1386 l 2,41,42
 537 1361 537 1361 516 1360 c 2,43,-1
 339 1353 l 1,44,45
 314 1354 314 1354 306 1379 c 2,26,-1
EndSplineSet
EndChar

StartChar: kcommaaccent
Encoding: 311 311 177
Width: 981
Flags: HMW
HStem: -625 21G<342 352.5> -45 45 1672 20G<514 514>
VStem: 280 281<-229.5 -159.5>
LayerCount: 2
Fore
SplineSet
885 21 m 0,0,1
 885 3 885 3 858 3 c 2,2,-1
 645 -4 l 1,3,4
 630 -3 630 -3 623 15 c 2,5,-1
 419 590 l 1,6,-1
 356 30 l 2,7,8
 354 16 354 16 349 10 c 128,-1,9
 344 4 344 4 330 3 c 2,10,-1
 129 -4 l 1,11,12
 107 -2 107 -2 107 15 c 1,13,-1
 292 1658 l 2,14,15
 294 1672 294 1672 299 1678 c 128,-1,16
 304 1684 304 1684 318 1685 c 2,17,-1
 514 1692 l 1,18,19
 540 1689 540 1689 540 1665 c 1,20,-1
 426 653 l 1,21,-1
 692 1177 l 2,22,23
 704 1201 704 1201 725 1202 c 2,24,-1
 932 1209 l 1,25,26
 957 1206.5 957 1206.5 957 1186 c 0,27,28
 957 1175 957 1175 953 1166 c 1,29,-1
 654 647 l 1,30,-1
 882 33 l 2,31,32
 885 26 885 26 885 21 c 0,0,1
434 -597 m 1,33,34
 418 -621 418 -621 401.5 -623 c 128,-1,35
 385 -625 385 -625 357.5 -625 c 128,-1,36
 330 -625 330 -625 330 -608 c 128,-1,37
 330 -591 330 -591 344 -510.5 c 128,-1,38
 358 -430 358 -430 365 -328 c 1,39,40
 323 -314 323 -314 301.5 -279.5 c 128,-1,41
 280 -245 280 -245 280 -191 c 128,-1,42
 280 -137 280 -137 323 -91 c 128,-1,43
 366 -45 366 -45 428.5 -45 c 128,-1,44
 491 -45 491 -45 526 -87 c 128,-1,45
 561 -129 561 -129 561 -200.5 c 128,-1,46
 561 -272 561 -272 517 -408 c 128,-1,47
 473 -544 473 -544 434 -597 c 1,33,34
EndSplineSet
EndChar

StartChar: rcommaaccent
Encoding: 343 343 178
Width: 794
Flags: HMW
HStem: -625 21G<128 138.5> -45 45 965 253<677.5 683>
VStem: 66 281<-229.5 -159.5>
LayerCount: 2
Fore
SplineSet
779 954 m 1,0,-1
 672 965 l 1,1,2
 542 965 542 965 454 913 c 1,3,-1
 355 31 l 2,4,5
 351.377777778 5.64444444444 351.377777778 5.64444444444 330 4 c 2,6,-1
 128 -4 l 1,7,8
 106 -2 106 -2 106 15 c 1,9,-1
 238 1178 l 1,10,11
 241.727272727 1200.36363636 241.727272727 1200.36363636 263 1202 c 2,12,-1
 458 1209 l 1,13,14
 485 1208 485 1208 485 1183 c 1,15,-1
 473 1080 l 1,16,17
 537 1145 537 1145 597 1181.5 c 128,-1,18
 657 1218 657 1218 717.5 1218 c 128,-1,19
 778 1218 778 1218 810 1213 c 0,20,21
 831 1209 831 1209 831 1185 c 0,22,23
 831 1116 831 1116 808 980 c 0,24,25
 803 954 803 954 779 954 c 1,0,-1
220 -597 m 1,26,27
 204 -621 204 -621 187.5 -623 c 128,-1,28
 171 -625 171 -625 143.5 -625 c 128,-1,29
 116 -625 116 -625 116 -608 c 128,-1,30
 116 -591 116 -591 130 -510.5 c 128,-1,31
 144 -430 144 -430 151 -328 c 1,32,33
 109 -314 109 -314 87.5 -279.5 c 128,-1,34
 66 -245 66 -245 66 -191 c 128,-1,35
 66 -137 66 -137 109 -91 c 128,-1,36
 152 -45 152 -45 214.5 -45 c 128,-1,37
 277 -45 277 -45 312 -87 c 128,-1,38
 347 -129 347 -129 347 -200.5 c 128,-1,39
 347 -272 347 -272 303 -408 c 128,-1,40
 259 -544 259 -544 220 -597 c 1,26,27
EndSplineSet
EndChar

StartChar: Nacute
Encoding: 323 323 179
Width: 1085
Flags: HMW
HStem: -4 21G<125.5 132 661.5 668> 1671 252 1910 20G<911 911>
VStem: 401 375
LayerCount: 2
Fore
SplineSet
1064 1538 m 1,0,-1
 892 32 l 2,1,2
 888.419161677 8.7245508982 888.419161677 8.7245508982 866 7 c 2,3,-1
 668 -4 l 2,4,5
 651 -4 651 -4 648 15 c 2,6,-1
 438 1083 l 1,7,-1
 364 28 l 2,8,9
 363 4 363 4 338 3 c 2,10,-1
 132 -4 l 2,11,12
 110 -4 110 -4 110 15 c 1,13,-1
 283 1528 l 1,14,15
 286.56626506 1549.39759036 286.56626506 1549.39759036 309 1551 c 2,16,-1
 512 1562 l 2,17,18
 526 1562 526 1562 530.5 1556.5 c 128,-1,19
 535 1551 535 1551 538 1538 c 2,20,-1
 741 529 l 1,21,-1
 811 1528 l 2,22,23
 812 1550 812 1550 838 1551 c 2,24,-1
 1037 1562 l 1,25,26
 1064 1562 1064 1562 1064 1538 c 1,0,-1
937 1905 m 1,27,-1
 773 1697 l 1,28,29
 755 1676 755 1676 728 1674 c 2,30,-1
 597 1669 l 1,31,32
 575 1671 575 1671 575 1689 c 1,33,-1
 656 1891 l 2,34,35
 665 1914 665 1914 699 1916 c 2,36,-1
 911 1930 l 1,37,38
 937 1928 937 1928 937 1905 c 1,27,-1
EndSplineSet
EndChar

StartChar: Ntilde
Encoding: 209 209 180
Width: 1085
Flags: HMW
HStem: -4 21G<125.5 132 661.5 668> 1680 181<844.5 880.5> 1741 181<543 577>
VStem: 401 375
LayerCount: 2
Fore
SplineSet
1064 1538 m 1,0,-1
 892 32 l 2,1,2
 888.419161677 8.7245508982 888.419161677 8.7245508982 866 7 c 2,3,-1
 668 -4 l 2,4,5
 651 -4 651 -4 648 15 c 2,6,-1
 438 1083 l 1,7,-1
 364 28 l 2,8,9
 363 4 363 4 338 3 c 2,10,-1
 132 -4 l 2,11,12
 110 -4 110 -4 110 15 c 1,13,-1
 283 1528 l 1,14,15
 286.56626506 1549.39759036 286.56626506 1549.39759036 309 1551 c 2,16,-1
 512 1562 l 2,17,18
 526 1562 526 1562 530.5 1556.5 c 128,-1,19
 535 1551 535 1551 538 1538 c 2,20,-1
 741 529 l 1,21,-1
 811 1528 l 2,22,23
 812 1550 812 1550 838 1551 c 2,24,-1
 1037 1562 l 1,25,26
 1064 1562 1064 1562 1064 1538 c 1,0,-1
596 1922 m 0,27,28
 651 1922 651 1922 733.5 1891.5 c 128,-1,29
 816 1861 816 1861 860 1861 c 128,-1,30
 904 1861 904 1861 964.5 1887.5 c 128,-1,31
 1025 1914 1025 1914 1041.5 1914 c 128,-1,32
 1058 1914 1058 1914 1060 1897 c 2,33,-1
 1066 1822 l 1,34,35
 1066 1801 1066 1801 1043.5 1781 c 128,-1,36
 1021 1761 1021 1761 1007 1750 c 128,-1,37
 993 1739 993 1739 963 1719 c 0,38,39
 904.5 1680 904.5 1680 834.75 1680 c 128,-1,40
 765 1680 765 1680 688.5 1710.5 c 128,-1,41
 612 1741 612 1741 565.5 1741 c 128,-1,42
 519 1741 519 1741 458.5 1714.5 c 128,-1,43
 398 1688 398 1688 381.5 1688 c 128,-1,44
 365 1688 365 1688 364 1704 c 2,45,-1
 358 1780 l 1,46,47
 358 1798 358 1798 380 1821 c 0,48,49
 478 1922 478 1922 596 1922 c 0,27,28
EndSplineSet
EndChar

StartChar: Ograve
Encoding: 210 210 181
Width: 1047
Flags: HMW
HStem: -15 236<473.5 544 473.5 629.5> 1338 236<589.5 661> 1681 244 1909 20G<658 658>
VStem: 138 255<320 421.5> 739 255<1135.5 1238>
LayerCount: 2
Fore
SplineSet
224 85 m 128,-1,1
 138 185 138 185 138 335 c 0,2,3
 138 716.846153846 138 716.846153846 215 1090 c 0,4,5
 276.153353659 1382.89237805 276.153353659 1382.89237805 384.5 1481.5 c 0,6,7
 486.135802469 1574 486.135802469 1574 653.567901235 1574 c 128,-1,8
 821 1574 821 1574 907.5 1473 c 128,-1,9
 994 1372 994 1372 994 1224.5 c 128,-1,10
 994 1077 994 1077 975 867.5 c 128,-1,11
 956 658 956 658 928 517.5 c 128,-1,12
 900 377 900 377 880.5 312.5 c 128,-1,13
 861 248 861 248 827 182 c 128,-1,14
 793 116 793 116 748.5 76 c 0,15,16
 647.2625 -15 647.2625 -15 478.63125 -15 c 128,-1,0
 310 -15 310 -15 224 85 c 128,-1,1
504 221 m 0,17,18
 631 221 631 221 667 455 c 0,19,20
 691 610 691 610 715 841 c 128,-1,21
 739 1072 739 1072 739 1166 c 128,-1,22
 739 1260 739 1260 708.5 1299 c 128,-1,23
 678 1338 678 1338 622.5 1338 c 0,24,25
 506.36 1338 506.36 1338 465 1103 c 0,26,27
 441 965 441 965 417 728.5 c 128,-1,28
 393 492 393 492 393 395 c 128,-1,29
 393 298 393 298 424.5 259.5 c 128,-1,30
 456 221 456 221 504 221 c 0,17,18
658 1929 m 1,31,32
 678.115606936 1927.32369942 678.115606936 1927.32369942 689 1904 c 1,33,-1
 762 1712 l 1,34,35
 762 1686 762 1686 736 1685 c 2,36,-1
 600 1678 l 1,37,38
 585 1679 585 1679 567 1699 c 1,39,-1
 404 1897 l 1,40,41
 404 1920 404 1920 427 1921 c 2,42,-1
 658 1929 l 1,31,32
EndSplineSet
EndChar

StartChar: Oacute
Encoding: 211 211 182
Width: 1047
Flags: HMW
HStem: -15 236<473.5 544 473.5 629.5> 1338 236<589.5 661> 1671 252 1910 20G<890 890>
VStem: 138 255<320 421.5> 739 255<1135.5 1238>
LayerCount: 2
Fore
SplineSet
224 85 m 128,-1,1
 138 185 138 185 138 335 c 0,2,3
 138 716.846153846 138 716.846153846 215 1090 c 0,4,5
 276.153353659 1382.89237805 276.153353659 1382.89237805 384.5 1481.5 c 0,6,7
 486.135802469 1574 486.135802469 1574 653.567901235 1574 c 128,-1,8
 821 1574 821 1574 907.5 1473 c 128,-1,9
 994 1372 994 1372 994 1224.5 c 128,-1,10
 994 1077 994 1077 975 867.5 c 128,-1,11
 956 658 956 658 928 517.5 c 128,-1,12
 900 377 900 377 880.5 312.5 c 128,-1,13
 861 248 861 248 827 182 c 128,-1,14
 793 116 793 116 748.5 76 c 0,15,16
 647.2625 -15 647.2625 -15 478.63125 -15 c 128,-1,0
 310 -15 310 -15 224 85 c 128,-1,1
504 221 m 0,17,18
 631 221 631 221 667 455 c 0,19,20
 691 610 691 610 715 841 c 128,-1,21
 739 1072 739 1072 739 1166 c 128,-1,22
 739 1260 739 1260 708.5 1299 c 128,-1,23
 678 1338 678 1338 622.5 1338 c 0,24,25
 506.36 1338 506.36 1338 465 1103 c 0,26,27
 441 965 441 965 417 728.5 c 128,-1,28
 393 492 393 492 393 395 c 128,-1,29
 393 298 393 298 424.5 259.5 c 128,-1,30
 456 221 456 221 504 221 c 0,17,18
916 1905 m 1,31,-1
 752 1697 l 1,32,33
 734 1676 734 1676 707 1674 c 2,34,-1
 576 1669 l 1,35,36
 554 1671 554 1671 554 1689 c 1,37,-1
 635 1891 l 2,38,39
 644 1914 644 1914 678 1916 c 2,40,-1
 890 1930 l 1,41,42
 916 1928 916 1928 916 1905 c 1,31,-1
EndSplineSet
EndChar

StartChar: Ocircumflex
Encoding: 212 212 183
Width: 1047
Flags: HMW
HStem: -15 236<473.5 544 473.5 629.5> 1338 236<589.5 661> 1919 20G<841 847>
VStem: 138 255<320 421.5> 739 255<1135.5 1238>
LayerCount: 2
Fore
SplineSet
224 85 m 128,-1,1
 138 185 138 185 138 335 c 0,2,3
 138 716.846153846 138 716.846153846 215 1090 c 0,4,5
 276.153353659 1382.89237805 276.153353659 1382.89237805 384.5 1481.5 c 0,6,7
 486.135802469 1574 486.135802469 1574 653.567901235 1574 c 128,-1,8
 821 1574 821 1574 907.5 1473 c 128,-1,9
 994 1372 994 1372 994 1224.5 c 128,-1,10
 994 1077 994 1077 975 867.5 c 128,-1,11
 956 658 956 658 928 517.5 c 128,-1,12
 900 377 900 377 880.5 312.5 c 128,-1,13
 861 248 861 248 827 182 c 128,-1,14
 793 116 793 116 748.5 76 c 0,15,16
 647.2625 -15 647.2625 -15 478.63125 -15 c 128,-1,0
 310 -15 310 -15 224 85 c 128,-1,1
504 221 m 0,17,18
 631 221 631 221 667 455 c 0,19,20
 691 610 691 610 715 841 c 128,-1,21
 739 1072 739 1072 739 1166 c 128,-1,22
 739 1260 739 1260 708.5 1299 c 128,-1,23
 678 1338 678 1338 622.5 1338 c 0,24,25
 506.36 1338 506.36 1338 465 1103 c 0,26,27
 441 965 441 965 417 728.5 c 128,-1,28
 393 492 393 492 393 395 c 128,-1,29
 393 298 393 298 424.5 259.5 c 128,-1,30
 456 221 456 221 504 221 c 0,17,18
873 1913 m 1,31,-1
 1049 1690 l 1,32,33
 1049 1664.66666667 1049 1664.66666667 1024 1663 c 2,34,-1
 879 1658 l 2,35,36
 868 1658 868 1658 842 1678 c 1,37,-1
 685 1814 l 1,38,-1
 518 1667 l 2,39,40
 494 1645 494 1645 478 1644 c 2,41,-1
 336 1638 l 1,42,43
 314 1640 314 1640 314 1658 c 1,44,-1
 541 1907 l 2,45,46
 557 1926 557 1926 570 1927 c 2,47,-1
 841 1939 l 2,48,49
 854 1939 854 1939 873 1913 c 1,31,-1
EndSplineSet
EndChar

StartChar: Otilde
Encoding: 213 213 184
Width: 1047
Flags: HMW
HStem: -15 236<473.5 544 473.5 629.5> 1338 236<589.5 661> 1680 181<822.5 858.5> 1741 181<521 555>
VStem: 138 255<320 421.5> 739 255<1135.5 1238>
LayerCount: 2
Fore
SplineSet
224 85 m 128,-1,1
 138 185 138 185 138 335 c 0,2,3
 138 716.846153846 138 716.846153846 215 1090 c 0,4,5
 276.153353659 1382.89237805 276.153353659 1382.89237805 384.5 1481.5 c 0,6,7
 486.135802469 1574 486.135802469 1574 653.567901235 1574 c 128,-1,8
 821 1574 821 1574 907.5 1473 c 128,-1,9
 994 1372 994 1372 994 1224.5 c 128,-1,10
 994 1077 994 1077 975 867.5 c 128,-1,11
 956 658 956 658 928 517.5 c 128,-1,12
 900 377 900 377 880.5 312.5 c 128,-1,13
 861 248 861 248 827 182 c 128,-1,14
 793 116 793 116 748.5 76 c 0,15,16
 647.2625 -15 647.2625 -15 478.63125 -15 c 128,-1,0
 310 -15 310 -15 224 85 c 128,-1,1
504 221 m 0,17,18
 631 221 631 221 667 455 c 0,19,20
 691 610 691 610 715 841 c 128,-1,21
 739 1072 739 1072 739 1166 c 128,-1,22
 739 1260 739 1260 708.5 1299 c 128,-1,23
 678 1338 678 1338 622.5 1338 c 0,24,25
 506.36 1338 506.36 1338 465 1103 c 0,26,27
 441 965 441 965 417 728.5 c 128,-1,28
 393 492 393 492 393 395 c 128,-1,29
 393 298 393 298 424.5 259.5 c 128,-1,30
 456 221 456 221 504 221 c 0,17,18
574 1922 m 0,31,32
 629 1922 629 1922 711.5 1891.5 c 128,-1,33
 794 1861 794 1861 838 1861 c 128,-1,34
 882 1861 882 1861 942.5 1887.5 c 128,-1,35
 1003 1914 1003 1914 1019.5 1914 c 128,-1,36
 1036 1914 1036 1914 1038 1897 c 2,37,-1
 1044 1822 l 1,38,39
 1044 1801 1044 1801 1021.5 1781 c 128,-1,40
 999 1761 999 1761 985 1750 c 128,-1,41
 971 1739 971 1739 941 1719 c 0,42,43
 882.5 1680 882.5 1680 812.75 1680 c 128,-1,44
 743 1680 743 1680 666.5 1710.5 c 128,-1,45
 590 1741 590 1741 543.5 1741 c 128,-1,46
 497 1741 497 1741 436.5 1714.5 c 128,-1,47
 376 1688 376 1688 359.5 1688 c 128,-1,48
 343 1688 343 1688 342 1704 c 2,49,-1
 336 1780 l 1,50,51
 336 1798 336 1798 358 1821 c 0,52,53
 456 1922 456 1922 574 1922 c 0,31,32
EndSplineSet
EndChar

StartChar: Odieresis
Encoding: 214 214 185
Width: 1047
Flags: HMW
HStem: -15 236<473.5 544 473.5 629.5> 1338 236<589.5 661> 1687 242<448 496 870.5 918>
VStem: 138 255<320 421.5> 341 264<1781 1834> 739 255<1135.5 1238> 763 265<1781.5 1836>
LayerCount: 2
Fore
SplineSet
224 85 m 128,-1,1
 138 185 138 185 138 335 c 0,2,3
 138 716.846153846 138 716.846153846 215 1090 c 0,4,5
 276.153353659 1382.89237805 276.153353659 1382.89237805 384.5 1481.5 c 0,6,7
 486.135802469 1574 486.135802469 1574 653.567901235 1574 c 128,-1,8
 821 1574 821 1574 907.5 1473 c 128,-1,9
 994 1372 994 1372 994 1224.5 c 128,-1,10
 994 1077 994 1077 975 867.5 c 128,-1,11
 956 658 956 658 928 517.5 c 128,-1,12
 900 377 900 377 880.5 312.5 c 128,-1,13
 861 248 861 248 827 182 c 128,-1,14
 793 116 793 116 748.5 76 c 0,15,16
 647.2625 -15 647.2625 -15 478.63125 -15 c 128,-1,0
 310 -15 310 -15 224 85 c 128,-1,1
504 221 m 0,17,18
 631 221 631 221 667 455 c 0,19,20
 691 610 691 610 715 841 c 128,-1,21
 739 1072 739 1072 739 1166 c 128,-1,22
 739 1260 739 1260 708.5 1299 c 128,-1,23
 678 1338 678 1338 622.5 1338 c 0,24,25
 506.36 1338 506.36 1338 465 1103 c 0,26,27
 441 965 441 965 417 728.5 c 128,-1,28
 393 492 393 492 393 395 c 128,-1,29
 393 298 393 298 424.5 259.5 c 128,-1,30
 456 221 456 221 504 221 c 0,17,18
373.5 1717 m 128,-1,32
 341 1747 341 1747 341 1799.5 c 128,-1,33
 341 1852 341 1852 384.5 1890.5 c 128,-1,34
 428 1929 428 1929 483 1929 c 128,-1,35
 538 1929 538 1929 571.5 1899 c 128,-1,36
 605 1869 605 1869 605 1816 c 128,-1,37
 605 1763 605 1763 561 1725 c 128,-1,38
 517 1687 517 1687 461.5 1687 c 128,-1,31
 406 1687 406 1687 373.5 1717 c 128,-1,32
796 1717.5 m 128,-1,40
 763 1748 763 1748 763 1801 c 128,-1,41
 763 1854 763 1854 806 1891.5 c 128,-1,42
 849 1929 849 1929 905 1929 c 128,-1,43
 961 1929 961 1929 994.5 1899 c 128,-1,44
 1028 1869 1028 1869 1028 1816 c 128,-1,45
 1028 1763 1028 1763 983.5 1725 c 128,-1,46
 939 1687 939 1687 884 1687 c 128,-1,39
 829 1687 829 1687 796 1717.5 c 128,-1,40
EndSplineSet
EndChar

StartChar: Racute
Encoding: 340 340 186
Width: 1032
Flags: HMW
HStem: -4 21G<132 132 709 709> 1340 228<597.5 654.5> 1671 252 1910 20G<888 888>
VStem: 750 256<1121 1246.5>
LayerCount: 2
Fore
SplineSet
961 24 m 0,0,1
 961 4 961 4 934 4 c 2,2,-1
 709 -4 l 1,3,4
 694 -3 694 -3 687 15 c 2,5,-1
 436 651 l 1,6,-1
 366 28 l 2,7,8
 363 4 363 4 341 3 c 2,9,-1
 132 -4 l 1,10,11
 110 -2 110 -2 110 15 c 1,12,-1
 283 1520 l 2,13,14
 285 1538 285 1538 292 1544.5 c 128,-1,15
 299 1551 299 1551 398 1559.5 c 128,-1,16
 497 1568 497 1568 662 1568 c 128,-1,17
 827 1568 827 1568 916.5 1480.5 c 128,-1,18
 1006 1393 1006 1393 1006 1255 c 128,-1,19
 1006 1117 1006 1117 973 1011.5 c 128,-1,20
 940 906 940 906 864 822 c 128,-1,21
 788 738 788 738 674 697 c 1,22,-1
 958 36 l 2,23,24
 961 30 961 30 961 24 c 0,0,1
513 1335 m 1,25,-1
 457 838 l 1,26,27
 642.474926254 849.240904621 642.474926254 849.240904621 712 1006.5 c 0,28,29
 750 1092.45238095 750 1092.45238095 750 1180.72619048 c 128,-1,30
 750 1269 750 1269 713.5 1304.5 c 128,-1,31
 677 1340 677 1340 608 1340 c 128,-1,32
 539 1340 539 1340 513 1335 c 1,25,-1
914 1905 m 1,33,-1
 750 1697 l 1,34,35
 732 1676 732 1676 705 1674 c 2,36,-1
 574 1669 l 1,37,38
 552 1671 552 1671 552 1689 c 1,39,-1
 633 1891 l 2,40,41
 642 1914 642 1914 676 1916 c 2,42,-1
 888 1930 l 1,43,44
 914 1928 914 1928 914 1905 c 1,33,-1
EndSplineSet
EndChar

StartChar: Rcaron
Encoding: 344 344 187
Width: 1032
Flags: HMW
HStem: -4 21G<132 132 709 709> 1340 228<597.5 654.5> 1919 20G
VStem: 750 256<1121 1246.5>
LayerCount: 2
Fore
SplineSet
961 24 m 0,0,1
 961 4 961 4 934 4 c 2,2,-1
 709 -4 l 1,3,4
 694 -3 694 -3 687 15 c 2,5,-1
 436 651 l 1,6,-1
 366 28 l 2,7,8
 363 4 363 4 341 3 c 2,9,-1
 132 -4 l 1,10,11
 110 -2 110 -2 110 15 c 1,12,-1
 283 1520 l 2,13,14
 285 1538 285 1538 292 1544.5 c 128,-1,15
 299 1551 299 1551 398 1559.5 c 128,-1,16
 497 1568 497 1568 662 1568 c 128,-1,17
 827 1568 827 1568 916.5 1480.5 c 128,-1,18
 1006 1393 1006 1393 1006 1255 c 128,-1,19
 1006 1117 1006 1117 973 1011.5 c 128,-1,20
 940 906 940 906 864 822 c 128,-1,21
 788 738 788 738 674 697 c 1,22,-1
 958 36 l 2,23,24
 961 30 961 30 961 24 c 0,0,1
513 1335 m 1,25,-1
 457 838 l 1,26,27
 642.474926254 849.240904621 642.474926254 849.240904621 712 1006.5 c 0,28,29
 750 1092.45238095 750 1092.45238095 750 1180.72619048 c 128,-1,30
 750 1269 750 1269 713.5 1304.5 c 128,-1,31
 677 1340 677 1340 608 1340 c 128,-1,32
 539 1340 539 1340 513 1335 c 1,25,-1
491 1664 m 1,33,-1
 315 1887 l 1,34,35
 315 1912.33333333 315 1912.33333333 340 1914 c 2,36,-1
 485 1919 l 2,37,38
 496 1919 496 1919 522 1899 c 1,39,-1
 679 1763 l 1,40,-1
 846 1910 l 2,41,42
 870 1932 870 1932 886 1933 c 2,43,-1
 1028 1939 l 1,44,45
 1050 1937 1050 1937 1050 1919 c 1,46,-1
 823 1670 l 2,47,48
 807 1651 807 1651 794 1650 c 2,49,-1
 523 1638 l 2,50,51
 510 1638 510 1638 491 1664 c 1,33,-1
EndSplineSet
EndChar

StartChar: Ugrave
Encoding: 217 217 188
Width: 1063
Flags: HMW
HStem: -15 236<479.5 566 479.5 639> 1681 244 1909 20G<668 668>
VStem: 155 251<312 342.5>
LayerCount: 2
Fore
SplineSet
535 1534 m 1,0,-1
 420 509 l 2,1,2
 406 391 406 391 406 341 c 128,-1,3
 406 291 406 291 434 256 c 128,-1,4
 462 221 462 221 525 221 c 128,-1,5
 588 221 588 221 621 284 c 128,-1,6
 654 347 654 347 670 486 c 2,7,-1
 787 1528 l 2,8,9
 790 1550 790 1550 814 1551 c 2,10,-1
 1016 1559 l 1,11,12
 1041 1558 1041 1558 1041 1535 c 1,13,-1
 926 509 l 2,14,15
 891.317979892 193.708908113 891.317979892 193.708908113 763.5 78 c 0,16,17
 660.76744186 -15 660.76744186 -15 495.38372093 -15 c 128,-1,18
 330 -15 330 -15 242.5 71.5 c 128,-1,19
 155 158 155 158 155 327 c 0,20,21
 155 408 155 408 165 496 c 2,22,-1
 283 1528 l 2,23,24
 285 1541 285 1541 289.5 1545.5 c 128,-1,25
 294 1550 294 1550 308 1551 c 2,26,-1
 510 1558 l 1,27,28
 535 1557 535 1557 535 1534 c 1,0,-1
668 1929 m 1,29,30
 688.115606936 1927.32369942 688.115606936 1927.32369942 699 1904 c 1,31,-1
 772 1712 l 1,32,33
 772 1686 772 1686 746 1685 c 2,34,-1
 610 1678 l 1,35,36
 595 1679 595 1679 577 1699 c 1,37,-1
 414 1897 l 1,38,39
 414 1920 414 1920 437 1921 c 2,40,-1
 668 1929 l 1,29,30
EndSplineSet
EndChar

StartChar: Uacute
Encoding: 218 218 189
Width: 1063
Flags: HMW
HStem: -15 236<479.5 566 479.5 639> 1671 252 1910 20G<900 900>
VStem: 155 251<312 342.5>
LayerCount: 2
Fore
SplineSet
535 1534 m 1,0,-1
 420 509 l 2,1,2
 406 391 406 391 406 341 c 128,-1,3
 406 291 406 291 434 256 c 128,-1,4
 462 221 462 221 525 221 c 128,-1,5
 588 221 588 221 621 284 c 128,-1,6
 654 347 654 347 670 486 c 2,7,-1
 787 1528 l 2,8,9
 790 1550 790 1550 814 1551 c 2,10,-1
 1016 1559 l 1,11,12
 1041 1558 1041 1558 1041 1535 c 1,13,-1
 926 509 l 2,14,15
 891.317979892 193.708908113 891.317979892 193.708908113 763.5 78 c 0,16,17
 660.76744186 -15 660.76744186 -15 495.38372093 -15 c 128,-1,18
 330 -15 330 -15 242.5 71.5 c 128,-1,19
 155 158 155 158 155 327 c 0,20,21
 155 408 155 408 165 496 c 2,22,-1
 283 1528 l 2,23,24
 285 1541 285 1541 289.5 1545.5 c 128,-1,25
 294 1550 294 1550 308 1551 c 2,26,-1
 510 1558 l 1,27,28
 535 1557 535 1557 535 1534 c 1,0,-1
926 1905 m 1,29,-1
 762 1697 l 1,30,31
 744 1676 744 1676 717 1674 c 2,32,-1
 586 1669 l 1,33,34
 564 1671 564 1671 564 1689 c 1,35,-1
 645 1891 l 2,36,37
 654 1914 654 1914 688 1916 c 2,38,-1
 900 1930 l 1,39,40
 926 1928 926 1928 926 1905 c 1,29,-1
EndSplineSet
EndChar

StartChar: Ucircumflex
Encoding: 219 219 190
Width: 1063
Flags: HMW
HStem: -15 236<479.5 566 479.5 639> 1919 20G<851 857>
VStem: 155 251<312 342.5>
LayerCount: 2
Fore
SplineSet
535 1534 m 1,0,-1
 420 509 l 2,1,2
 406 391 406 391 406 341 c 128,-1,3
 406 291 406 291 434 256 c 128,-1,4
 462 221 462 221 525 221 c 128,-1,5
 588 221 588 221 621 284 c 128,-1,6
 654 347 654 347 670 486 c 2,7,-1
 787 1528 l 2,8,9
 790 1550 790 1550 814 1551 c 2,10,-1
 1016 1559 l 1,11,12
 1041 1558 1041 1558 1041 1535 c 1,13,-1
 926 509 l 2,14,15
 891.317979892 193.708908113 891.317979892 193.708908113 763.5 78 c 0,16,17
 660.76744186 -15 660.76744186 -15 495.38372093 -15 c 128,-1,18
 330 -15 330 -15 242.5 71.5 c 128,-1,19
 155 158 155 158 155 327 c 0,20,21
 155 408 155 408 165 496 c 2,22,-1
 283 1528 l 2,23,24
 285 1541 285 1541 289.5 1545.5 c 128,-1,25
 294 1550 294 1550 308 1551 c 2,26,-1
 510 1558 l 1,27,28
 535 1557 535 1557 535 1534 c 1,0,-1
883 1913 m 1,29,-1
 1059 1690 l 1,30,31
 1059 1664.66666667 1059 1664.66666667 1034 1663 c 2,32,-1
 889 1658 l 2,33,34
 878 1658 878 1658 852 1678 c 1,35,-1
 695 1814 l 1,36,-1
 528 1667 l 2,37,38
 504 1645 504 1645 488 1644 c 2,39,-1
 346 1638 l 1,40,41
 324 1640 324 1640 324 1658 c 1,42,-1
 551 1907 l 2,43,44
 567 1926 567 1926 580 1927 c 2,45,-1
 851 1939 l 2,46,47
 864 1939 864 1939 883 1913 c 1,29,-1
EndSplineSet
EndChar

